<?xml version="1.0" encoding="UTF-8"?>
<svg width="256px" height="104px" viewBox="0 0 256 104" version="1.1" xmlns="http://www.w3.org/2000/svg" xmlns:xlink="http://www.w3.org/1999/xlink">
    <!-- Generator: Sketch 53.2 (72643) - https://sketchapp.com -->
    <title> Logo Sphere Ventures</title>
    <desc>Created with Sketch.</desc>
    <defs>
        <linearGradient x1="92.0501587%" y1="58.1990469%" x2="10.4625397%" y2="45.653177%" id="linearGradient-1">
            <stop stop-color="#FFFFFF" offset="0%"></stop>
            <stop stop-color="#BBBCBE" offset="41.21%"></stop>
            <stop stop-color="#000000" offset="100%"></stop>
        </linearGradient>
        <linearGradient x1="0.135532332%" y1="50%" x2="100.129817%" y2="50%" id="linearGradient-2">
            <stop stop-color="#FFFFFE" offset="0%"></stop>
            <stop stop-color="#777978" offset="100%"></stop>
        </linearGradient>
        <path d="M59.6428,62.1222 C60.151,61.8394 60.6606,61.5622 61.18,61.292 C62.7676,60.4716 63.1373772,60.1361419 64.3497772,58.8677419 L65.1462,56.3486 L56.9142,47.9038 C53.8664,49.742 50.96,51.6124 47.999,53.5906 L59.6428,62.1222 Z" id="path-3"></path>
        <linearGradient x1="61.4794816%" y1="19.5061747%" x2="38.1490267%" y2="77.8785112%" id="linearGradient-5">
            <stop stop-color="#201C60" offset="0%"></stop>
            <stop stop-color="#13C0E8" offset="61.82%"></stop>
            <stop stop-color="#13C0E8" offset="100%"></stop>
        </linearGradient>
        <linearGradient x1="27.9671681%" y1="51.5440238%" x2="90.0254399%" y2="49.9999164%" id="linearGradient-6">
            <stop stop-color="#2CAFDD" offset="0%"></stop>
            <stop stop-color="#3290C3" offset="27.3694957%"></stop>
            <stop stop-color="#3371A9" offset="46.2337054%"></stop>
            <stop stop-color="#305490" offset="64.6384531%"></stop>
            <stop stop-color="#293878" offset="82.1228298%"></stop>
            <stop stop-color="#201C60" offset="100%"></stop>
            <stop stop-color="#201C60" offset="100%"></stop>
            <stop stop-color="#201C60" offset="100%"></stop>
            <stop stop-color="#201C60" offset="100%"></stop>
            <stop stop-color="#201C60" offset="100%"></stop>
            <stop stop-color="#201C60" offset="100%"></stop>
            <stop stop-color="#201C60" offset="100%"></stop>
        </linearGradient>
        <linearGradient x1="27.7639588%" y1="6.37513838%" x2="65.4298659%" y2="100.304659%" id="linearGradient-7">
            <stop stop-color="#201C60" offset="0%"></stop>
            <stop stop-color="#13C0E8" offset="16.36%"></stop>
            <stop stop-color="#13C0E8" offset="84.85%"></stop>
        </linearGradient>
        <linearGradient x1="37.7422316%" y1="49.9999164%" x2="100.000018%" y2="49.9999164%" id="linearGradient-8">
            <stop stop-color="#2CAFDD" offset="0%"></stop>
            <stop stop-color="#3290C3" offset="31.2688338%"></stop>
            <stop stop-color="#3371A9" offset="52.6000227%"></stop>
            <stop stop-color="#305490" offset="68.280513%"></stop>
            <stop stop-color="#293878" offset="82.659897%"></stop>
            <stop stop-color="#201C60" offset="100%"></stop>
            <stop stop-color="#201C60" offset="100%"></stop>
            <stop stop-color="#201C60" offset="100%"></stop>
            <stop stop-color="#201C60" offset="100%"></stop>
            <stop stop-color="#201C60" offset="100%"></stop>
            <stop stop-color="#201C60" offset="100%"></stop>
            <stop stop-color="#201C60" offset="100%"></stop>
        </linearGradient>
        <path d="M24.0394,1.05 C18.8384,1.05 12.9388,3.4552 9.0104,7.1764 C3.1612,12.7162 0.3836,19.8758 1.1886,27.3378 C1.526,30.478 2.6362,33.8982 4.6788,38.1052 C6.629,42.1162 8.5316,45.2382 10.6666,47.9318 C16.0818,54.7596 21.4886,60.039 27.195,64.0682 C30.3212,66.2746 33.9696,68.8254 37.7216,71.1704 C39.7642,72.4472 41.3434,73.4034 42.8428,74.27 C43.0766,74.4044 43.351,74.585 43.6492,74.7838 C44.289,75.2066 45.3614,75.915 45.8878,75.915 C46.2014,75.8422 47.5762,75.1324 52.507,71.2516 L52.9452,70.9058 C54.3886,69.7788 55.79,68.5972 57.1102,67.3974 L57.5288,67.0194 C58.4388,66.2074 59.6792,65.1014 60.0306,64.0892 C59.899,63.581 58.4248,62.4946 57.9348,62.1334 C57.701,61.9626 57.4966,61.8086 57.3398,61.684 C56.014,60.6186 54.5692,59.5196 52.794,58.2246 C51.3492,57.1718 49.8484,56.1386 48.3966,55.139 C46.7278,53.9896 45.0044,52.8038 43.3412,51.5718 C37.4192,47.1842 31.1836,42.4088 25.7628,36.5288 C23.0482,33.586 20.8628,30.6166 19.082,27.4498 C17.36,24.388 15.4084,20.9188 14.9562,16.849 C14.4032,11.8706 15.8592,7.2324 18.8496,4.4394 C20.5422,2.8602 22.456,1.834 24.4874,1.0556 C24.339,1.0514 24.1892,1.05 24.0394,1.05 Z" id="path-9"></path>
    </defs>
    <g id="-Logo-Sphere-Ventures" stroke="none" stroke-width="1" fill="none" fill-rule="evenodd">
        <g id="sphere-copy">
            <rect id="Rectangle" fill="#FFFFFF" fill-rule="nonzero" x="0" y="0" width="256" height="104"></rect>
            <g id="Sphere_Logomark" transform="translate(15.000000, 14.000000)">
                <path d="M30.1812,67.3134 L36.8998,71.1816 C36.8998,71.1816 29.4966,75.5664 28.3514,76.3616 C28.3514,76.3616 28.035,75.5104 27.965,75.2248 C27.7242,73.6498 27.5086,72.4136 28.0812,70.8778 C28.5894,69.51 29.2544,68.4264 30.1812,67.3134" id="Path" fill="#21211F" fill-rule="evenodd"></path>
                <polyline id="Path" fill="url(#linearGradient-1)" fill-rule="evenodd" points="36.1648 71.4294 31.304 72.7762 28.3486 76.3616 38.9158 73.1458 36.1648 71.4294"></polyline>
                <mask id="mask-4" fill="white">
                    <use xlink:href="#path-3"></use>
                </mask>
                <use id="Path" fill="url(#linearGradient-2)" fill-rule="evenodd" xlink:href="#path-3"></use>
                <path d="M70,37.5368191 L70,37.5634091 C69.9991787,38.5133115 69.9108581,39.470212 69.902,40.32 C69.8796,42.3948 69.6444,44.443 69.3504,46.4982 C68.7078,51.0132 67.1664,55.2272 64.4196,58.8686 C64.7472,57.47 64.7864,56.6902 63.9534,55.671 C62.9118,54.3956 61.7834,53.2966 60.5038,52.2648 C57.68,49.9828 54.5552,48.223 51.5816,46.165 C42.9324,40.1772 34.1908,33.8072 27.3882,25.7124 C24.0744,21.7714 20.5366,16.436 20.5646,11.13 C20.594,5.5608 24.6106,3.0898 29.043,0.7098 C27.1936,3.1934 30.3058,6.9356 31.9704,8.8004 C34.0536,11.1314 36.5358,13.1264 39.0572,14.966 C43.2572,18.0292 47.8142,20.5422 52.3236,23.093 C55.3854,24.8248 58.4402,26.565 61.5034,28.294 C64.1312,29.778 67.2,31.5518 69.0802,33.9906 C69.8326961,34.96579 69.9988752,36.2438335 70,37.5368191 L70,37.5368191 Z" id="Path"></path>
                <path d="M69.264865,46.4982 C68.6233916,51.0132 67.0846941,55.2272 64.34271,58.8686 C64.6697356,57.47 64.7088669,56.6902 63.8773274,55.671 C62.8375536,54.3956 61.711132,53.2966 60.4337755,52.2648 C57.6149264,49.9828 54.495605,48.223 51.5272185,46.165 C42.8931829,40.1772 34.1669093,33.8072 27.3762361,25.7124 C24.0682461,21.7714 20.5366488,16.436 20.5645997,11.13 C20.5939482,5.5608 24.5523622,3.12407043 28.976991,0.744070435 C27.1308335,3.22767043 30.2887207,6.9356 31.9504023,8.8004 C34.0299498,11.1314 36.5077979,13.1264 39.0247772,14.966 C43.2174134,18.0292 47.7664238,20.5422 52.2679176,23.093 C55.3243494,24.8248 58.3737935,26.565 61.4316229,28.294 C64.0548157,29.778 67.1182352,31.5518 68.9951387,33.9906 C69.7463155,34.96579 70,36.2585621 70,37.5515483 C70.0263446,39.9667186 69.7812996,42.9489359 69.264865,46.4982 Z" id="Path" fill="url(#linearGradient-5)" fill-rule="evenodd"></path>
                <path d="M27.4307404,2.8098 C24.0305124,4.8342 21.633722,7.0574 21.6127588,11.1356 C21.5917956,15.1424 23.7999174,19.8198 28.1784272,25.0362 C34.9551249,33.1128 43.7233249,39.4758 52.1239704,45.3012 C53.1665393,46.025 54.2538296,46.7264 55.3047838,47.4054 C57.2361915,48.6528 59.2346815,49.9436 61.0934169,51.4472 C62.4686016,52.5616 63.6453348,53.725 64.6893013,55.006 C64.8821625,55.2412 65.0372901,55.4708 65.1644667,55.6962 C66.7059593,52.9522 67.7331552,49.8218 68.2278863,46.3498 C68.6656442,43.1666542 68.9299406,40.6898343 68.9299406,38.8137303 C68.9299406,37.1643255 68.9839583,35.6944 68.1663943,34.6318 C66.3607656,32.2882 63.2148909,30.5088 60.9159286,29.2082 C59.2318864,28.2562 57.5492417,27.3 55.8651995,26.3424 L51.7522233,24.0072 L50.711052,23.4178 C46.588293,21.0882 42.3257795,18.6774 38.4084596,15.8144 C36.2604323,14.245 33.4960875,12.1086 31.1691744,9.499 C30.1671343,8.3762 27.6459624,5.5482 27.4307404,2.8098 Z" id="Path" fill="url(#linearGradient-6)" fill-rule="evenodd"></path>
                <path d="M42.3164,75.1786 C40.579,74.1734 38.8668,73.1234 37.1644,72.0608 C33.5608,69.8082 30.0608,67.3764 26.5902,64.9264 C20.1964,60.4114 14.6832,54.6854 9.8434,48.5842 C7.4032,45.507 5.4488,42.091 3.7352,38.563 C2.0594,35.1162 0.5586,31.2928 0.1442,27.4512 C0.121397334,27.2395913 0.104204994,27.0280828 0.0839999801,26.8179161 C-0.0430932348,25.4959291 0.00976149368,23.6708332 0.084,22.7847836 C0.608903584,16.5199676 3.57839392,10.8754649 8.288,6.4148 C13.3952,1.5764 22.0626,-1.491 28.9842,0.7434 C25.5514,1.6786 22.2348,2.716 19.5664,5.2066 C16.5088,8.0626 15.5554,12.7316 15.9992,16.7328 C16.415,20.4652 18.186,23.7146 19.9976,26.9346 C21.8134,30.163 24.024,33.0946 26.5342,35.8176 C31.7604,41.4848 37.7916,46.1538 43.9656,50.7276 C47.061,53.0208 50.2992,55.1068 53.4114,57.3748 C54.9654,58.5074 56.4998,59.661 57.9978,60.8664 C58.8812,61.5748 61.432,63.1582 61.047,64.3622 C60.5752,65.8322 58.9092,67.1776 57.8172,68.173 C56.4522,69.4148 55.0452,70.5978 53.5906,71.7346 C52.3530199,72.702115 47.6964339,76.4441194 46.156336,76.916 L45.479989,76.916 C44.4209642,76.6786104 43.1145956,75.6407133 42.3164,75.1786 Z" id="Path" fill="url(#linearGradient-7)" fill-rule="evenodd"></path>
                <mask id="mask-10" fill="white">
                    <use xlink:href="#path-9"></use>
                </mask>
                <use id="Path" fill="url(#linearGradient-8)" fill-rule="evenodd" xlink:href="#path-9"></use>
            </g>
            <g id="logo" transform="translate(100.000000, 24.000000)" fill-rule="nonzero">
                <path d="M20.5,7.6075 C20.289999,7.95250172 20.0762511,8.20374921 19.85875,8.36125 C19.6412489,8.51875079 19.3600017,8.5975 19.015,8.5975 C18.6849983,8.5975 18.3287519,8.48125116 17.94625,8.24875 C17.5637481,8.01624884 17.1175026,7.76500135 16.6075,7.495 C16.0974974,7.22499865 15.5125033,6.97375116 14.8525,6.74125 C14.1924967,6.50874884 13.4200044,6.3925 12.535,6.3925 C10.9749922,6.3925 9.8050039,6.74124651 9.025,7.43875 C8.2449961,8.13625349 7.855,9.04749437 7.855,10.1725 C7.855,10.8925036 8.06874786,11.4887476 8.49625,11.96125 C8.92375214,12.4337524 9.48624651,12.8424983 10.18375,13.1875 C10.8812535,13.5325017 11.6724956,13.8399986 12.5575,14.11 C13.4425044,14.3800013 14.3499953,14.6762484 15.28,14.99875 C16.2100046,15.3212516 17.1174956,15.6999978 18.0025,16.135 C18.8875044,16.5700022 19.6787465,17.1174967 20.37625,17.7775 C21.0737535,18.4375033 21.6362479,19.2437452 22.06375,20.19625 C22.4912521,21.1487548 22.705,22.3074932 22.705,23.6725 C22.705,25.1575074 22.4462526,26.5487435 21.92875,27.84625 C21.4112474,29.1437565 20.6650049,30.2762452 19.69,31.24375 C18.7149951,32.2112548 17.5112572,32.9724972 16.07875,33.5275 C14.6462428,34.0825028 13.0225091,34.36 11.2075,34.36 C10.1724948,34.36 9.14125514,34.255001 8.11375,34.045 C7.08624486,33.8349989 6.09625476,33.5425019 5.14375,33.1675 C4.19124524,32.7924981 3.2950042,32.3425026 2.455,31.8175 C1.6149958,31.2924974 0.88000315,30.7075032 0.25,30.0625 L2.23,26.8675 C2.39500082,26.6274988 2.61249865,26.4287508 2.8825,26.27125 C3.15250135,26.1137492 3.4374985,26.035 3.7375,26.035 C4.14250203,26.035 4.56999775,26.1849985 5.02,26.485 C5.47000225,26.7850015 5.98749707,27.1149982 6.5725,27.475 C7.15750292,27.8350018 7.83624614,28.1649985 8.60875,28.465 C9.38125386,28.7650015 10.3074946,28.915 11.3875,28.915 C12.9625079,28.915 14.1812457,28.5550036 15.04375,27.835 C15.9062543,27.1149964 16.3375,26.0425071 16.3375,24.6175 C16.3375,23.7924959 16.1237521,23.1250025 15.69625,22.615 C15.2687479,22.1049974 14.7100034,21.6775017 14.02,21.3325 C13.3299966,20.9874983 12.5425044,20.6912512 11.6575,20.44375 C10.7724956,20.1962488 9.86500465,19.9225015 8.935,19.6225 C8.00499535,19.3224985 7.09750443,18.9625021 6.2125,18.5425 C5.32749558,18.1224979 4.54000345,17.5675034 3.85,16.8775 C3.15999655,16.1874965 2.60125214,15.3325051 2.17375,14.3125 C1.74624786,13.2924949 1.5325,12.0250076 1.5325,10.51 C1.5325,9.29499392 1.7724976,8.1175057 2.2525,6.9775 C2.7325024,5.8374943 3.43749535,4.82500442 4.3675,3.94 C5.29750465,3.05499557 6.44124321,2.3425027 7.79875,1.8025 C9.15625679,1.2624973 10.7124912,0.9925 12.4675,0.9925 C14.4325098,0.9925 16.2512416,1.29624696 17.92375,1.90375 C19.5962584,2.51125304 21.0099942,3.3549946 22.165,4.435 L20.5,7.6075 Z M32.965,27.88 C33.5500029,28.5550034 34.1837466,29.0274986 34.86625,29.2975 C35.5487534,29.5675013 36.2799961,29.7025 37.06,29.7025 C37.8100037,29.7025 38.4924969,29.5600014 39.1075,29.275 C39.7225031,28.9899986 40.2512478,28.543753 40.69375,27.93625 C41.1362522,27.328747 41.4774988,26.5525047 41.7175,25.6075 C41.9575012,24.6624953 42.0775,23.5375065 42.0775,22.2325 C42.0775,20.9424935 41.976251,19.8475045 41.77375,18.9475 C41.571249,18.0474955 41.2862518,17.3200028 40.91875,16.765 C40.5512482,16.2099972 40.1050026,15.8087512 39.58,15.56125 C39.0549974,15.3137488 38.4700032,15.19 37.825,15.19 C36.7299945,15.19 35.8112537,15.4037479 35.06875,15.83125 C34.3262463,16.2587521 33.6250033,16.8849959 32.965,17.71 L32.965,27.88 Z M32.605,13.84 C33.0700023,13.3299974 33.5649974,12.8612521 34.09,12.43375 C34.6150026,12.0062479 35.177497,11.6387515 35.7775,11.33125 C36.377503,11.0237485 37.0224965,10.7837509 37.7125,10.61125 C38.4025034,10.4387491 39.152496,10.3525 39.9625,10.3525 C41.2075062,10.3525 42.3512448,10.6187473 43.39375,11.15125 C44.4362552,11.6837527 45.3324963,12.4562449 46.0825,13.46875 C46.8325038,14.4812551 47.4174979,15.7224926 47.8375,17.1925 C48.2575021,18.6625073 48.4675,20.3424905 48.4675,22.2325 C48.4675,23.9725087 48.2312524,25.5812426 47.75875,27.05875 C47.2862476,28.5362574 46.6150043,29.8149946 45.745,30.895 C44.8749957,31.9750054 43.8287561,32.818747 42.60625,33.42625 C41.3837439,34.033753 40.0225075,34.3375 38.5225,34.3375 C37.2624937,34.3375 36.1937544,34.1500019 35.31625,33.775 C34.4387456,33.3999981 33.6550035,32.8900032 32.965,32.245 L32.965,41.4925 L26.755,41.4925 L26.755,10.8025 L30.58,10.8025 C31.3600039,10.8025 31.8774987,11.1624964 32.1325,11.8825 L32.605,13.84 Z M58.66,13.075 C59.0950022,12.684998 59.5487476,12.3287516 60.02125,12.00625 C60.4937524,11.6837484 60.9962473,11.4062512 61.52875,11.17375 C62.0612527,10.9412488 62.631247,10.7612506 63.23875,10.63375 C63.846253,10.5062494 64.5024965,10.4425 65.2075,10.4425 C66.4675063,10.4425 67.5849951,10.6599978 68.56,11.095 C69.5350049,11.5300022 70.3562467,12.1374961 71.02375,12.9175 C71.6912533,13.6975039 72.1937483,14.6274946 72.53125,15.7075 C72.8687517,16.7875054 73.0375,17.9724935 73.0375,19.2625 L73.0375,34 L66.85,34 L66.85,19.2625 C66.85,17.9724935 66.550003,16.9712536 65.95,16.25875 C65.349997,15.5462464 64.4650058,15.19 63.295,15.19 C62.4249956,15.19 61.6075038,15.3774981 60.8425,15.7525 C60.0774962,16.1275019 59.3500034,16.6524966 58.66,17.3275 L58.66,34 L52.45,34 L52.45,0.4525 L58.66,0.4525 L58.66,13.075 Z M92.68,19.6675 C92.68,19.0224968 92.5937509,18.4075029 92.42125,17.8225 C92.2487491,17.2374971 91.9750019,16.7200022 91.6,16.27 C91.2249981,15.8199977 90.7525028,15.4637513 90.1825,15.20125 C89.6124971,14.9387487 88.930004,14.8075 88.135,14.8075 C86.6499926,14.8075 85.4875042,15.2274958 84.6475,16.0675 C83.8074958,16.9075042 83.2600013,18.1074922 83.005,19.6675 L92.68,19.6675 Z M82.915,23.3575 C83.110001,25.5325109 83.7287448,27.122495 84.77125,28.1275 C85.8137552,29.132505 87.1749916,29.635 88.855,29.635 C89.7100043,29.635 90.4487469,29.533751 91.07125,29.33125 C91.6937531,29.128749 92.2412476,28.9037512 92.71375,28.65625 C93.1862524,28.4087488 93.6137481,28.183751 93.99625,27.98125 C94.3787519,27.778749 94.7574981,27.6775 95.1325,27.6775 C95.6125024,27.6775 95.9874986,27.8574982 96.2575,28.2175 L98.0575,30.4675 C97.3974967,31.2325038 96.670004,31.8662475 95.875,32.36875 C95.079996,32.8712525 94.2550043,33.2687485 93.4,33.56125 C92.5449957,33.8537515 91.6825043,34.0562494 90.8125,34.16875 C89.9424956,34.2812506 89.102504,34.3375 88.2925,34.3375 C86.6724919,34.3375 85.161257,34.0712527 83.75875,33.53875 C82.356243,33.0062473 81.1337552,32.2187552 80.09125,31.17625 C79.0487448,30.1337448 78.227503,28.8400077 77.6275,27.295 C77.027497,25.7499923 76.7275,23.9575102 76.7275,21.9175 C76.7275,20.3424921 76.9862474,18.857507 77.50375,17.4625 C78.0212526,16.067493 78.7674951,14.8525052 79.7425,13.8175 C80.7175049,12.7824948 81.902493,11.961253 83.2975,11.35375 C84.692507,10.746247 86.2674912,10.4425 88.0225,10.4425 C89.5075074,10.4425 90.8762437,10.6787476 92.12875,11.15125 C93.3812563,11.6237524 94.4612455,12.3099955 95.36875,13.21 C96.2762545,14.1100045 96.9812475,15.2162434 97.48375,16.52875 C97.9862525,17.8412566 98.2375,19.3374916 98.2375,21.0175 C98.2375,21.4825023 98.2150002,21.8649985 98.17,22.165 C98.1249998,22.4650015 98.0500005,22.7049991 97.945,22.885 C97.8399995,23.0650009 97.6975009,23.1887497 97.5175,23.25625 C97.3374991,23.3237503 97.1050014,23.3575 96.82,23.3575 L82.915,23.3575 Z M107.9125,14.6275 C108.647504,13.3074934 109.494995,12.2650038 110.455,11.5 C111.415005,10.7349962 112.539994,10.3525 113.83,10.3525 C114.880005,10.3525 115.734997,10.5999975 116.395,11.095 L115.99,15.685 C115.915,15.9850015 115.798751,16.1912494 115.64125,16.30375 C115.483749,16.4162506 115.270001,16.4725 115,16.4725 C114.759999,16.4725 114.415002,16.4387503 113.965,16.37125 C113.514998,16.3037497 113.095002,16.27 112.705,16.27 C112.134997,16.27 111.628752,16.3524992 111.18625,16.5175 C110.743748,16.6825008 110.350002,16.9149985 110.005,17.215 C109.659998,17.5150015 109.348751,17.8824978 109.07125,18.3175 C108.793749,18.7525022 108.535001,19.2474972 108.295,19.8025 L108.295,34 L102.085,34 L102.085,10.8025 L105.7525,10.8025 C106.382503,10.8025 106.817499,10.9149989 107.0575,11.14 C107.297501,11.3650011 107.469999,11.7549972 107.575,12.31 L107.9125,14.6275 Z M133.765,19.6675 C133.765,19.0224968 133.678751,18.4075029 133.50625,17.8225 C133.333749,17.2374971 133.060002,16.7200022 132.685,16.27 C132.309998,15.8199977 131.837503,15.4637513 131.2675,15.20125 C130.697497,14.9387487 130.015004,14.8075 129.22,14.8075 C127.734993,14.8075 126.572504,15.2274958 125.7325,16.0675 C124.892496,16.9075042 124.345001,18.1074922 124.09,19.6675 L133.765,19.6675 Z M124,23.3575 C124.195001,25.5325109 124.813745,27.122495 125.85625,28.1275 C126.898755,29.132505 128.259992,29.635 129.94,29.635 C130.795004,29.635 131.533747,29.533751 132.15625,29.33125 C132.778753,29.128749 133.326248,28.9037512 133.79875,28.65625 C134.271252,28.4087488 134.698748,28.183751 135.08125,27.98125 C135.463752,27.778749 135.842498,27.6775 136.2175,27.6775 C136.697502,27.6775 137.072499,27.8574982 137.3425,28.2175 L139.1425,30.4675 C138.482497,31.2325038 137.755004,31.8662475 136.96,32.36875 C136.164996,32.8712525 135.340004,33.2687485 134.485,33.56125 C133.629996,33.8537515 132.767504,34.0562494 131.8975,34.16875 C131.027496,34.2812506 130.187504,34.3375 129.3775,34.3375 C127.757492,34.3375 126.246257,34.0712527 124.84375,33.53875 C123.441243,33.0062473 122.218755,32.2187552 121.17625,31.17625 C120.133745,30.1337448 119.312503,28.8400077 118.7125,27.295 C118.112497,25.7499923 117.8125,23.9575102 117.8125,21.9175 C117.8125,20.3424921 118.071247,18.857507 118.58875,17.4625 C119.106253,16.067493 119.852495,14.8525052 120.8275,13.8175 C121.802505,12.7824948 122.987493,11.961253 124.3825,11.35375 C125.777507,10.746247 127.352491,10.4425 129.1075,10.4425 C130.592507,10.4425 131.961244,10.6787476 133.21375,11.15125 C134.466256,11.6237524 135.546245,12.3099955 136.45375,13.21 C137.361255,14.1100045 138.066247,15.2162434 138.56875,16.52875 C139.071253,17.8412566 139.3225,19.3374916 139.3225,21.0175 C139.3225,21.4825023 139.3,21.8649985 139.255,22.165 C139.21,22.4650015 139.135001,22.7049991 139.03,22.885 C138.924999,23.0650009 138.782501,23.1887497 138.6025,23.25625 C138.422499,23.3237503 138.190001,23.3575 137.905,23.3575 L124,23.3575 Z" id="Sphere" fill="#005B96"></path>
                <path d="M60.3595358,55.857117 L63.9924083,47.2155493 C64.0455977,47.0985325 64.1205181,47.0014135 64.2166374,46.9279105 C64.3240009,46.845809 64.4527062,46.805 64.5939999,46.805 L65.7628872,46.805 L60.931832,58.25 L59.6761679,58.25 L54.8451126,46.805 L56.0469999,46.805 C56.2055841,46.805 56.346752,46.851033 56.460046,46.9454447 C56.5600063,47.0287449 56.6315726,47.1271485 56.6625688,47.2223667 L60.2876275,55.8733315 C60.2985093,55.9052517 60.3091831,55.9371408 60.3196488,55.968999 C60.3325845,55.9318683 60.3458783,55.8945792 60.3595358,55.857117 Z M68.815066,54.3958739 C68.9963705,54.9886004 69.2522958,55.4814294 69.5819184,55.8762898 C69.9086774,56.2677198 70.3018836,56.5609297 70.7640714,56.7580392 C71.2306545,56.9570232 71.7546711,57.057 72.3379999,57.057 C72.8650613,57.057 73.3178884,56.9995258 73.6961629,56.8860434 C74.0838363,56.7697414 74.4071378,56.6404208 74.665582,56.499138 C74.9309313,56.3540804 75.1394434,56.2244174 75.2899999,56.1115 C75.493155,55.9591337 75.6466264,55.88 75.7919999,55.88 C75.9674332,55.88 76.117788,55.9551774 76.2060284,56.0823518 L76.6191292,56.5907836 L76.4932171,56.7481738 C76.2998965,56.9898245 76.0474957,57.2124142 75.7369526,57.4168223 C75.4317416,57.6177207 75.0928576,57.7890882 74.7205989,57.9310838 C74.3514877,58.0718788 73.9566227,58.1838837 73.536104,58.2672298 C73.1131364,58.3510612 72.6880294,58.393 72.2609999,58.393 C71.4804702,58.393 70.7654123,58.2565239 70.1176794,57.9827796 C69.4671959,57.7078729 68.908381,57.3062247 68.4435405,56.7794054 C67.9803502,56.2544565 67.6246761,55.614243 67.3760892,54.8608335 C67.1289473,54.1118034 67.0059999,53.258738 67.0059999,52.302 C67.0059999,51.49092 67.1219895,50.7398398 67.3545922,50.0496582 C67.5885808,49.3553641 67.9276102,48.7543574 68.3716225,48.2485695 C68.8174989,47.7406581 69.3641374,47.3432791 70.0092193,47.0574344 C70.6547603,46.7713863 71.3840089,46.629 72.1949999,46.629 C72.8423865,46.629 73.4460865,46.7412263 74.0044026,46.9661036 C74.5653267,47.1920313 75.0534768,47.5220208 75.4668018,47.9548423 C75.8794587,48.3869641 76.2032871,48.9163363 76.4384633,49.5409027 C76.6733042,50.1645786 76.7899999,50.8762311 76.7899999,51.675 C76.7899999,51.8860073 76.7588201,52.0419064 76.6739999,52.155 C76.5774879,52.2836827 76.4291946,52.343 76.2539999,52.343 L68.5400808,52.343 C68.5431894,53.1237498 68.6352558,53.8080329 68.815066,54.3958739 Z M75.1108553,49.9269961 C74.9569798,49.4927252 74.7416958,49.1282682 74.4650979,48.8314314 C74.1888624,48.5349836 73.8610305,48.308023 73.4794911,48.1493296 C73.0964491,47.9900113 72.6725597,47.91 72.2059999,47.91 C71.6714801,47.91 71.196422,47.9926188 70.779531,48.1566415 C70.3642944,48.3200133 70.0068979,48.5537608 69.7052614,48.8587864 C69.4014278,49.1660339 69.1566858,49.5357141 68.9707862,49.9694798 C68.8150761,50.3328033 68.7019203,50.7335279 68.6316492,51.172 L75.338627,51.172 C75.3185722,50.7131276 75.2424171,50.2982928 75.1108553,49.9269961 Z M82.5699497,47.2342346 C83.2721491,46.8307609 84.0539727,46.629 84.9109999,46.629 C85.5438446,46.629 86.1061284,46.7301722 86.5965226,46.9341762 C87.0914122,47.1400502 87.5038824,47.4389417 87.8307341,47.8295693 C88.1536451,48.2154873 88.396683,48.6780434 88.5601684,49.2152096 C88.721721,49.7460254 88.8019999,50.3423829 88.8019999,51.004 L88.8019999,58.25 L87.2459999,58.25 L87.2459999,51.004 C87.2459999,50.0303923 87.0273635,49.2805377 86.5972616,48.7462705 C86.1791905,48.2269478 85.5366771,47.965 84.6469999,47.965 C83.9801949,47.965 83.3583027,48.134607 82.7768643,48.4752129 C82.2078327,48.8085509 81.6973443,49.2682845 81.2449999,49.8561793 L81.2449999,58.25 L79.6889999,58.25 L79.6889999,46.805 L80.5219999,46.805 C80.828733,46.805 81.0392112,46.9864467 81.0905451,47.3149268 L81.1529042,48.3473165 C81.5784867,47.9036618 82.0509543,47.5324419 82.5699497,47.2342346 Z M94.404,55.636 C94.404,55.909756 94.4383373,56.1403062 94.5050257,56.3276688 C94.5704314,56.5114279 94.6582116,56.6582328 94.7676178,56.7705958 C94.8768132,56.8827425 95.0040126,56.9646179 95.1516799,57.0177781 C95.3072198,57.0737725 95.4765846,57.102 95.661,57.102 C95.8946769,57.102 96.0905764,57.0688235 96.2493842,57.0046895 C96.4254442,56.9335884 96.5758572,56.8567106 96.7005959,56.7746457 C96.8310553,56.6888172 96.9358345,56.6110777 97.0143738,56.5423558 C97.1443713,56.4286081 97.2594716,56.365 97.388,56.365 C97.5347498,56.365 97.6575626,56.441758 97.7765663,56.5934113 L98.1615403,57.2152924 L98.0353839,57.3547283 C97.7321295,57.6899042 97.3489938,57.9579007 96.8883964,58.158674 C96.4279854,58.3593659 95.9484937,58.46 95.452,58.46 C94.6492091,58.46 94.0081183,58.2320566 93.5435107,57.7715606 C93.075918,57.3081059 92.848,56.6102331 92.848,55.691 L92.848,48.461 L91.525,48.461 C91.3872638,48.461 91.2633178,48.4196847 91.1643022,48.3348142 C91.0545198,48.240715 91,48.1083097 91,47.958 L91,47.318025 L92.8853693,47.1849401 L93.1399532,43.4487674 C93.1635218,43.342709 93.2114803,43.246792 93.2821858,43.1643022 C93.376285,43.0545198 93.5086903,43 93.659,43 L94.404,43 L94.404,47.18 L97.858,47.18 L97.858,48.461 L94.404,48.461 L94.404,55.636 Z M107.717,46.805 L109.273,46.805 L109.273,58.25 L108.44,58.25 C108.130893,58.25 107.921661,58.0624123 107.871461,57.7291747 L107.809328,56.7074408 C107.383685,57.1512028 106.91114,57.5225038 106.39205,57.8207654 C105.689851,58.2242391 104.908027,58.426 104.051,58.426 C103.410715,58.426 102.846416,58.3248152 102.359318,58.1205486 C101.868296,57.9146361 101.457912,57.6158125 101.131266,57.2254307 C100.808355,56.8395127 100.565317,56.3769566 100.401831,55.8397904 C100.240279,55.3089746 100.16,54.7126171 100.16,54.051 L100.16,46.805 L101.716,46.805 L101.716,54.051 C101.716,55.0246077 101.934636,55.7744623 102.364738,56.3087295 C102.782809,56.8280522 103.425323,57.09 104.315,57.09 C104.981805,57.09 105.603697,56.920393 106.185136,56.5797871 C106.754167,56.2464491 107.264656,55.7867155 107.717,55.1988207 L107.717,46.805 Z M114.536124,48.3696036 C114.765639,48.0000469 115.031537,47.6852704 115.333802,47.4261858 C115.638688,47.164855 115.979844,46.9645252 116.356074,46.8259142 C116.733106,46.6870075 117.149123,46.618 117.603,46.618 C117.845393,46.618 118.084147,46.639527 118.319082,46.6825984 C118.568228,46.7282752 118.79135,46.8103672 118.986987,46.9294504 L119.124564,47.0131931 L119.105183,47.1730828 L119.00762,47.9435687 C118.940128,48.1595442 118.779274,48.295 118.56,48.295 C118.443412,48.295 118.290034,48.265585 118.08982,48.208381 C117.935456,48.164277 117.720975,48.141 117.449,48.141 C117.053597,48.141 116.70862,48.1998985 116.412994,48.3161561 C116.118412,48.432003 115.853572,48.6058039 115.617019,48.839026 C115.37632,49.0763345 115.164434,49.3719496 114.981797,49.7268858 C114.793812,50.0922145 114.620929,50.5146204 114.476,50.916 L114.476,58.25 L112.92,58.25 L112.92,46.805 L113.731,46.805 C113.915665,46.805 114.065154,46.8486009 114.171777,46.9552233 C114.269853,47.0532992 114.32166,47.1914512 114.34386,47.3876315 L114.38536,48.6266927 C114.434268,48.5383896 114.484522,48.4526928 114.536124,48.3696036 Z M121.780066,54.3958739 C121.961371,54.9886004 122.217296,55.4814294 122.546918,55.8762898 C122.873677,56.2677198 123.266884,56.5609297 123.729071,56.7580392 C124.195655,56.9570232 124.719671,57.057 125.303,57.057 C125.830061,57.057 126.282888,56.9995258 126.661163,56.8860434 C127.048836,56.7697414 127.372138,56.6404208 127.630582,56.499138 C127.895931,56.3540804 128.104443,56.2244174 128.255,56.1115 C128.458155,55.9591337 128.611626,55.88 128.757,55.88 C128.932433,55.88 129.082788,55.9551774 129.171028,56.0823518 L129.584129,56.5907836 L129.458217,56.7481738 C129.264897,56.9898245 129.012496,57.2124142 128.701953,57.4168223 C128.396742,57.6177207 128.057858,57.7890882 127.685599,57.9310838 C127.316488,58.0718788 126.921623,58.1838837 126.501104,58.2672298 C126.078136,58.3510612 125.653029,58.393 125.226,58.393 C124.44547,58.393 123.730412,58.2565239 123.082679,57.9827796 C122.432196,57.7078729 121.873381,57.3062247 121.408541,56.7794054 C120.94535,56.2544565 120.589676,55.614243 120.341089,54.8608335 C120.093947,54.1118034 119.971,53.258738 119.971,52.302 C119.971,51.49092 120.08699,50.7398398 120.319592,50.0496582 C120.553581,49.3553641 120.89261,48.7543574 121.336623,48.2485695 C121.782499,47.7406581 122.329137,47.3432791 122.974219,47.0574344 C123.61976,46.7713863 124.349009,46.629 125.16,46.629 C125.807387,46.629 126.411087,46.7412263 126.969403,46.9661036 C127.530327,47.1920313 128.018477,47.5220208 128.431802,47.9548423 C128.844459,48.3869641 129.168287,48.9163363 129.403463,49.5409027 C129.638304,50.1645786 129.755,50.8762311 129.755,51.675 C129.755,51.8860073 129.72382,52.0419064 129.639,52.155 C129.542488,52.2836827 129.394195,52.343 129.219,52.343 L121.505081,52.343 C121.508189,53.1237498 121.600256,53.8080329 121.780066,54.3958739 Z M128.075855,49.9269961 C127.92198,49.4927252 127.706696,49.1282682 127.430098,48.8314314 C127.153863,48.5349836 126.826031,48.308023 126.444491,48.1493296 C126.061449,47.9900113 125.63756,47.91 125.171,47.91 C124.63648,47.91 124.161422,47.9926188 123.744531,48.1566415 C123.329294,48.3200133 122.971898,48.5537608 122.670261,48.8587864 C122.366428,49.1660339 122.121686,49.5357141 121.935786,49.9694798 C121.780076,50.3328033 121.66692,50.7335279 121.596649,51.172 L128.303627,51.172 C128.283572,50.7131276 128.207417,50.2982928 128.075855,49.9269961 Z M138.668,48.812 C138.52285,48.812 138.375547,48.7462398 138.211902,48.6259128 C138.097503,48.5417953 137.939878,48.4447958 137.740057,48.336121 C137.547659,48.2314836 137.305028,48.1351193 137.012687,48.048113 C136.729909,47.9639529 136.379413,47.921 135.962,47.921 C135.593093,47.921 135.259653,47.9734704 134.960733,48.0775884 C134.661454,48.1818318 134.408885,48.3197477 134.201641,48.4908058 C133.997512,48.6592935 133.842034,48.8532402 133.733253,49.0740015 C133.625471,49.2927361 133.572,49.5207731 133.572,49.761 C133.572,50.0527136 133.643398,50.2847585 133.783681,50.4659567 C133.938903,50.6664521 134.142872,50.8394177 134.397535,50.9849392 C134.664008,51.1372095 134.972522,51.2696791 135.323194,51.381894 C135.689185,51.4990111 136.060674,51.6161309 136.437673,51.7332566 C136.820956,51.8523349 137.198677,51.9844442 137.570836,52.1295864 C137.958243,52.2806748 138.30281,52.4695054 138.603915,52.6963116 C138.913397,52.9294284 139.165228,53.2155087 139.358061,53.5529653 C139.556983,53.9010795 139.655,54.3176509 139.655,54.799 C139.655,55.3076743 139.564534,55.7836051 139.383255,56.2249797 C139.200711,56.6694337 138.932101,57.0554361 138.578898,57.3808592 C138.227648,57.7044832 137.79792,57.9595728 137.291594,58.1465241 C136.78572,58.333308 136.210258,58.426 135.566,58.426 C134.76309,58.426 134.065387,58.2968672 133.474164,58.0362621 C132.892729,57.7799716 132.371623,57.4447014 131.911759,57.0308235 L131.75328,56.8881928 L131.869107,56.7091872 L132.109,56.3385003 C132.165108,56.2487276 132.234002,56.1768383 132.316476,56.1260854 C132.407893,56.0698288 132.516519,56.045 132.64,56.045 C132.807867,56.045 132.973229,56.1289934 133.150038,56.2819092 C133.273428,56.3886248 133.443389,56.5070824 133.659114,56.6358219 C133.870964,56.7622484 134.136545,56.8820203 134.455434,56.9941569 C134.759928,57.1012318 135.145017,57.156 135.61,57.156 C136.044172,57.156 136.422412,57.0963676 136.745368,56.9786232 C137.066809,56.8614311 137.330998,56.7045688 137.540015,56.5086157 C137.748413,56.3132426 137.905583,56.0847779 138.012977,55.8211758 C138.121685,55.5543478 138.176,55.2728953 138.176,54.975 C138.176,54.6586104 138.102889,54.4057684 137.959816,54.2090429 C137.804506,53.9954917 137.59928,53.8130683 137.342004,53.6613415 C137.072414,53.502353 136.764697,53.3667488 136.418609,53.2548818 C136.056741,53.1379143 135.6857,53.0209361 135.305479,52.9039448 C134.918761,52.7849548 134.54124,52.6547752 134.172913,52.5133971 C133.789096,52.3660732 133.444523,52.1791862 133.139824,51.9526156 C132.826601,51.7197062 132.572688,51.4355645 132.379584,51.1016563 C132.179933,50.7564272 132.082,50.3340894 132.082,49.838 C132.082,49.4124095 132.174505,49.0021681 132.358691,48.6097732 C132.542284,48.2186396 132.803727,47.8753705 133.141345,47.5814442 C133.477242,47.2890168 133.883713,47.0573085 134.359184,46.8858273 C134.834903,46.7142562 135.365817,46.629 135.951,46.629 C136.646567,46.629 137.267833,46.7290181 137.814003,46.9304426 C138.362536,47.1327383 138.862087,47.4437429 139.311355,47.8620265 L139.460222,48.0006275 L139.136274,48.5351421 C139.033909,48.7120952 138.868615,48.812 138.668,48.812 Z" id="ventures" fill="#6497B1"></path>
            </g>
        </g>
    </g>
</svg>