<?xml version="1.0" encoding="UTF-8"?>
<svg width="256px" height="104px" viewBox="0 0 256 104" version="1.1" xmlns="http://www.w3.org/2000/svg" xmlns:xlink="http://www.w3.org/1999/xlink">
    <!-- Generator: Sketch 53.2 (72643) - https://sketchapp.com -->
    <title> Logo Sphere Solutions</title>
    <desc>Created with Sketch.</desc>
    <defs>
        <linearGradient x1="92.0501587%" y1="58.1990469%" x2="10.4625397%" y2="45.653177%" id="linearGradient-1">
            <stop stop-color="#FFFFFF" offset="0%"></stop>
            <stop stop-color="#BBBCBE" offset="41.21%"></stop>
            <stop stop-color="#000000" offset="100%"></stop>
        </linearGradient>
        <linearGradient x1="0.135532332%" y1="50%" x2="100.129817%" y2="50%" id="linearGradient-2">
            <stop stop-color="#FFFFFE" offset="0%"></stop>
            <stop stop-color="#777978" offset="100%"></stop>
        </linearGradient>
        <path d="M59.6428,62.1222 C60.151,61.8394 60.6606,61.5622 61.18,61.292 C62.7676,60.4716 63.1373772,60.1361419 64.3497772,58.8677419 L65.1462,56.3486 L56.9142,47.9038 C53.8664,49.742 50.96,51.6124 47.999,53.5906 L59.6428,62.1222 Z" id="path-3"></path>
        <linearGradient x1="61.4794816%" y1="19.5061747%" x2="38.1490267%" y2="77.8785112%" id="linearGradient-5">
            <stop stop-color="#201C60" offset="0%"></stop>
            <stop stop-color="#13C0E8" offset="61.82%"></stop>
            <stop stop-color="#13C0E8" offset="100%"></stop>
        </linearGradient>
        <linearGradient x1="27.9671681%" y1="51.5440238%" x2="90.0254399%" y2="49.9999164%" id="linearGradient-6">
            <stop stop-color="#2CAFDD" offset="0%"></stop>
            <stop stop-color="#3290C3" offset="27.3694957%"></stop>
            <stop stop-color="#3371A9" offset="46.2337054%"></stop>
            <stop stop-color="#305490" offset="64.6384531%"></stop>
            <stop stop-color="#293878" offset="82.1228298%"></stop>
            <stop stop-color="#201C60" offset="100%"></stop>
            <stop stop-color="#201C60" offset="100%"></stop>
            <stop stop-color="#201C60" offset="100%"></stop>
            <stop stop-color="#201C60" offset="100%"></stop>
            <stop stop-color="#201C60" offset="100%"></stop>
            <stop stop-color="#201C60" offset="100%"></stop>
            <stop stop-color="#201C60" offset="100%"></stop>
        </linearGradient>
        <linearGradient x1="27.7639588%" y1="6.37513838%" x2="65.4298659%" y2="100.304659%" id="linearGradient-7">
            <stop stop-color="#201C60" offset="0%"></stop>
            <stop stop-color="#13C0E8" offset="16.36%"></stop>
            <stop stop-color="#13C0E8" offset="84.85%"></stop>
        </linearGradient>
        <linearGradient x1="37.7422316%" y1="49.9999164%" x2="100.000018%" y2="49.9999164%" id="linearGradient-8">
            <stop stop-color="#2CAFDD" offset="0%"></stop>
            <stop stop-color="#3290C3" offset="31.2688338%"></stop>
            <stop stop-color="#3371A9" offset="52.6000227%"></stop>
            <stop stop-color="#305490" offset="68.280513%"></stop>
            <stop stop-color="#293878" offset="82.659897%"></stop>
            <stop stop-color="#201C60" offset="100%"></stop>
            <stop stop-color="#201C60" offset="100%"></stop>
            <stop stop-color="#201C60" offset="100%"></stop>
            <stop stop-color="#201C60" offset="100%"></stop>
            <stop stop-color="#201C60" offset="100%"></stop>
            <stop stop-color="#201C60" offset="100%"></stop>
            <stop stop-color="#201C60" offset="100%"></stop>
        </linearGradient>
        <path d="M24.0394,1.05 C18.8384,1.05 12.9388,3.4552 9.0104,7.1764 C3.1612,12.7162 0.3836,19.8758 1.1886,27.3378 C1.526,30.478 2.6362,33.8982 4.6788,38.1052 C6.629,42.1162 8.5316,45.2382 10.6666,47.9318 C16.0818,54.7596 21.4886,60.039 27.195,64.0682 C30.3212,66.2746 33.9696,68.8254 37.7216,71.1704 C39.7642,72.4472 41.3434,73.4034 42.8428,74.27 C43.0766,74.4044 43.351,74.585 43.6492,74.7838 C44.289,75.2066 45.3614,75.915 45.8878,75.915 C46.2014,75.8422 47.5762,75.1324 52.507,71.2516 L52.9452,70.9058 C54.3886,69.7788 55.79,68.5972 57.1102,67.3974 L57.5288,67.0194 C58.4388,66.2074 59.6792,65.1014 60.0306,64.0892 C59.899,63.581 58.4248,62.4946 57.9348,62.1334 C57.701,61.9626 57.4966,61.8086 57.3398,61.684 C56.014,60.6186 54.5692,59.5196 52.794,58.2246 C51.3492,57.1718 49.8484,56.1386 48.3966,55.139 C46.7278,53.9896 45.0044,52.8038 43.3412,51.5718 C37.4192,47.1842 31.1836,42.4088 25.7628,36.5288 C23.0482,33.586 20.8628,30.6166 19.082,27.4498 C17.36,24.388 15.4084,20.9188 14.9562,16.849 C14.4032,11.8706 15.8592,7.2324 18.8496,4.4394 C20.5422,2.8602 22.456,1.834 24.4874,1.0556 C24.339,1.0514 24.1892,1.05 24.0394,1.05 Z" id="path-9"></path>
    </defs>
    <g id="-Logo-Sphere-Solutions" stroke="none" stroke-width="1" fill="none" fill-rule="evenodd">
        <g id="sphere-copy">
            <rect id="Rectangle" fill="#FFFFFF" fill-rule="nonzero" x="0" y="0" width="256" height="104"></rect>
            <g id="Sphere_Logomark" transform="translate(15.000000, 14.000000)">
                <path d="M30.1812,67.3134 L36.8998,71.1816 C36.8998,71.1816 29.4966,75.5664 28.3514,76.3616 C28.3514,76.3616 28.035,75.5104 27.965,75.2248 C27.7242,73.6498 27.5086,72.4136 28.0812,70.8778 C28.5894,69.51 29.2544,68.4264 30.1812,67.3134" id="Path" fill="#21211F" fill-rule="evenodd"></path>
                <polyline id="Path" fill="url(#linearGradient-1)" fill-rule="evenodd" points="36.1648 71.4294 31.304 72.7762 28.3486 76.3616 38.9158 73.1458 36.1648 71.4294"></polyline>
                <mask id="mask-4" fill="white">
                    <use xlink:href="#path-3"></use>
                </mask>
                <use id="Path" fill="url(#linearGradient-2)" fill-rule="evenodd" xlink:href="#path-3"></use>
                <path d="M70,37.5368191 L70,37.5634091 C69.9991787,38.5133115 69.9108581,39.470212 69.902,40.32 C69.8796,42.3948 69.6444,44.443 69.3504,46.4982 C68.7078,51.0132 67.1664,55.2272 64.4196,58.8686 C64.7472,57.47 64.7864,56.6902 63.9534,55.671 C62.9118,54.3956 61.7834,53.2966 60.5038,52.2648 C57.68,49.9828 54.5552,48.223 51.5816,46.165 C42.9324,40.1772 34.1908,33.8072 27.3882,25.7124 C24.0744,21.7714 20.5366,16.436 20.5646,11.13 C20.594,5.5608 24.6106,3.0898 29.043,0.7098 C27.1936,3.1934 30.3058,6.9356 31.9704,8.8004 C34.0536,11.1314 36.5358,13.1264 39.0572,14.966 C43.2572,18.0292 47.8142,20.5422 52.3236,23.093 C55.3854,24.8248 58.4402,26.565 61.5034,28.294 C64.1312,29.778 67.2,31.5518 69.0802,33.9906 C69.8326961,34.96579 69.9988752,36.2438335 70,37.5368191 L70,37.5368191 Z" id="Path"></path>
                <path d="M69.264865,46.4982 C68.6233916,51.0132 67.0846941,55.2272 64.34271,58.8686 C64.6697356,57.47 64.7088669,56.6902 63.8773274,55.671 C62.8375536,54.3956 61.711132,53.2966 60.4337755,52.2648 C57.6149264,49.9828 54.495605,48.223 51.5272185,46.165 C42.8931829,40.1772 34.1669093,33.8072 27.3762361,25.7124 C24.0682461,21.7714 20.5366488,16.436 20.5645997,11.13 C20.5939482,5.5608 24.5523622,3.12407043 28.976991,0.744070435 C27.1308335,3.22767043 30.2887207,6.9356 31.9504023,8.8004 C34.0299498,11.1314 36.5077979,13.1264 39.0247772,14.966 C43.2174134,18.0292 47.7664238,20.5422 52.2679176,23.093 C55.3243494,24.8248 58.3737935,26.565 61.4316229,28.294 C64.0548157,29.778 67.1182352,31.5518 68.9951387,33.9906 C69.7463155,34.96579 70,36.2585621 70,37.5515483 C70.0263446,39.9667186 69.7812996,42.9489359 69.264865,46.4982 Z" id="Path" fill="url(#linearGradient-5)" fill-rule="evenodd"></path>
                <path d="M27.4307404,2.8098 C24.0305124,4.8342 21.633722,7.0574 21.6127588,11.1356 C21.5917956,15.1424 23.7999174,19.8198 28.1784272,25.0362 C34.9551249,33.1128 43.7233249,39.4758 52.1239704,45.3012 C53.1665393,46.025 54.2538296,46.7264 55.3047838,47.4054 C57.2361915,48.6528 59.2346815,49.9436 61.0934169,51.4472 C62.4686016,52.5616 63.6453348,53.725 64.6893013,55.006 C64.8821625,55.2412 65.0372901,55.4708 65.1644667,55.6962 C66.7059593,52.9522 67.7331552,49.8218 68.2278863,46.3498 C68.6656442,43.1666542 68.9299406,40.6898343 68.9299406,38.8137303 C68.9299406,37.1643255 68.9839583,35.6944 68.1663943,34.6318 C66.3607656,32.2882 63.2148909,30.5088 60.9159286,29.2082 C59.2318864,28.2562 57.5492417,27.3 55.8651995,26.3424 L51.7522233,24.0072 L50.711052,23.4178 C46.588293,21.0882 42.3257795,18.6774 38.4084596,15.8144 C36.2604323,14.245 33.4960875,12.1086 31.1691744,9.499 C30.1671343,8.3762 27.6459624,5.5482 27.4307404,2.8098 Z" id="Path" fill="url(#linearGradient-6)" fill-rule="evenodd"></path>
                <path d="M42.3164,75.1786 C40.579,74.1734 38.8668,73.1234 37.1644,72.0608 C33.5608,69.8082 30.0608,67.3764 26.5902,64.9264 C20.1964,60.4114 14.6832,54.6854 9.8434,48.5842 C7.4032,45.507 5.4488,42.091 3.7352,38.563 C2.0594,35.1162 0.5586,31.2928 0.1442,27.4512 C0.121397334,27.2395913 0.104204994,27.0280828 0.0839999801,26.8179161 C-0.0430932348,25.4959291 0.00976149368,23.6708332 0.084,22.7847836 C0.608903584,16.5199676 3.57839392,10.8754649 8.288,6.4148 C13.3952,1.5764 22.0626,-1.491 28.9842,0.7434 C25.5514,1.6786 22.2348,2.716 19.5664,5.2066 C16.5088,8.0626 15.5554,12.7316 15.9992,16.7328 C16.415,20.4652 18.186,23.7146 19.9976,26.9346 C21.8134,30.163 24.024,33.0946 26.5342,35.8176 C31.7604,41.4848 37.7916,46.1538 43.9656,50.7276 C47.061,53.0208 50.2992,55.1068 53.4114,57.3748 C54.9654,58.5074 56.4998,59.661 57.9978,60.8664 C58.8812,61.5748 61.432,63.1582 61.047,64.3622 C60.5752,65.8322 58.9092,67.1776 57.8172,68.173 C56.4522,69.4148 55.0452,70.5978 53.5906,71.7346 C52.3530199,72.702115 47.6964339,76.4441194 46.156336,76.916 L45.479989,76.916 C44.4209642,76.6786104 43.1145956,75.6407133 42.3164,75.1786 Z" id="Path" fill="url(#linearGradient-7)" fill-rule="evenodd"></path>
                <mask id="mask-10" fill="white">
                    <use xlink:href="#path-9"></use>
                </mask>
                <use id="Path" fill="url(#linearGradient-8)" fill-rule="evenodd" xlink:href="#path-9"></use>
            </g>
            <g id="logo" transform="translate(100.000000, 24.000000)" fill-rule="nonzero">
                <path d="M20.5,7.6075 C20.289999,7.95250172 20.0762511,8.20374921 19.85875,8.36125 C19.6412489,8.51875079 19.3600017,8.5975 19.015,8.5975 C18.6849983,8.5975 18.3287519,8.48125116 17.94625,8.24875 C17.5637481,8.01624884 17.1175026,7.76500135 16.6075,7.495 C16.0974974,7.22499865 15.5125033,6.97375116 14.8525,6.74125 C14.1924967,6.50874884 13.4200044,6.3925 12.535,6.3925 C10.9749922,6.3925 9.8050039,6.74124651 9.025,7.43875 C8.2449961,8.13625349 7.855,9.04749437 7.855,10.1725 C7.855,10.8925036 8.06874786,11.4887476 8.49625,11.96125 C8.92375214,12.4337524 9.48624651,12.8424983 10.18375,13.1875 C10.8812535,13.5325017 11.6724956,13.8399986 12.5575,14.11 C13.4425044,14.3800013 14.3499953,14.6762484 15.28,14.99875 C16.2100046,15.3212516 17.1174956,15.6999978 18.0025,16.135 C18.8875044,16.5700022 19.6787465,17.1174967 20.37625,17.7775 C21.0737535,18.4375033 21.6362479,19.2437452 22.06375,20.19625 C22.4912521,21.1487548 22.705,22.3074932 22.705,23.6725 C22.705,25.1575074 22.4462526,26.5487435 21.92875,27.84625 C21.4112474,29.1437565 20.6650049,30.2762452 19.69,31.24375 C18.7149951,32.2112548 17.5112572,32.9724972 16.07875,33.5275 C14.6462428,34.0825028 13.0225091,34.36 11.2075,34.36 C10.1724948,34.36 9.14125514,34.255001 8.11375,34.045 C7.08624486,33.8349989 6.09625476,33.5425019 5.14375,33.1675 C4.19124524,32.7924981 3.2950042,32.3425026 2.455,31.8175 C1.6149958,31.2924974 0.88000315,30.7075032 0.25,30.0625 L2.23,26.8675 C2.39500082,26.6274988 2.61249865,26.4287508 2.8825,26.27125 C3.15250135,26.1137492 3.4374985,26.035 3.7375,26.035 C4.14250203,26.035 4.56999775,26.1849985 5.02,26.485 C5.47000225,26.7850015 5.98749707,27.1149982 6.5725,27.475 C7.15750292,27.8350018 7.83624614,28.1649985 8.60875,28.465 C9.38125386,28.7650015 10.3074946,28.915 11.3875,28.915 C12.9625079,28.915 14.1812457,28.5550036 15.04375,27.835 C15.9062543,27.1149964 16.3375,26.0425071 16.3375,24.6175 C16.3375,23.7924959 16.1237521,23.1250025 15.69625,22.615 C15.2687479,22.1049974 14.7100034,21.6775017 14.02,21.3325 C13.3299966,20.9874983 12.5425044,20.6912512 11.6575,20.44375 C10.7724956,20.1962488 9.86500465,19.9225015 8.935,19.6225 C8.00499535,19.3224985 7.09750443,18.9625021 6.2125,18.5425 C5.32749558,18.1224979 4.54000345,17.5675034 3.85,16.8775 C3.15999655,16.1874965 2.60125214,15.3325051 2.17375,14.3125 C1.74624786,13.2924949 1.5325,12.0250076 1.5325,10.51 C1.5325,9.29499392 1.7724976,8.1175057 2.2525,6.9775 C2.7325024,5.8374943 3.43749535,4.82500442 4.3675,3.94 C5.29750465,3.05499557 6.44124321,2.3425027 7.79875,1.8025 C9.15625679,1.2624973 10.7124912,0.9925 12.4675,0.9925 C14.4325098,0.9925 16.2512416,1.29624696 17.92375,1.90375 C19.5962584,2.51125304 21.0099942,3.3549946 22.165,4.435 L20.5,7.6075 Z M32.965,27.88 C33.5500029,28.5550034 34.1837466,29.0274986 34.86625,29.2975 C35.5487534,29.5675013 36.2799961,29.7025 37.06,29.7025 C37.8100037,29.7025 38.4924969,29.5600014 39.1075,29.275 C39.7225031,28.9899986 40.2512478,28.543753 40.69375,27.93625 C41.1362522,27.328747 41.4774988,26.5525047 41.7175,25.6075 C41.9575012,24.6624953 42.0775,23.5375065 42.0775,22.2325 C42.0775,20.9424935 41.976251,19.8475045 41.77375,18.9475 C41.571249,18.0474955 41.2862518,17.3200028 40.91875,16.765 C40.5512482,16.2099972 40.1050026,15.8087512 39.58,15.56125 C39.0549974,15.3137488 38.4700032,15.19 37.825,15.19 C36.7299945,15.19 35.8112537,15.4037479 35.06875,15.83125 C34.3262463,16.2587521 33.6250033,16.8849959 32.965,17.71 L32.965,27.88 Z M32.605,13.84 C33.0700023,13.3299974 33.5649974,12.8612521 34.09,12.43375 C34.6150026,12.0062479 35.177497,11.6387515 35.7775,11.33125 C36.377503,11.0237485 37.0224965,10.7837509 37.7125,10.61125 C38.4025034,10.4387491 39.152496,10.3525 39.9625,10.3525 C41.2075062,10.3525 42.3512448,10.6187473 43.39375,11.15125 C44.4362552,11.6837527 45.3324963,12.4562449 46.0825,13.46875 C46.8325038,14.4812551 47.4174979,15.7224926 47.8375,17.1925 C48.2575021,18.6625073 48.4675,20.3424905 48.4675,22.2325 C48.4675,23.9725087 48.2312524,25.5812426 47.75875,27.05875 C47.2862476,28.5362574 46.6150043,29.8149946 45.745,30.895 C44.8749957,31.9750054 43.8287561,32.818747 42.60625,33.42625 C41.3837439,34.033753 40.0225075,34.3375 38.5225,34.3375 C37.2624937,34.3375 36.1937544,34.1500019 35.31625,33.775 C34.4387456,33.3999981 33.6550035,32.8900032 32.965,32.245 L32.965,41.4925 L26.755,41.4925 L26.755,10.8025 L30.58,10.8025 C31.3600039,10.8025 31.8774987,11.1624964 32.1325,11.8825 L32.605,13.84 Z M58.66,13.075 C59.0950022,12.684998 59.5487476,12.3287516 60.02125,12.00625 C60.4937524,11.6837484 60.9962473,11.4062512 61.52875,11.17375 C62.0612527,10.9412488 62.631247,10.7612506 63.23875,10.63375 C63.846253,10.5062494 64.5024965,10.4425 65.2075,10.4425 C66.4675063,10.4425 67.5849951,10.6599978 68.56,11.095 C69.5350049,11.5300022 70.3562467,12.1374961 71.02375,12.9175 C71.6912533,13.6975039 72.1937483,14.6274946 72.53125,15.7075 C72.8687517,16.7875054 73.0375,17.9724935 73.0375,19.2625 L73.0375,34 L66.85,34 L66.85,19.2625 C66.85,17.9724935 66.550003,16.9712536 65.95,16.25875 C65.349997,15.5462464 64.4650058,15.19 63.295,15.19 C62.4249956,15.19 61.6075038,15.3774981 60.8425,15.7525 C60.0774962,16.1275019 59.3500034,16.6524966 58.66,17.3275 L58.66,34 L52.45,34 L52.45,0.4525 L58.66,0.4525 L58.66,13.075 Z M92.68,19.6675 C92.68,19.0224968 92.5937509,18.4075029 92.42125,17.8225 C92.2487491,17.2374971 91.9750019,16.7200022 91.6,16.27 C91.2249981,15.8199977 90.7525028,15.4637513 90.1825,15.20125 C89.6124971,14.9387487 88.930004,14.8075 88.135,14.8075 C86.6499926,14.8075 85.4875042,15.2274958 84.6475,16.0675 C83.8074958,16.9075042 83.2600013,18.1074922 83.005,19.6675 L92.68,19.6675 Z M82.915,23.3575 C83.110001,25.5325109 83.7287448,27.122495 84.77125,28.1275 C85.8137552,29.132505 87.1749916,29.635 88.855,29.635 C89.7100043,29.635 90.4487469,29.533751 91.07125,29.33125 C91.6937531,29.128749 92.2412476,28.9037512 92.71375,28.65625 C93.1862524,28.4087488 93.6137481,28.183751 93.99625,27.98125 C94.3787519,27.778749 94.7574981,27.6775 95.1325,27.6775 C95.6125024,27.6775 95.9874986,27.8574982 96.2575,28.2175 L98.0575,30.4675 C97.3974967,31.2325038 96.670004,31.8662475 95.875,32.36875 C95.079996,32.8712525 94.2550043,33.2687485 93.4,33.56125 C92.5449957,33.8537515 91.6825043,34.0562494 90.8125,34.16875 C89.9424956,34.2812506 89.102504,34.3375 88.2925,34.3375 C86.6724919,34.3375 85.161257,34.0712527 83.75875,33.53875 C82.356243,33.0062473 81.1337552,32.2187552 80.09125,31.17625 C79.0487448,30.1337448 78.227503,28.8400077 77.6275,27.295 C77.027497,25.7499923 76.7275,23.9575102 76.7275,21.9175 C76.7275,20.3424921 76.9862474,18.857507 77.50375,17.4625 C78.0212526,16.067493 78.7674951,14.8525052 79.7425,13.8175 C80.7175049,12.7824948 81.902493,11.961253 83.2975,11.35375 C84.692507,10.746247 86.2674912,10.4425 88.0225,10.4425 C89.5075074,10.4425 90.8762437,10.6787476 92.12875,11.15125 C93.3812563,11.6237524 94.4612455,12.3099955 95.36875,13.21 C96.2762545,14.1100045 96.9812475,15.2162434 97.48375,16.52875 C97.9862525,17.8412566 98.2375,19.3374916 98.2375,21.0175 C98.2375,21.4825023 98.2150002,21.8649985 98.17,22.165 C98.1249998,22.4650015 98.0500005,22.7049991 97.945,22.885 C97.8399995,23.0650009 97.6975009,23.1887497 97.5175,23.25625 C97.3374991,23.3237503 97.1050014,23.3575 96.82,23.3575 L82.915,23.3575 Z M107.9125,14.6275 C108.647504,13.3074934 109.494995,12.2650038 110.455,11.5 C111.415005,10.7349962 112.539994,10.3525 113.83,10.3525 C114.880005,10.3525 115.734997,10.5999975 116.395,11.095 L115.99,15.685 C115.915,15.9850015 115.798751,16.1912494 115.64125,16.30375 C115.483749,16.4162506 115.270001,16.4725 115,16.4725 C114.759999,16.4725 114.415002,16.4387503 113.965,16.37125 C113.514998,16.3037497 113.095002,16.27 112.705,16.27 C112.134997,16.27 111.628752,16.3524992 111.18625,16.5175 C110.743748,16.6825008 110.350002,16.9149985 110.005,17.215 C109.659998,17.5150015 109.348751,17.8824978 109.07125,18.3175 C108.793749,18.7525022 108.535001,19.2474972 108.295,19.8025 L108.295,34 L102.085,34 L102.085,10.8025 L105.7525,10.8025 C106.382503,10.8025 106.817499,10.9149989 107.0575,11.14 C107.297501,11.3650011 107.469999,11.7549972 107.575,12.31 L107.9125,14.6275 Z M133.765,19.6675 C133.765,19.0224968 133.678751,18.4075029 133.50625,17.8225 C133.333749,17.2374971 133.060002,16.7200022 132.685,16.27 C132.309998,15.8199977 131.837503,15.4637513 131.2675,15.20125 C130.697497,14.9387487 130.015004,14.8075 129.22,14.8075 C127.734993,14.8075 126.572504,15.2274958 125.7325,16.0675 C124.892496,16.9075042 124.345001,18.1074922 124.09,19.6675 L133.765,19.6675 Z M124,23.3575 C124.195001,25.5325109 124.813745,27.122495 125.85625,28.1275 C126.898755,29.132505 128.259992,29.635 129.94,29.635 C130.795004,29.635 131.533747,29.533751 132.15625,29.33125 C132.778753,29.128749 133.326248,28.9037512 133.79875,28.65625 C134.271252,28.4087488 134.698748,28.183751 135.08125,27.98125 C135.463752,27.778749 135.842498,27.6775 136.2175,27.6775 C136.697502,27.6775 137.072499,27.8574982 137.3425,28.2175 L139.1425,30.4675 C138.482497,31.2325038 137.755004,31.8662475 136.96,32.36875 C136.164996,32.8712525 135.340004,33.2687485 134.485,33.56125 C133.629996,33.8537515 132.767504,34.0562494 131.8975,34.16875 C131.027496,34.2812506 130.187504,34.3375 129.3775,34.3375 C127.757492,34.3375 126.246257,34.0712527 124.84375,33.53875 C123.441243,33.0062473 122.218755,32.2187552 121.17625,31.17625 C120.133745,30.1337448 119.312503,28.8400077 118.7125,27.295 C118.112497,25.7499923 117.8125,23.9575102 117.8125,21.9175 C117.8125,20.3424921 118.071247,18.857507 118.58875,17.4625 C119.106253,16.067493 119.852495,14.8525052 120.8275,13.8175 C121.802505,12.7824948 122.987493,11.961253 124.3825,11.35375 C125.777507,10.746247 127.352491,10.4425 129.1075,10.4425 C130.592507,10.4425 131.961244,10.6787476 133.21375,11.15125 C134.466256,11.6237524 135.546245,12.3099955 136.45375,13.21 C137.361255,14.1100045 138.066247,15.2162434 138.56875,16.52875 C139.071253,17.8412566 139.3225,19.3374916 139.3225,21.0175 C139.3225,21.4825023 139.3,21.8649985 139.255,22.165 C139.21,22.4650015 139.135001,22.7049991 139.03,22.885 C138.924999,23.0650009 138.782501,23.1887497 138.6025,23.25625 C138.422499,23.3237503 138.190001,23.3575 137.905,23.3575 L124,23.3575 Z" id="Sphere" fill="#005B96"></path>
                <path d="M58.3619999,48.812 C58.2168499,48.812 58.069547,48.7462398 57.9059023,48.6259128 C57.7915025,48.5417953 57.6338784,48.4447958 57.4340569,48.336121 C57.2416591,48.2314836 56.9990277,48.1351193 56.7066865,48.048113 C56.4239086,47.9639529 56.0734126,47.921 55.6559999,47.921 C55.2870931,47.921 54.9536524,47.9734704 54.6547329,48.0775884 C54.3554534,48.1818318 54.1028845,48.3197477 53.8956411,48.4908058 C53.6915118,48.6592935 53.5360338,48.8532402 53.4272529,49.0740015 C53.3194706,49.2927361 53.2659999,49.5207731 53.2659999,49.761 C53.2659999,50.0527136 53.3373983,50.2847585 53.4776808,50.4659567 C53.632903,50.6664521 53.8368719,50.8394177 54.0915346,50.9849392 C54.3580076,51.1372095 54.6665223,51.2696791 55.0171938,51.381894 C55.3831849,51.4990111 55.7546742,51.6161309 56.1316726,51.7332566 C56.5149558,51.8523349 56.8926769,51.9844442 57.2648362,52.1295864 C57.6522425,52.2806748 57.9968097,52.4695054 58.2979145,52.6963116 C58.6073971,52.9294284 58.8592283,53.2155087 59.0520607,53.5529653 C59.2509831,53.9010795 59.3489999,54.3176509 59.3489999,54.799 C59.3489999,55.3076743 59.2585337,55.7836051 59.0772548,56.2249797 C58.8947112,56.6694337 58.6261013,57.0554361 58.2728982,57.3808592 C57.9216478,57.7044832 57.4919199,57.9595728 56.9855934,58.1465241 C56.4797203,58.333308 55.9042577,58.426 55.2599999,58.426 C54.45709,58.426 53.7593874,58.2968672 53.1681639,58.0362621 C52.5867286,57.7799716 52.065623,57.4447014 51.6057587,57.0308235 L51.4472801,56.8881928 L51.5631073,56.7091872 L51.8030003,56.3385003 C51.8591082,56.2487276 51.9280022,56.1768383 52.0104755,56.1260854 C52.1018926,56.0698288 52.2105185,56.045 52.3339999,56.045 C52.501867,56.045 52.6672289,56.1289934 52.8440379,56.2819092 C52.9674277,56.3886248 53.1373887,56.5070824 53.3531143,56.6358219 C53.5649641,56.7622484 53.8305454,56.8820203 54.1494337,56.9941569 C54.453928,57.1012318 54.8390169,57.156 55.3039999,57.156 C55.7381719,57.156 56.1164114,57.0963676 56.4393677,56.9786232 C56.7608089,56.8614311 57.024998,56.7045688 57.2340146,56.5086157 C57.4424126,56.3132426 57.5995833,56.0847779 57.7069768,55.8211758 C57.8156845,55.5543478 57.8699999,55.2728953 57.8699999,54.975 C57.8699999,54.6586104 57.796889,54.4057684 57.6538159,54.2090429 C57.4985059,53.9954917 57.2932795,53.8130683 57.0360036,53.6613415 C56.7664144,53.502353 56.4586973,53.3667488 56.1126088,53.2548818 C55.7507405,53.1379143 55.3797003,53.0209361 54.9994784,52.9039448 C54.6127612,52.7849548 54.2352402,52.6547752 53.8669131,52.5133971 C53.4830955,52.3660732 53.1385225,52.1791862 52.8338242,51.9526156 C52.5206012,51.7197062 52.2666874,51.4355645 52.0735838,51.1016563 C51.8739333,50.7564272 51.7759999,50.3340894 51.7759999,49.838 C51.7759999,49.4124095 51.8685053,49.0021681 52.0526906,48.6097732 C52.236284,48.2186396 52.4977273,47.8753705 52.8353454,47.5814442 C53.1712417,47.2890168 53.5777131,47.0573085 54.0531835,46.8858273 C54.5289034,46.7142562 55.0598172,46.629 55.6449999,46.629 C56.3405665,46.629 56.961833,46.7290181 57.5080033,46.9304426 C58.0565358,47.1327383 58.556087,47.4437429 59.0053545,47.8620265 L59.1542223,48.0006275 L58.8302741,48.5351421 C58.7279086,48.7120952 58.5626148,48.812 58.3619999,48.812 Z M66.8319999,46.629 C67.6495533,46.629 68.3853657,46.7692462 69.0376349,47.0509956 C69.691506,47.333437 70.2448107,47.7353109 70.6950152,48.2553748 C71.1429915,48.7728646 71.4837243,49.3946539 71.7174152,50.1187125 C71.9494491,50.8376372 72.0649999,51.6389159 72.0649999,52.522 C72.0649999,53.4051835 71.9494231,54.2047477 71.7172956,54.9201571 C71.4835844,55.6404471 71.1428733,56.2602719 70.6950152,56.7776252 C70.244546,57.2979948 69.690834,57.6982217 69.0364867,57.9769969 C68.3845323,58.2547526 67.6491331,58.393 66.8319999,58.393 C66.0148667,58.393 65.2794674,58.2547526 64.627513,57.9769969 C63.9734605,57.6983473 63.4181779,57.2983885 62.9641817,56.7784271 C62.5123271,56.2609183 62.1695314,55.6408049 61.9357042,54.9201571 C61.7035767,54.2047477 61.5879999,53.4051835 61.5879999,52.522 C61.5879999,51.6389159 61.7035507,50.8376372 61.9355846,50.1187125 C62.1693909,49.3942964 62.5122081,48.7722179 62.9641817,48.2545729 C63.4179121,47.7349159 63.972788,47.3333099 64.6263649,47.0509956 C65.2786341,46.7692462 66.0144464,46.629 66.8319999,46.629 Z M66.8319999,57.068 C67.4503181,57.068 67.9851075,56.9631056 68.4382774,56.7552608 C68.889683,56.5482251 69.264807,56.2525193 69.5664414,55.8661561 C69.8715975,55.475282 70.1009427,55.0010719 70.2538435,54.4415939 C70.4090177,53.8737974 70.4869999,53.2339893 70.4869999,52.522 C70.4869999,51.8172888 70.4090127,51.179212 70.2537403,50.6075273 C70.1007339,50.0441853 69.8712041,49.5661421 69.5657921,49.1715086 C69.2639052,48.78143 68.8885069,48.482126 68.4368718,48.2715893 C67.9840761,48.0605116 67.4498002,47.954 66.8319999,47.954 C66.2141996,47.954 65.6799237,48.0605116 65.227128,48.2715893 C64.7754929,48.482126 64.4000946,48.78143 64.0982077,49.1715086 C63.7924969,49.5665282 63.5610042,50.0450615 63.4043794,50.608911 C63.2457001,51.1801565 63.1659999,51.8177578 63.1659999,52.522 C63.1659999,53.2335194 63.2456948,53.8728497 63.4042719,54.4402035 C63.5607905,55.0001922 63.7921004,55.4748953 64.0975584,55.8661561 C64.3991928,56.2525193 64.7743168,56.5482251 65.2257224,56.7552608 C65.6788923,56.9631056 66.2136817,57.068 66.8319999,57.068 Z M76.7289999,58.25 L75.1729999,58.25 L75.1729999,41.745 L76.7289999,41.745 L76.7289999,58.25 Z M87.9219999,46.805 L89.4779999,46.805 L89.4779999,58.25 L88.6449999,58.25 C88.335893,58.25 88.1266605,58.0624123 88.0764609,57.7291747 L88.0143284,56.7074408 C87.5886855,57.1512028 87.1161401,57.5225038 86.5970502,57.8207654 C85.8948508,58.2242391 85.1130272,58.426 84.2559999,58.426 C83.6157154,58.426 83.0514156,58.3248152 82.5643182,58.1205486 C82.0732961,57.9146361 81.6629118,57.6158125 81.3362657,57.2254307 C81.0133547,56.8395127 80.7703168,56.3769566 80.6068314,55.8397904 C80.4452788,55.3089746 80.3649999,54.7126171 80.3649999,54.051 L80.3649999,46.805 L81.9209999,46.805 L81.9209999,54.051 C81.9209999,55.0246077 82.1396364,55.7744623 82.5697382,56.3087295 C82.9878093,56.8280522 83.6303228,57.09 84.5199999,57.09 C85.1868049,57.09 85.8086972,56.920393 86.3901356,56.5797871 C86.9591671,56.2464491 87.4696555,55.7867155 87.922,55.1988207 L87.9219999,46.805 Z M95.3189999,55.602 C95.3189999,55.875756 95.3533372,56.1063062 95.4200256,56.2936688 C95.4854314,56.4774279 95.5732116,56.6242328 95.6826177,56.7365958 C95.7918131,56.8487425 95.9190125,56.9306179 96.0666798,56.9837781 C96.2222198,57.0397725 96.3915845,57.068 96.5759999,57.068 C96.8096768,57.068 97.0055764,57.0348235 97.1643842,56.9706895 C97.3404441,56.8995884 97.4908571,56.8227106 97.6155958,56.7406457 C97.7460552,56.6548172 97.8508345,56.5770777 97.9293738,56.5083558 C98.0593712,56.3946081 98.1744715,56.331 98.3029999,56.331 C98.4497498,56.331 98.5725625,56.407758 98.6915662,56.5594113 L99.0765402,57.1812924 L98.9503839,57.3207283 C98.6471295,57.6559042 98.2639938,57.9239007 97.8033963,58.124674 C97.3429854,58.3253659 96.8634936,58.426 96.3669999,58.426 C95.564209,58.426 94.9231182,58.1980566 94.4585106,57.7375606 C93.9909179,57.2741059 93.7629999,56.5762331 93.7629999,55.657 L93.7629999,48.427 L92.4399999,48.427 C92.3022637,48.427 92.1783177,48.3856847 92.0793021,48.3008142 C91.9695198,48.206715 91.9149999,48.0743097 91.9149999,47.924 L91.9149999,47.284025 L93.8003692,47.1509401 L94.0549532,43.4147674 C94.0785217,43.308709 94.1264802,43.212792 94.1971858,43.1303022 C94.2912849,43.0205198 94.4236902,42.966 94.5739999,42.966 L95.3189999,42.966 L95.3189999,47.146 L98.7729999,47.146 L98.7729999,48.427 L95.3189999,48.427 L95.3189999,55.602 Z M103.399,58.25 L101.854,58.25 L101.854,46.805 L103.399,46.805 L103.399,58.25 Z M103.85,43.282 C103.85,43.451291 103.81416,43.6113742 103.74254,43.7593902 C103.675406,43.8981332 103.587622,44.0219316 103.479777,44.1297767 C103.369569,44.2399841 103.240891,44.3273017 103.095205,44.3910393 C102.946023,44.4563065 102.787226,44.489 102.621,44.489 C102.454774,44.489 102.295977,44.4563065 102.146795,44.3910393 C102.001109,44.3273017 101.872431,44.2399841 101.762223,44.1297767 C101.652869,44.0204222 101.565907,43.894556 101.502157,43.7533967 C101.435999,43.6069043 101.403,43.4489781 101.403,43.282 C101.403,43.1164878 101.435404,42.9567811 101.499855,42.8048625 C101.563559,42.6547027 101.651188,42.5232582 101.762223,42.4122233 C101.872431,42.3020159 102.001109,42.2146983 102.146795,42.1509607 C102.295977,42.0856935 102.454774,42.053 102.621,42.053 C102.787226,42.053 102.946023,42.0856935 103.095205,42.1509607 C103.240891,42.2146983 103.369569,42.3020159 103.479777,42.4122233 C103.589343,42.5217898 103.677888,42.6512017 103.745092,42.7990493 C103.814833,42.952481 103.85,43.1142477 103.85,43.282 Z M111.762,46.629 C112.579553,46.629 113.315366,46.7692462 113.967635,47.0509956 C114.621506,47.333437 115.174811,47.7353109 115.625015,48.2553748 C116.072992,48.7728646 116.413724,49.3946539 116.647415,50.1187125 C116.879449,50.8376372 116.995,51.6389159 116.995,52.522 C116.995,53.4051835 116.879423,54.2047477 116.647296,54.9201571 C116.413585,55.6404471 116.072873,56.2602719 115.625015,56.7776252 C115.174546,57.2979948 114.620834,57.6982217 113.966487,57.9769969 C113.314532,58.2547526 112.579133,58.393 111.762,58.393 C110.944867,58.393 110.209468,58.2547526 109.557513,57.9769969 C108.903461,57.6983473 108.348178,57.2983885 107.894182,56.7784271 C107.442327,56.2609183 107.099531,55.6408049 106.865704,54.9201571 C106.633577,54.2047477 106.518,53.4051835 106.518,52.522 C106.518,51.6389159 106.633551,50.8376372 106.865585,50.1187125 C107.099391,49.3942964 107.442208,48.7722179 107.894182,48.2545729 C108.347912,47.7349159 108.902788,47.3333099 109.556365,47.0509956 C110.208634,46.7692462 110.944447,46.629 111.762,46.629 Z M111.762,57.068 C112.380318,57.068 112.915108,56.9631056 113.368277,56.7552608 C113.819683,56.5482251 114.194807,56.2525193 114.496441,55.8661561 C114.801598,55.475282 115.030943,55.0010719 115.183844,54.4415939 C115.339018,53.8737974 115.417,53.2339893 115.417,52.522 C115.417,51.8172888 115.339013,51.179212 115.18374,50.6075273 C115.030734,50.0441853 114.801204,49.5661421 114.495792,49.1715086 C114.193905,48.78143 113.818507,48.482126 113.366872,48.2715893 C112.914076,48.0605116 112.3798,47.954 111.762,47.954 C111.1442,47.954 110.609924,48.0605116 110.157128,48.2715893 C109.705493,48.482126 109.330095,48.78143 109.028208,49.1715086 C108.722497,49.5665282 108.491004,50.0450615 108.334379,50.608911 C108.1757,51.1801565 108.096,51.8177578 108.096,52.522 C108.096,53.2335194 108.175695,53.8728497 108.334272,54.4402035 C108.490791,55.0001922 108.7221,55.4748953 109.027558,55.8661561 C109.329193,56.2525193 109.704317,56.5482251 110.155722,56.7552608 C110.608892,56.9631056 111.143682,57.068 111.762,57.068 Z M122.88495,47.2342346 C123.587149,46.8307609 124.368973,46.629 125.226,46.629 C125.858845,46.629 126.421128,46.7301722 126.911523,46.9341762 C127.406412,47.1400502 127.818882,47.4389417 128.145734,47.8295693 C128.468645,48.2154873 128.711683,48.6780434 128.875168,49.2152096 C129.036721,49.7460254 129.117,50.3423829 129.117,51.004 L129.117,58.25 L127.561,58.25 L127.561,51.004 C127.561,50.0303923 127.342364,49.2805377 126.912262,48.7462705 C126.494191,48.2269478 125.851677,47.965 124.962,47.965 C124.295195,47.965 123.673303,48.134607 123.091864,48.4752129 C122.522833,48.8085509 122.012344,49.2682845 121.56,49.8561793 L121.56,58.25 L120.004,58.25 L120.004,46.805 L120.837,46.805 C121.143733,46.805 121.354211,46.9864467 121.405545,47.3149268 L121.467904,48.3473165 C121.893487,47.9036618 122.365954,47.5324419 122.88495,47.2342346 Z M138.668,48.812 C138.52285,48.812 138.375547,48.7462398 138.211902,48.6259128 C138.097503,48.5417953 137.939878,48.4447958 137.740057,48.336121 C137.547659,48.2314836 137.305028,48.1351193 137.012687,48.048113 C136.729909,47.9639529 136.379413,47.921 135.962,47.921 C135.593093,47.921 135.259653,47.9734704 134.960733,48.0775884 C134.661454,48.1818318 134.408885,48.3197477 134.201641,48.4908058 C133.997512,48.6592935 133.842034,48.8532402 133.733253,49.0740015 C133.625471,49.2927361 133.572,49.5207731 133.572,49.761 C133.572,50.0527136 133.643398,50.2847585 133.783681,50.4659567 C133.938903,50.6664521 134.142872,50.8394177 134.397535,50.9849392 C134.664008,51.1372095 134.972522,51.2696791 135.323194,51.381894 C135.689185,51.4990111 136.060674,51.6161309 136.437673,51.7332566 C136.820956,51.8523349 137.198677,51.9844442 137.570836,52.1295864 C137.958243,52.2806748 138.30281,52.4695054 138.603915,52.6963116 C138.913397,52.9294284 139.165228,53.2155087 139.358061,53.5529653 C139.556983,53.9010795 139.655,54.3176509 139.655,54.799 C139.655,55.3076743 139.564534,55.7836051 139.383255,56.2249797 C139.200711,56.6694337 138.932101,57.0554361 138.578898,57.3808592 C138.227648,57.7044832 137.79792,57.9595728 137.291594,58.1465241 C136.78572,58.333308 136.210258,58.426 135.566,58.426 C134.76309,58.426 134.065387,58.2968672 133.474164,58.0362621 C132.892729,57.7799716 132.371623,57.4447014 131.911759,57.0308235 L131.75328,56.8881928 L131.869107,56.7091872 L132.109,56.3385003 C132.165108,56.2487276 132.234002,56.1768383 132.316476,56.1260854 C132.407893,56.0698288 132.516519,56.045 132.64,56.045 C132.807867,56.045 132.973229,56.1289934 133.150038,56.2819092 C133.273428,56.3886248 133.443389,56.5070824 133.659114,56.6358219 C133.870964,56.7622484 134.136545,56.8820203 134.455434,56.9941569 C134.759928,57.1012318 135.145017,57.156 135.61,57.156 C136.044172,57.156 136.422412,57.0963676 136.745368,56.9786232 C137.066809,56.8614311 137.330998,56.7045688 137.540015,56.5086157 C137.748413,56.3132426 137.905583,56.0847779 138.012977,55.8211758 C138.121685,55.5543478 138.176,55.2728953 138.176,54.975 C138.176,54.6586104 138.102889,54.4057684 137.959816,54.2090429 C137.804506,53.9954917 137.59928,53.8130683 137.342004,53.6613415 C137.072414,53.502353 136.764697,53.3667488 136.418609,53.2548818 C136.056741,53.1379143 135.6857,53.0209361 135.305479,52.9039448 C134.918761,52.7849548 134.54124,52.6547752 134.172913,52.5133971 C133.789096,52.3660732 133.444523,52.1791862 133.139824,51.9526156 C132.826601,51.7197062 132.572688,51.4355645 132.379584,51.1016563 C132.179933,50.7564272 132.082,50.3340894 132.082,49.838 C132.082,49.4124095 132.174505,49.0021681 132.358691,48.6097732 C132.542284,48.2186396 132.803727,47.8753705 133.141345,47.5814442 C133.477242,47.2890168 133.883713,47.0573085 134.359184,46.8858273 C134.834903,46.7142562 135.365817,46.629 135.951,46.629 C136.646567,46.629 137.267833,46.7290181 137.814003,46.9304426 C138.362536,47.1327383 138.862087,47.4437429 139.311355,47.8620265 L139.460222,48.0006275 L139.136274,48.5351421 C139.033909,48.7120952 138.868615,48.812 138.668,48.812 Z" id="solutions" fill="#6497B1"></path>
            </g>
        </g>
    </g>
</svg>