<svg width="340" height="260" viewBox="0 0 340 260" fill="none" xmlns="http://www.w3.org/2000/svg">
<path d="M0 40H340V248C340 254.627 334.627 260 328 260H12C5.37258 260 0 254.627 0 248V40Z" fill="#E9EBED"/>
<path d="M0 12C0 5.37258 5.37258 0 12 0H328C334.627 0 340 5.37258 340 12V26H0V12Z" fill="#2674A6"/>
<path d="M0 26H340V40H0V26Z" fill="white"/>
<circle cx="17" cy="13" r="5" fill="white"/>
<circle cx="33" cy="13" r="5" fill="white"/>
<circle cx="49" cy="13" r="5" fill="white"/>
<path d="M76 164C140.712 164 180.629 164 239 164L266 191.871V260H76V164Z" fill="white"/>
<path d="M139 195C139 192.791 140.791 191 143 191C145.209 191 147 192.791 147 195C147 197.209 145.209 199 143 199C140.791 199 139 197.209 139 195Z" fill="#D4D6D8"/>
<path d="M195 195C195 192.791 196.791 191 199 191C201.209 191 203 192.791 203 195C203 197.209 201.209 199 199 199C196.791 199 195 197.209 195 195Z" fill="#D4D6D8"/>
<path fill-rule="evenodd" clip-rule="evenodd" d="M169.889 208.002C160.864 208.079 152.188 210.377 137.27 214.549C136.738 214.698 136.186 214.388 136.037 213.856C135.888 213.324 136.199 212.772 136.731 212.623C151.589 208.468 160.531 206.082 169.872 206.002C179.22 205.922 188.905 208.151 205.286 213.042C205.816 213.2 206.116 213.757 205.958 214.286C205.8 214.815 205.243 215.116 204.714 214.958C188.331 210.067 178.905 207.925 169.889 208.002Z" fill="#D4D6D8"/>
<path d="M239 164L266 191H239V164Z" fill="#D4D6D8"/>
<g opacity="0.6">
<path d="M129.562 118.476V102.163C129.562 101.307 129.587 100.401 129.638 99.4444C129.714 98.4626 129.814 97.443 129.941 96.3857L114.049 118.476H129.562ZM145 118.476V124.367C145 124.921 144.811 125.399 144.432 125.802C144.079 126.179 143.575 126.368 142.919 126.368H138.643V139.396H129.562V126.368H106.897C106.241 126.368 105.636 126.167 105.081 125.764C104.551 125.361 104.223 124.833 104.097 124.178L103 118.967L128.73 84.5664H138.643V118.476H145Z" fill="#263238"/>
<path d="M191.114 111.981C191.114 116.764 190.596 120.918 189.562 124.442C188.528 127.967 187.103 130.887 185.287 133.203C183.47 135.494 181.314 137.206 178.816 138.339C176.344 139.446 173.67 140 170.795 140C167.919 140 165.245 139.446 162.773 138.339C160.301 137.206 158.169 135.494 156.378 133.203C154.587 130.887 153.175 127.967 152.141 124.442C151.132 120.918 150.627 116.764 150.627 111.981C150.627 107.198 151.132 103.057 152.141 99.5577C153.175 96.0333 154.587 93.1256 156.378 90.8348C158.169 88.5188 160.301 86.8069 162.773 85.6993C165.245 84.5664 167.919 84 170.795 84C173.67 84 176.344 84.5664 178.816 85.6993C181.314 86.8069 183.47 88.5188 185.287 90.8348C187.103 93.1256 188.528 96.0333 189.562 99.5577C190.596 103.057 191.114 107.198 191.114 111.981ZM180.33 111.981C180.33 108.104 180.052 104.907 179.497 102.39C178.968 99.8723 178.261 97.8836 177.378 96.4235C176.495 94.9634 175.474 93.9438 174.314 93.3648C173.178 92.7858 172.005 92.4963 170.795 92.4963C169.584 92.4963 168.411 92.7858 167.276 93.3648C166.166 93.9438 165.169 94.9634 164.286 96.4235C163.429 97.8836 162.735 99.8723 162.205 102.39C161.676 104.907 161.411 108.104 161.411 111.981C161.411 115.883 161.676 119.093 162.205 121.61C162.735 124.128 163.429 126.116 164.286 127.577C165.169 129.037 166.166 130.056 167.276 130.635C168.411 131.214 169.584 131.504 170.795 131.504C172.005 131.504 173.178 131.214 174.314 130.635C175.474 130.056 176.495 129.037 177.378 127.577C178.261 126.116 178.968 124.128 179.497 121.61C180.052 119.093 180.33 115.883 180.33 111.981Z" fill="#263238"/>
<path d="M221.562 118.476V102.163C221.562 101.307 221.587 100.401 221.638 99.4444C221.713 98.4626 221.814 97.443 221.941 96.3857L206.049 118.476H221.562ZM237 118.476V124.367C237 124.921 236.811 125.399 236.432 125.802C236.079 126.179 235.575 126.368 234.919 126.368H230.643V139.396H221.562V126.368H198.897C198.241 126.368 197.636 126.167 197.081 125.764C196.551 125.361 196.223 124.833 196.097 124.178L195 118.967L220.73 84.5664H230.643V118.476H237Z" fill="#263238"/>
</g>
</svg>
