<svg width="256" height="104" viewBox="0 0 256 104" fill="none" xmlns="http://www.w3.org/2000/svg">
<path d="M256 0H0V104H256V0Z" fill="white"/>
<path fill-rule="evenodd" clip-rule="evenodd" d="M53.9053 87.2218L53.9115 87.2257L43.3485 90.4435L43.3435 90.445L43.3454 90.4427C43.3272 90.3935 43.0278 89.5841 42.9599 89.307C42.7191 87.7302 42.5035 86.4927 43.0761 84.9552C43.5722 83.6187 44.2176 82.5532 45.1102 81.4669C43.9299 80.6499 42.7557 79.8246 41.585 78.9973C35.1907 74.4774 29.6771 68.7451 24.8369 62.6372C22.3965 59.5567 20.442 56.1369 18.7282 52.6051C17.0523 49.1545 15.5514 45.3269 15.137 41.4811C15.1142 41.2693 15.097 41.0576 15.0768 40.8472C14.9497 39.5237 15.0025 37.6967 15.0768 36.8096C15.6017 30.538 18.5714 24.8873 23.2814 20.4218C28.389 15.5781 37.057 12.5073 43.9792 14.7442L43.9707 14.7465C42.127 17.2328 45.2841 20.9435 46.9456 22.81C49.0253 25.1435 51.5033 27.1407 54.0205 28.9823C58.2135 32.0489 62.7628 34.5646 67.2647 37.1182C70.3213 38.8519 73.371 40.594 76.4291 42.3249C79.0524 43.8105 82.1161 45.5862 83.9931 48.0277C84.7444 49.004 84.9981 50.2981 84.9981 51.5925C85.0244 54.0103 84.7794 56.9958 84.2629 60.549C83.6223 65.0625 82.0869 69.2755 79.3521 72.9173L79.3474 72.932C78.1349 74.2018 77.7651 74.5376 76.1774 75.3589C75.6582 75.6293 75.1488 75.9067 74.6408 76.1897C75.4981 76.9009 76.2685 77.731 76.0444 78.4325C75.5726 79.9041 73.9064 81.251 72.8144 82.2474C71.4493 83.4906 70.0421 84.6749 68.5874 85.8129C67.3498 86.7815 62.6928 90.5276 61.1526 91H60.4762C59.4171 90.7624 58.1106 89.7233 57.3124 89.2607C56.1672 88.5975 55.033 87.9148 53.9053 87.2218ZM34.5606 19.2122C37.2261 16.7218 40.5383 15.6828 43.9671 14.7475C39.5441 17.1292 35.5883 19.5689 35.5589 25.1421C35.531 30.4539 39.0628 35.7951 42.3711 39.7404C49.1623 47.8441 57.8892 54.2211 66.5239 60.2154C67.8275 61.1201 69.1603 61.9673 70.4839 62.8264C67.9485 64.3874 65.4916 65.9797 62.996 67.6487C61.6391 66.7111 60.2873 65.7661 58.9617 64.783C52.7872 60.2042 46.7556 55.5301 41.529 49.8567C39.0186 47.1307 36.8078 44.1959 34.9919 40.964C33.1801 37.7405 31.409 34.4875 30.9932 30.751C30.5493 26.7455 31.5028 22.0714 34.5606 19.2122ZM53.9115 87.2257L52.5989 87.6268C49.8309 85.2957 48.8556 84.6318 45.1115 81.4678L53.9115 87.2257ZM74.6401 76.19L62.9954 67.6491C66.3459 69.5984 70.7399 72.1684 76.1774 75.3589C76.2785 75.3067 76.2785 75.3067 76.1774 75.3589C75.658 75.6294 75.1483 75.9069 74.6401 76.19Z" fill="#1B1B1B"/>
<path d="M120.5 38.6075C120.29 38.9525 120.076 39.2038 119.859 39.3613C119.641 39.5188 119.36 39.5975 119.015 39.5975C118.685 39.5975 118.329 39.4813 117.946 39.2488C117.564 39.0163 117.118 38.765 116.608 38.495C116.097 38.225 115.513 37.9738 114.852 37.7413C114.192 37.5088 113.42 37.3925 112.535 37.3925C110.975 37.3925 109.805 37.7413 109.025 38.4388C108.245 39.1363 107.855 40.0475 107.855 41.1725C107.855 41.8925 108.069 42.4888 108.496 42.9613C108.924 43.4338 109.486 43.8425 110.184 44.1875C110.881 44.5325 111.672 44.84 112.557 45.11C113.443 45.38 114.35 45.6763 115.28 45.9988C116.21 46.3213 117.117 46.7 118.003 47.135C118.888 47.57 119.679 48.1175 120.376 48.7775C121.074 49.4375 121.636 50.2438 122.064 51.1963C122.491 52.1488 122.705 53.3075 122.705 54.6725C122.705 56.1575 122.446 57.5488 121.929 58.8463C121.411 60.1438 120.665 61.2763 119.69 62.2438C118.715 63.2113 117.511 63.9725 116.079 64.5275C114.646 65.0825 113.023 65.36 111.208 65.36C110.172 65.36 109.141 65.255 108.114 65.045C107.086 64.835 106.096 64.5425 105.144 64.1675C104.191 63.7925 103.295 63.3425 102.455 62.8175C101.615 62.2925 100.88 61.7075 100.25 61.0625L102.23 57.8675C102.395 57.6275 102.612 57.4288 102.882 57.2713C103.153 57.1138 103.437 57.035 103.737 57.035C104.143 57.035 104.57 57.185 105.02 57.485C105.47 57.785 105.987 58.115 106.573 58.475C107.158 58.835 107.836 59.165 108.609 59.465C109.381 59.765 110.307 59.915 111.387 59.915C112.963 59.915 114.181 59.555 115.044 58.835C115.906 58.115 116.337 57.0425 116.337 55.6175C116.337 54.7925 116.124 54.125 115.696 53.615C115.269 53.105 114.71 52.6775 114.02 52.3325C113.33 51.9875 112.543 51.6913 111.658 51.4438C110.772 51.1963 109.865 50.9225 108.935 50.6225C108.005 50.3225 107.098 49.9625 106.213 49.5425C105.327 49.1225 104.54 48.5675 103.85 47.8775C103.16 47.1875 102.601 46.3325 102.174 45.3125C101.746 44.2925 101.533 43.025 101.533 41.51C101.533 40.295 101.772 39.1175 102.253 37.9775C102.733 36.8375 103.437 35.825 104.367 34.94C105.298 34.055 106.441 33.3425 107.799 32.8025C109.156 32.2625 110.712 31.9925 112.467 31.9925C114.433 31.9925 116.251 32.2963 117.924 32.9038C119.596 33.5113 121.01 34.355 122.165 35.435L120.5 38.6075ZM132.965 58.88C133.55 59.555 134.184 60.0275 134.866 60.2975C135.549 60.5675 136.28 60.7025 137.06 60.7025C137.81 60.7025 138.492 60.56 139.107 60.275C139.722 59.99 140.251 59.5438 140.694 58.9363C141.136 58.3288 141.477 57.5525 141.717 56.6075C141.958 55.6625 142.077 54.5375 142.077 53.2325C142.077 51.9425 141.976 50.8475 141.774 49.9475C141.571 49.0475 141.286 48.32 140.919 47.765C140.551 47.21 140.105 46.8088 139.58 46.5613C139.055 46.3138 138.47 46.19 137.825 46.19C136.73 46.19 135.811 46.4038 135.069 46.8313C134.326 47.2588 133.625 47.885 132.965 48.71V58.88ZM132.605 44.84C133.07 44.33 133.565 43.8613 134.09 43.4338C134.615 43.0063 135.177 42.6388 135.778 42.3313C136.378 42.0238 137.022 41.7838 137.713 41.6113C138.403 41.4388 139.152 41.3525 139.963 41.3525C141.208 41.3525 142.351 41.6188 143.394 42.1513C144.436 42.6838 145.332 43.4563 146.083 44.4688C146.833 45.4813 147.417 46.7225 147.838 48.1925C148.258 49.6625 148.467 51.3425 148.467 53.2325C148.467 54.9725 148.231 56.5813 147.759 58.0588C147.286 59.5363 146.615 60.815 145.745 61.895C144.875 62.975 143.829 63.8188 142.606 64.4263C141.384 65.0338 140.023 65.3375 138.522 65.3375C137.262 65.3375 136.194 65.15 135.316 64.775C134.439 64.4 133.655 63.89 132.965 63.245V72.4925H126.755V41.8025H130.58C131.36 41.8025 131.877 42.1625 132.132 42.8825L132.605 44.84ZM158.66 44.075C159.095 43.685 159.549 43.3288 160.021 43.0063C160.494 42.6838 160.996 42.4063 161.529 42.1738C162.061 41.9413 162.631 41.7613 163.239 41.6338C163.846 41.5063 164.502 41.4425 165.207 41.4425C166.468 41.4425 167.585 41.66 168.56 42.095C169.535 42.53 170.356 43.1375 171.024 43.9175C171.691 44.6975 172.194 45.6275 172.531 46.7075C172.869 47.7875 173.037 48.9725 173.037 50.2625V65H166.85V50.2625C166.85 48.9725 166.55 47.9713 165.95 47.2588C165.35 46.5463 164.465 46.19 163.295 46.19C162.425 46.19 161.608 46.3775 160.842 46.7525C160.077 47.1275 159.35 47.6525 158.66 48.3275V65H152.45V31.4525H158.66V44.075ZM192.68 50.6675C192.68 50.0225 192.594 49.4075 192.421 48.8225C192.249 48.2375 191.975 47.72 191.6 47.27C191.225 46.82 190.753 46.4638 190.183 46.2013C189.613 45.9388 188.93 45.8075 188.135 45.8075C186.65 45.8075 185.488 46.2275 184.647 47.0675C183.807 47.9075 183.26 49.1075 183.005 50.6675H192.68ZM182.915 54.3575C183.11 56.5325 183.729 58.1225 184.771 59.1275C185.814 60.1325 187.175 60.635 188.855 60.635C189.71 60.635 190.449 60.5338 191.071 60.3313C191.694 60.1288 192.241 59.9038 192.714 59.6563C193.186 59.4088 193.614 59.1838 193.996 58.9813C194.379 58.7788 194.757 58.6775 195.132 58.6775C195.613 58.6775 195.987 58.8575 196.257 59.2175L198.058 61.4675C197.397 62.2325 196.67 62.8663 195.875 63.3688C195.08 63.8713 194.255 64.2688 193.4 64.5613C192.545 64.8538 191.683 65.0563 190.812 65.1688C189.942 65.2813 189.103 65.3375 188.293 65.3375C186.672 65.3375 185.161 65.0713 183.759 64.5388C182.356 64.0063 181.134 63.2188 180.091 62.1763C179.049 61.1338 178.228 59.84 177.628 58.295C177.027 56.75 176.728 54.9575 176.728 52.9175C176.728 51.3425 176.986 49.8575 177.504 48.4625C178.021 47.0675 178.767 45.8525 179.743 44.8175C180.718 43.7825 181.902 42.9613 183.298 42.3538C184.693 41.7463 186.267 41.4425 188.022 41.4425C189.508 41.4425 190.876 41.6788 192.129 42.1513C193.381 42.6238 194.461 43.31 195.369 44.21C196.276 45.11 196.981 46.2163 197.484 47.5288C197.986 48.8413 198.238 50.3375 198.238 52.0175C198.238 52.4825 198.215 52.865 198.17 53.165C198.125 53.465 198.05 53.705 197.945 53.885C197.84 54.065 197.698 54.1888 197.518 54.2563C197.338 54.3238 197.105 54.3575 196.82 54.3575H182.915ZM207.912 45.6275C208.647 44.3075 209.495 43.265 210.455 42.5C211.415 41.735 212.54 41.3525 213.83 41.3525C214.88 41.3525 215.735 41.6 216.395 42.095L215.99 46.685C215.915 46.985 215.799 47.1913 215.641 47.3038C215.484 47.4163 215.27 47.4725 215 47.4725C214.76 47.4725 214.415 47.4388 213.965 47.3713C213.515 47.3038 213.095 47.27 212.705 47.27C212.135 47.27 211.629 47.3525 211.186 47.5175C210.744 47.6825 210.35 47.915 210.005 48.215C209.66 48.515 209.349 48.8825 209.071 49.3175C208.794 49.7525 208.535 50.2475 208.295 50.8025V65H202.085V41.8025H205.753C206.383 41.8025 206.818 41.915 207.058 42.14C207.298 42.365 207.47 42.755 207.575 43.31L207.912 45.6275ZM233.765 50.6675C233.765 50.0225 233.679 49.4075 233.506 48.8225C233.334 48.2375 233.06 47.72 232.685 47.27C232.31 46.82 231.838 46.4638 231.268 46.2013C230.697 45.9388 230.015 45.8075 229.22 45.8075C227.735 45.8075 226.573 46.2275 225.732 47.0675C224.892 47.9075 224.345 49.1075 224.09 50.6675H233.765ZM224 54.3575C224.195 56.5325 224.814 58.1225 225.856 59.1275C226.899 60.1325 228.26 60.635 229.94 60.635C230.795 60.635 231.534 60.5338 232.156 60.3313C232.779 60.1288 233.326 59.9038 233.799 59.6563C234.271 59.4088 234.699 59.1838 235.081 58.9813C235.464 58.7788 235.842 58.6775 236.217 58.6775C236.697 58.6775 237.072 58.8575 237.342 59.2175L239.143 61.4675C238.482 62.2325 237.755 62.8663 236.96 63.3688C236.165 63.8713 235.34 64.2688 234.485 64.5613C233.63 64.8538 232.768 65.0563 231.898 65.1688C231.027 65.2813 230.188 65.3375 229.378 65.3375C227.757 65.3375 226.246 65.0713 224.844 64.5388C223.441 64.0063 222.219 63.2188 221.176 62.1763C220.134 61.1338 219.313 59.84 218.713 58.295C218.112 56.75 217.812 54.9575 217.812 52.9175C217.812 51.3425 218.071 49.8575 218.589 48.4625C219.106 47.0675 219.852 45.8525 220.827 44.8175C221.803 43.7825 222.987 42.9613 224.382 42.3538C225.778 41.7463 227.352 41.4425 229.107 41.4425C230.592 41.4425 231.961 41.6788 233.214 42.1513C234.466 42.6238 235.546 43.31 236.454 44.21C237.361 45.11 238.066 46.2163 238.569 47.5288C239.071 48.8413 239.322 50.3375 239.322 52.0175C239.322 52.4825 239.3 52.865 239.255 53.165C239.21 53.465 239.135 53.705 239.03 53.885C238.925 54.065 238.783 54.1888 238.602 54.2563C238.422 54.3238 238.19 54.3575 237.905 54.3575H224Z" fill="#1B1B1B"/>
</svg>
