<svg width="256" height="104" viewBox="0 0 256 104" fill="none" xmlns="http://www.w3.org/2000/svg">
<path d="M256 0H0V104H256V0Z" fill="#005B96"/>
<path fill-rule="evenodd" clip-rule="evenodd" d="M53.9053 87.2218L53.9115 87.2257L43.3485 90.4435L43.3435 90.445L43.3454 90.4427C43.3272 90.3935 43.0278 89.5841 42.9599 89.307C42.7191 87.7302 42.5035 86.4927 43.0761 84.9552C43.5722 83.6187 44.2176 82.5532 45.1102 81.4669C43.9299 80.6499 42.7557 79.8246 41.585 78.9973C35.1907 74.4774 29.6771 68.7451 24.8369 62.6372C22.3965 59.5567 20.442 56.1369 18.7282 52.6051C17.0523 49.1545 15.5514 45.3269 15.137 41.4811C15.1142 41.2693 15.097 41.0576 15.0768 40.8472C14.9497 39.5237 15.0025 37.6967 15.0768 36.8096C15.6017 30.538 18.5714 24.8873 23.2814 20.4218C28.389 15.5781 37.057 12.5073 43.9792 14.7442L43.9707 14.7465C42.127 17.2328 45.2841 20.9435 46.9456 22.81C49.0253 25.1435 51.5033 27.1407 54.0205 28.9823C58.2135 32.0489 62.7628 34.5646 67.2647 37.1182C70.3213 38.8519 73.371 40.594 76.4291 42.3249C79.0524 43.8105 82.1161 45.5862 83.9931 48.0277C84.7444 49.004 84.9981 50.2981 84.9981 51.5925C85.0244 54.0103 84.7794 56.9958 84.2629 60.549C83.6223 65.0625 82.0869 69.2755 79.3521 72.9173L79.3474 72.932C78.1349 74.2018 77.7651 74.5376 76.1774 75.3589C75.6582 75.6293 75.1488 75.9067 74.6408 76.1897C75.4981 76.9009 76.2685 77.731 76.0444 78.4325C75.5726 79.9041 73.9064 81.251 72.8144 82.2474C71.4493 83.4906 70.0421 84.6749 68.5874 85.8129C67.3498 86.7815 62.6928 90.5276 61.1526 91H60.4762C59.4171 90.7624 58.1106 89.7233 57.3124 89.2607C56.1672 88.5975 55.033 87.9148 53.9053 87.2218ZM34.5606 19.2122C37.2261 16.7218 40.5383 15.6828 43.9671 14.7475C39.5441 17.1292 35.5883 19.5689 35.5589 25.1421C35.531 30.4539 39.0628 35.7951 42.3711 39.7404C49.1623 47.8441 57.8892 54.2211 66.5239 60.2154C67.8275 61.1201 69.1603 61.9673 70.4839 62.8264C67.9485 64.3874 65.4916 65.9797 62.996 67.6487C61.6391 66.7111 60.2873 65.7661 58.9617 64.783C52.7872 60.2042 46.7556 55.5301 41.529 49.8567C39.0186 47.1307 36.8078 44.1959 34.9919 40.964C33.1801 37.7405 31.409 34.4875 30.9932 30.751C30.5493 26.7455 31.5028 22.0714 34.5606 19.2122ZM53.9115 87.2257L52.5989 87.6268C49.8309 85.2957 48.8556 84.6318 45.1115 81.4678L53.9115 87.2257ZM74.6401 76.19L62.9954 67.6491C66.3459 69.5984 70.7399 72.1684 76.1774 75.3589C76.2785 75.3067 76.2785 75.3067 76.1774 75.3589C75.658 75.6294 75.1483 75.9069 74.6401 76.19Z" fill="white"/>
<path d="M120.5 31.6075C120.29 31.9525 120.076 32.2038 119.859 32.3613C119.641 32.5188 119.36 32.5975 119.015 32.5975C118.685 32.5975 118.329 32.4813 117.946 32.2488C117.564 32.0163 117.118 31.765 116.608 31.495C116.097 31.225 115.513 30.9738 114.852 30.7413C114.192 30.5088 113.42 30.3925 112.535 30.3925C110.975 30.3925 109.805 30.7413 109.025 31.4388C108.245 32.1363 107.855 33.0475 107.855 34.1725C107.855 34.8925 108.069 35.4888 108.496 35.9613C108.924 36.4338 109.486 36.8425 110.184 37.1875C110.881 37.5325 111.672 37.84 112.557 38.11C113.443 38.38 114.35 38.6763 115.28 38.9988C116.21 39.3213 117.117 39.7 118.003 40.135C118.888 40.57 119.679 41.1175 120.376 41.7775C121.074 42.4375 121.636 43.2438 122.064 44.1963C122.491 45.1488 122.705 46.3075 122.705 47.6725C122.705 49.1575 122.446 50.5488 121.929 51.8463C121.411 53.1438 120.665 54.2763 119.69 55.2438C118.715 56.2113 117.511 56.9725 116.079 57.5275C114.646 58.0825 113.023 58.36 111.208 58.36C110.172 58.36 109.141 58.255 108.114 58.045C107.086 57.835 106.096 57.5425 105.144 57.1675C104.191 56.7925 103.295 56.3425 102.455 55.8175C101.615 55.2925 100.88 54.7075 100.25 54.0625L102.23 50.8675C102.395 50.6275 102.612 50.4288 102.882 50.2713C103.153 50.1138 103.437 50.035 103.737 50.035C104.143 50.035 104.57 50.185 105.02 50.485C105.47 50.785 105.987 51.115 106.573 51.475C107.158 51.835 107.836 52.165 108.609 52.465C109.381 52.765 110.307 52.915 111.387 52.915C112.963 52.915 114.181 52.555 115.044 51.835C115.906 51.115 116.337 50.0425 116.337 48.6175C116.337 47.7925 116.124 47.125 115.696 46.615C115.269 46.105 114.71 45.6775 114.02 45.3325C113.33 44.9875 112.543 44.6913 111.658 44.4438C110.772 44.1963 109.865 43.9225 108.935 43.6225C108.005 43.3225 107.098 42.9625 106.213 42.5425C105.327 42.1225 104.54 41.5675 103.85 40.8775C103.16 40.1875 102.601 39.3325 102.174 38.3125C101.746 37.2925 101.533 36.025 101.533 34.51C101.533 33.295 101.772 32.1175 102.253 30.9775C102.733 29.8375 103.437 28.825 104.367 27.94C105.298 27.055 106.441 26.3425 107.799 25.8025C109.156 25.2625 110.712 24.9925 112.467 24.9925C114.433 24.9925 116.251 25.2963 117.924 25.9038C119.596 26.5113 121.01 27.355 122.165 28.435L120.5 31.6075ZM132.965 51.88C133.55 52.555 134.184 53.0275 134.866 53.2975C135.549 53.5675 136.28 53.7025 137.06 53.7025C137.81 53.7025 138.492 53.56 139.107 53.275C139.722 52.99 140.251 52.5438 140.694 51.9363C141.136 51.3288 141.477 50.5525 141.717 49.6075C141.958 48.6625 142.077 47.5375 142.077 46.2325C142.077 44.9425 141.976 43.8475 141.774 42.9475C141.571 42.0475 141.286 41.32 140.919 40.765C140.551 40.21 140.105 39.8088 139.58 39.5613C139.055 39.3138 138.47 39.19 137.825 39.19C136.73 39.19 135.811 39.4038 135.069 39.8313C134.326 40.2588 133.625 40.885 132.965 41.71V51.88ZM132.605 37.84C133.07 37.33 133.565 36.8613 134.09 36.4338C134.615 36.0063 135.177 35.6388 135.778 35.3313C136.378 35.0238 137.022 34.7838 137.713 34.6113C138.403 34.4388 139.152 34.3525 139.963 34.3525C141.208 34.3525 142.351 34.6188 143.394 35.1513C144.436 35.6838 145.332 36.4563 146.083 37.4688C146.833 38.4813 147.417 39.7225 147.838 41.1925C148.258 42.6625 148.467 44.3425 148.467 46.2325C148.467 47.9725 148.231 49.5813 147.759 51.0588C147.286 52.5363 146.615 53.815 145.745 54.895C144.875 55.975 143.829 56.8188 142.606 57.4263C141.384 58.0338 140.023 58.3375 138.522 58.3375C137.262 58.3375 136.194 58.15 135.316 57.775C134.439 57.4 133.655 56.89 132.965 56.245V65.4925H126.755V34.8025H130.58C131.36 34.8025 131.877 35.1625 132.132 35.8825L132.605 37.84ZM158.66 37.075C159.095 36.685 159.549 36.3288 160.021 36.0063C160.494 35.6838 160.996 35.4063 161.529 35.1738C162.061 34.9413 162.631 34.7613 163.239 34.6338C163.846 34.5063 164.502 34.4425 165.207 34.4425C166.468 34.4425 167.585 34.66 168.56 35.095C169.535 35.53 170.356 36.1375 171.024 36.9175C171.691 37.6975 172.194 38.6275 172.531 39.7075C172.869 40.7875 173.037 41.9725 173.037 43.2625V58H166.85V43.2625C166.85 41.9725 166.55 40.9713 165.95 40.2588C165.35 39.5463 164.465 39.19 163.295 39.19C162.425 39.19 161.608 39.3775 160.842 39.7525C160.077 40.1275 159.35 40.6525 158.66 41.3275V58H152.45V24.4525H158.66V37.075ZM192.68 43.6675C192.68 43.0225 192.594 42.4075 192.421 41.8225C192.249 41.2375 191.975 40.72 191.6 40.27C191.225 39.82 190.753 39.4638 190.183 39.2013C189.613 38.9388 188.93 38.8075 188.135 38.8075C186.65 38.8075 185.488 39.2275 184.647 40.0675C183.807 40.9075 183.26 42.1075 183.005 43.6675H192.68ZM182.915 47.3575C183.11 49.5325 183.729 51.1225 184.771 52.1275C185.814 53.1325 187.175 53.635 188.855 53.635C189.71 53.635 190.449 53.5338 191.071 53.3313C191.694 53.1288 192.241 52.9038 192.714 52.6563C193.186 52.4088 193.614 52.1838 193.996 51.9813C194.379 51.7788 194.757 51.6775 195.132 51.6775C195.613 51.6775 195.987 51.8575 196.257 52.2175L198.058 54.4675C197.397 55.2325 196.67 55.8663 195.875 56.3688C195.08 56.8713 194.255 57.2688 193.4 57.5613C192.545 57.8538 191.683 58.0563 190.812 58.1688C189.942 58.2813 189.103 58.3375 188.293 58.3375C186.672 58.3375 185.161 58.0713 183.759 57.5388C182.356 57.0063 181.134 56.2188 180.091 55.1763C179.049 54.1338 178.228 52.84 177.628 51.295C177.027 49.75 176.728 47.9575 176.728 45.9175C176.728 44.3425 176.986 42.8575 177.504 41.4625C178.021 40.0675 178.767 38.8525 179.743 37.8175C180.718 36.7825 181.902 35.9613 183.298 35.3538C184.693 34.7463 186.267 34.4425 188.022 34.4425C189.508 34.4425 190.876 34.6788 192.129 35.1513C193.381 35.6238 194.461 36.31 195.369 37.21C196.276 38.11 196.981 39.2163 197.484 40.5288C197.986 41.8413 198.238 43.3375 198.238 45.0175C198.238 45.4825 198.215 45.865 198.17 46.165C198.125 46.465 198.05 46.705 197.945 46.885C197.84 47.065 197.698 47.1888 197.518 47.2563C197.338 47.3238 197.105 47.3575 196.82 47.3575H182.915ZM207.912 38.6275C208.647 37.3075 209.495 36.265 210.455 35.5C211.415 34.735 212.54 34.3525 213.83 34.3525C214.88 34.3525 215.735 34.6 216.395 35.095L215.99 39.685C215.915 39.985 215.799 40.1913 215.641 40.3038C215.484 40.4163 215.27 40.4725 215 40.4725C214.76 40.4725 214.415 40.4388 213.965 40.3713C213.515 40.3038 213.095 40.27 212.705 40.27C212.135 40.27 211.629 40.3525 211.186 40.5175C210.744 40.6825 210.35 40.915 210.005 41.215C209.66 41.515 209.349 41.8825 209.071 42.3175C208.794 42.7525 208.535 43.2475 208.295 43.8025V58H202.085V34.8025H205.753C206.383 34.8025 206.818 34.915 207.058 35.14C207.298 35.365 207.47 35.755 207.575 36.31L207.912 38.6275ZM233.765 43.6675C233.765 43.0225 233.679 42.4075 233.506 41.8225C233.334 41.2375 233.06 40.72 232.685 40.27C232.31 39.82 231.838 39.4638 231.268 39.2013C230.697 38.9388 230.015 38.8075 229.22 38.8075C227.735 38.8075 226.573 39.2275 225.732 40.0675C224.892 40.9075 224.345 42.1075 224.09 43.6675H233.765ZM224 47.3575C224.195 49.5325 224.814 51.1225 225.856 52.1275C226.899 53.1325 228.26 53.635 229.94 53.635C230.795 53.635 231.534 53.5338 232.156 53.3313C232.779 53.1288 233.326 52.9038 233.799 52.6563C234.271 52.4088 234.699 52.1838 235.081 51.9813C235.464 51.7788 235.842 51.6775 236.217 51.6775C236.697 51.6775 237.072 51.8575 237.342 52.2175L239.143 54.4675C238.482 55.2325 237.755 55.8663 236.96 56.3688C236.165 56.8713 235.34 57.2688 234.485 57.5613C233.63 57.8538 232.768 58.0563 231.898 58.1688C231.027 58.2813 230.188 58.3375 229.378 58.3375C227.757 58.3375 226.246 58.0713 224.844 57.5388C223.441 57.0063 222.219 56.2188 221.176 55.1763C220.134 54.1338 219.313 52.84 218.713 51.295C218.112 49.75 217.812 47.9575 217.812 45.9175C217.812 44.3425 218.071 42.8575 218.589 41.4625C219.106 40.0675 219.852 38.8525 220.827 37.8175C221.803 36.7825 222.987 35.9613 224.382 35.3538C225.778 34.7463 227.352 34.4425 229.107 34.4425C230.592 34.4425 231.961 34.6788 233.214 35.1513C234.466 35.6238 235.546 36.31 236.454 37.21C237.361 38.11 238.066 39.2163 238.569 40.5288C239.071 41.8413 239.322 43.3375 239.322 45.0175C239.322 45.4825 239.3 45.865 239.255 46.165C239.21 46.465 239.135 46.705 239.03 46.885C238.925 47.065 238.783 47.1888 238.602 47.2563C238.422 47.3238 238.19 47.3575 237.905 47.3575H224ZM161.779 72.812C161.634 72.812 161.487 72.7463 161.323 72.6259C161.209 72.5418 161.051 72.4448 160.851 72.3361C160.659 72.2315 160.416 72.1351 160.124 72.0481C159.841 71.964 159.49 71.921 159.073 71.921C158.704 71.921 158.371 71.9735 158.072 72.0776C157.772 72.1818 157.52 72.3198 157.313 72.4908C157.109 72.6593 156.953 72.8533 156.844 73.074C156.736 73.2928 156.683 73.5208 156.683 73.761C156.683 74.0527 156.754 74.2848 156.895 74.466C157.05 74.6665 157.254 74.8394 157.509 74.985C157.775 75.1372 158.084 75.2697 158.434 75.3819C158.8 75.499 159.172 75.6161 159.549 75.7333C159.932 75.8524 160.31 75.9845 160.682 76.1296C161.069 76.2807 161.414 76.4695 161.715 76.6963C162.024 76.9294 162.276 77.2155 162.469 77.553C162.668 77.9011 162.766 78.3177 162.766 78.799C162.766 79.3077 162.676 79.7836 162.494 80.225C162.312 80.6694 162.043 81.0555 161.69 81.3809C161.339 81.7045 160.909 81.9596 160.403 82.1465C159.897 82.3333 159.321 82.426 158.677 82.426C157.874 82.426 157.176 82.2969 156.585 82.0363C156.004 81.78 155.483 81.4447 155.023 81.0308L154.864 80.8882L154.98 80.7092L155.22 80.3385C155.276 80.2487 155.345 80.1769 155.427 80.1261C155.519 80.0698 155.628 80.045 155.751 80.045C155.919 80.045 156.084 80.129 156.261 80.2819C156.384 80.3886 156.554 80.5071 156.77 80.6358C156.982 80.7623 157.248 80.882 157.566 80.9942C157.871 81.1012 158.256 81.156 158.721 81.156C159.155 81.156 159.533 81.0964 159.856 80.9786C160.178 80.8614 160.442 80.7046 160.651 80.5086C160.859 80.3133 161.017 80.0848 161.124 79.8212C161.233 79.5544 161.287 79.2729 161.287 78.975C161.287 78.6586 161.214 78.4058 161.071 78.2091C160.916 77.9955 160.71 77.8131 160.453 77.6614C160.183 77.5024 159.876 77.3668 159.53 77.2549C159.168 77.1379 158.797 77.021 158.416 76.904C158.03 76.785 157.652 76.6548 157.284 76.5134C156.9 76.3661 156.556 76.1792 156.251 75.9526C155.938 75.7197 155.684 75.4356 155.491 75.1017C155.291 74.7564 155.193 74.3341 155.193 73.838C155.193 73.4124 155.286 73.0022 155.47 72.6098C155.653 72.2187 155.915 71.8754 156.252 71.5815C156.588 71.289 156.995 71.0573 157.47 70.8858C157.946 70.7143 158.477 70.629 159.062 70.629C159.758 70.629 160.379 70.729 160.925 70.9305C161.474 71.1328 161.973 71.4438 162.422 71.862L162.571 72.0006L162.247 72.5352C162.145 72.7121 161.98 72.812 161.779 72.812ZM170.249 70.629C171.067 70.629 171.802 70.7693 172.455 71.051C173.109 71.3335 173.662 71.7353 174.112 72.2554C174.56 72.7729 174.901 73.3947 175.134 74.1187C175.366 74.8377 175.482 75.6389 175.482 76.522C175.482 77.4052 175.366 78.2048 175.134 78.9202C174.901 79.6405 174.56 80.2603 174.112 80.7776C173.662 81.298 173.108 81.6982 172.453 81.977C171.802 82.2548 171.066 82.393 170.249 82.393C169.432 82.393 168.696 82.2548 168.045 81.977C167.39 81.6984 166.835 81.2984 166.381 80.7784C165.929 80.2609 165.587 79.6408 165.353 78.9202C165.121 78.2048 165.005 77.4052 165.005 76.522C165.005 75.6389 165.121 74.8377 165.353 74.1187C165.586 73.3943 165.929 72.7722 166.381 72.2546C166.835 71.7349 167.39 71.3333 168.043 71.051C168.696 70.7693 169.431 70.629 170.249 70.629ZM170.249 81.068C170.867 81.068 171.402 80.9631 171.855 80.7553C172.307 80.5482 172.682 80.2525 172.983 79.8662C173.289 79.4753 173.518 79.0011 173.671 78.4416C173.826 77.8738 173.904 77.234 173.904 76.522C173.904 75.8173 173.826 75.1792 173.671 74.6075C173.518 74.0442 173.288 73.5662 172.983 73.1715C172.681 72.7814 172.306 72.4821 171.854 72.2716C171.401 72.0605 170.867 71.954 170.249 71.954C169.631 71.954 169.097 72.0605 168.644 72.2716C168.192 72.4821 167.817 72.7814 167.515 73.1715C167.209 73.5665 166.978 74.0451 166.821 74.6089C166.663 75.1802 166.583 75.8178 166.583 76.522C166.583 77.2335 166.663 77.8729 166.821 78.4402C166.978 79.0002 167.209 79.4749 167.515 79.8662C167.816 80.2525 168.191 80.5482 168.643 80.7553C169.096 80.9631 169.631 81.068 170.249 81.068ZM180.526 82.25H178.97V72.4334L177.653 72.3486C177.331 72.3141 177.122 72.1274 177.122 71.825V71.146H178.97V70.01C178.97 69.3606 179.055 68.7854 179.225 68.2848C179.398 67.7797 179.643 67.3549 179.961 67.0127C180.28 66.6694 180.664 66.4114 181.11 66.2401C181.551 66.0711 182.036 65.987 182.564 65.987C182.806 65.987 183.049 66.0084 183.294 66.0512C183.542 66.0944 183.766 66.1558 183.966 66.2359L184.134 66.3033L184.122 66.4843L184.084 67.0282C184.052 67.1703 183.969 67.2826 183.836 67.3339C183.751 67.3665 183.652 67.3773 183.533 67.3723C183.436 67.3683 183.315 67.3566 183.169 67.3374C183.042 67.3206 182.891 67.312 182.718 67.312C182.386 67.312 182.082 67.3607 181.805 67.4575C181.539 67.5506 181.311 67.6988 181.118 67.904C180.925 68.11 180.773 68.3837 180.663 68.7278C180.55 69.0785 180.493 69.5172 180.493 70.043V71.146H183.533V72.427H180.526V82.25ZM188.406 79.569C188.406 79.8428 188.44 80.0733 188.507 80.2607C188.572 80.4444 188.66 80.5912 188.77 80.7036C188.879 80.8158 189.006 80.8976 189.154 80.9508C189.309 81.0068 189.479 81.035 189.663 81.035C189.897 81.035 190.093 81.0018 190.251 80.9377C190.427 80.8666 190.578 80.7897 190.703 80.7077C190.833 80.6218 190.938 80.5441 191.016 80.4754C191.146 80.3616 191.261 80.298 191.39 80.298C191.537 80.298 191.66 80.3748 191.779 80.5264L192.164 81.1483L192.037 81.2877C191.734 81.6229 191.351 81.8909 190.89 82.0917C190.43 82.2924 189.95 82.393 189.454 82.393C188.651 82.393 188.01 82.1651 187.546 81.7046C187.078 81.2411 186.85 80.5432 186.85 79.624V72.394H185.527C185.389 72.394 185.265 72.3527 185.166 72.2678C185.057 72.1737 185.002 72.0413 185.002 71.891V71.251L186.887 71.118L187.142 67.3818C187.166 67.2757 187.213 67.1798 187.284 67.0973C187.378 66.9875 187.511 66.933 187.661 66.933H188.406V71.113H191.86V72.394H188.406V79.569ZM204.858 79.8773L207.644 71.2336C207.69 71.1065 207.768 71.0013 207.876 70.9238C207.985 70.8447 208.114 70.805 208.253 70.805H209.359L205.54 82.25H204.579C204.332 82.25 204.158 82.0912 204.089 81.8488L201.163 73.1567L198.197 81.8377C198.125 82.0927 197.945 82.25 197.693 82.25H196.765L192.946 70.805H194.085C194.244 70.805 194.385 70.8511 194.498 70.9455C194.598 71.0288 194.67 71.1272 194.708 71.2429L197.473 79.8909C197.474 79.8966 197.476 79.9024 197.477 79.9081C197.481 79.8969 197.485 79.8857 197.489 79.8744L200.414 71.1662C200.497 70.9043 200.693 70.75 200.96 70.75H201.389C201.661 70.75 201.862 70.9028 201.945 71.163L204.851 79.8812C204.852 79.8844 204.853 79.8875 204.854 79.8906C204.855 79.8862 204.857 79.8818 204.858 79.8773ZM217.683 74.872C217.683 73.9123 217.48 73.1875 217.083 72.6905C216.697 72.2074 216.123 71.965 215.337 71.965C214.839 71.965 214.42 72.0333 214.082 72.1674C213.728 72.3076 213.431 72.4605 213.19 72.6252C212.942 72.7952 212.742 72.9498 212.59 73.088C212.387 73.2726 212.201 73.373 212.015 73.373C211.885 73.373 211.769 73.3406 211.672 73.2715C211.593 73.2153 211.527 73.1433 211.469 73.0514L211.185 72.5658L211.321 72.4292C211.913 71.8373 212.538 71.3875 213.197 71.0813C213.862 70.772 214.612 70.618 215.447 70.618C216.066 70.618 216.612 70.7175 217.085 70.9184C217.561 71.1208 217.958 71.4123 218.274 71.7917C218.586 72.167 218.82 72.619 218.976 73.1455C219.13 73.6646 219.206 74.2402 219.206 74.872V82.25H218.538C218.205 82.25 217.968 82.0708 217.882 81.7192L217.783 80.809C217.6 80.974 217.417 81.1284 217.235 81.2722C216.925 81.5173 216.601 81.7245 216.263 81.8936C215.922 82.0638 215.556 82.195 215.163 82.2874C214.77 82.38 214.34 82.426 213.874 82.426C213.475 82.426 213.087 82.3672 212.71 82.2496C212.328 82.13 211.985 81.9459 211.685 81.6977C211.381 81.446 211.138 81.1244 210.958 80.7357C210.776 80.3448 210.687 79.8821 210.687 79.349C210.687 78.8373 210.834 78.3601 211.125 77.9233C211.414 77.4892 211.861 77.1177 212.461 76.8062C213.048 76.5009 213.794 76.2591 214.7 76.0788C215.54 75.9115 216.534 75.8097 217.683 75.7729V74.872ZM215.286 77.2029C214.553 77.328 213.954 77.4965 213.487 77.7069C213.034 77.9112 212.706 78.1495 212.499 78.4182C212.298 78.6786 212.199 78.9714 212.199 79.305C212.199 79.6379 212.253 79.9203 212.358 80.1535C212.465 80.3886 212.604 80.5787 212.777 80.7265C212.952 80.8763 213.155 80.9862 213.386 81.0569C213.626 81.1303 213.877 81.167 214.138 81.167C214.543 81.167 214.913 81.1236 215.247 81.0374C215.583 80.9508 215.894 80.8299 216.18 80.6747C216.469 80.5183 216.738 80.3323 216.989 80.1166C217.223 79.915 217.454 79.6984 217.683 79.4669V76.969C216.762 77.0093 215.963 77.0874 215.286 77.2029ZM224.37 72.3696C224.6 72.0001 224.866 71.6853 225.168 71.4262C225.473 71.1649 225.814 70.9645 226.19 70.8259C226.567 70.687 226.983 70.618 227.437 70.618C227.679 70.618 227.918 70.6395 228.153 70.6826C228.402 70.7283 228.625 70.8104 228.821 70.9295L228.959 71.0132L228.939 71.1731L228.842 71.9436C228.774 72.1596 228.613 72.295 228.394 72.295C228.277 72.295 228.124 72.2656 227.924 72.2084C227.769 72.1643 227.555 72.141 227.283 72.141C226.888 72.141 226.543 72.1999 226.247 72.3162C225.952 72.432 225.688 72.6058 225.451 72.839C225.21 73.0764 224.998 73.372 224.816 73.7269C224.628 74.0922 224.455 74.5146 224.31 74.916V82.25H222.754V70.805H223.565C223.75 70.805 223.899 70.8486 224.006 70.9552C224.104 71.0533 224.156 71.1915 224.178 71.3876L224.219 72.6267C224.268 72.5384 224.319 72.4527 224.37 72.3696ZM232.23 78.3959C232.411 78.9886 232.667 79.4814 232.997 79.8763C233.324 80.2677 233.717 80.5609 234.179 80.7581C234.646 80.957 235.17 81.057 235.753 81.057C236.28 81.057 236.733 80.9995 237.111 80.8861C237.499 80.7698 237.822 80.6404 238.081 80.4992C238.346 80.3541 238.554 80.2244 238.705 80.1115C238.908 79.9591 239.062 79.88 239.207 79.88C239.382 79.88 239.533 79.9552 239.621 80.0824L240.034 80.5908L239.908 80.7482C239.715 80.9898 239.462 81.2124 239.152 81.4168C238.847 81.6177 238.508 81.7891 238.136 81.9311C237.766 82.0719 237.372 82.1839 236.951 82.2672C236.528 82.3511 236.103 82.393 235.676 82.393C234.895 82.393 234.18 82.2565 233.533 81.9828C232.882 81.7079 232.323 81.3062 231.859 80.7794C231.395 80.2545 231.04 79.6143 230.791 78.8608C230.544 78.1118 230.421 77.2588 230.421 76.302C230.421 75.4909 230.537 74.7399 230.77 74.0497C231.004 73.3554 231.343 72.7544 231.787 72.2486C232.232 71.7407 232.779 71.3433 233.424 71.0574C234.07 70.7714 234.799 70.629 235.61 70.629C236.257 70.629 236.861 70.7412 237.419 70.9661C237.98 71.192 238.468 71.522 238.882 71.9549C239.294 72.387 239.618 72.9164 239.853 73.5409C240.088 74.1646 240.205 74.8762 240.205 75.675C240.205 75.886 240.174 76.0419 240.089 76.155C239.992 76.2837 239.844 76.343 239.669 76.343H231.955C231.958 77.1238 232.05 77.808 232.23 78.3959ZM238.526 73.927C238.372 73.4927 238.157 73.1283 237.88 72.8314C237.604 72.535 237.276 72.308 236.894 72.1493C236.511 71.99 236.088 71.91 235.621 71.91C235.086 71.91 234.611 71.9926 234.195 72.1567C233.779 72.32 233.422 72.5538 233.12 72.8588C232.816 73.166 232.572 73.5357 232.386 73.9695C232.23 74.3328 232.117 74.7335 232.047 75.172H238.754C238.734 74.7131 238.657 74.2983 238.526 73.927Z" fill="white"/>
</svg>
