<svg xmlns="http://www.w3.org/2000/svg" xmlns:xlink="http://www.w3.org/1999/xlink" width="256" height="104" viewBox="0 0 256 104">
  <defs>
    <linearGradient id="logo-sphere-single-a" x1="92.05%" x2="10.463%" y1="58.199%" y2="45.653%">
      <stop offset="0%" stop-color="#FFF"/>
      <stop offset="41.21%" stop-color="#BBBCBE"/>
      <stop offset="100%"/>
    </linearGradient>
    <linearGradient id="logo-sphere-single-c" x1=".136%" x2="100.13%" y1="50%" y2="50%">
      <stop offset="0%" stop-color="#FFFFFE"/>
      <stop offset="100%" stop-color="#777978"/>
    </linearGradient>
    <path id="logo-sphere-single-b" d="M59.6428,62.1222 C60.151,61.8394 60.6606,61.5622 61.18,61.292 C62.7676,60.4716 63.1373772,60.1361419 64.3497772,58.8677419 L65.1462,56.3486 L56.9142,47.9038 C53.8664,49.742 50.96,51.6124 47.999,53.5906 L59.6428,62.1222 Z"/>
    <linearGradient id="logo-sphere-single-d" x1="61.479%" x2="38.149%" y1="19.506%" y2="77.879%">
      <stop offset="0%" stop-color="#201C60"/>
      <stop offset="61.82%" stop-color="#13C0E8"/>
      <stop offset="100%" stop-color="#13C0E8"/>
    </linearGradient>
    <linearGradient id="logo-sphere-single-e" x1="27.967%" x2="90.025%" y1="51.544%" y2="50%">
      <stop offset="0%" stop-color="#2CAFDD"/>
      <stop offset="27.369%" stop-color="#3290C3"/>
      <stop offset="46.234%" stop-color="#3371A9"/>
      <stop offset="64.638%" stop-color="#305490"/>
      <stop offset="82.123%" stop-color="#293878"/>
      <stop offset="100%" stop-color="#201C60"/>
      <stop offset="100%" stop-color="#201C60"/>
      <stop offset="100%" stop-color="#201C60"/>
      <stop offset="100%" stop-color="#201C60"/>
      <stop offset="100%" stop-color="#201C60"/>
      <stop offset="100%" stop-color="#201C60"/>
      <stop offset="100%" stop-color="#201C60"/>
    </linearGradient>
    <linearGradient id="logo-sphere-single-f" x1="27.764%" x2="65.43%" y1="6.375%" y2="100.305%">
      <stop offset="0%" stop-color="#201C60"/>
      <stop offset="16.36%" stop-color="#13C0E8"/>
      <stop offset="84.85%" stop-color="#13C0E8"/>
    </linearGradient>
    <linearGradient id="logo-sphere-single-h" x1="37.742%" y1="50%" y2="50%">
      <stop offset="0%" stop-color="#2CAFDD"/>
      <stop offset="31.269%" stop-color="#3290C3"/>
      <stop offset="52.6%" stop-color="#3371A9"/>
      <stop offset="68.281%" stop-color="#305490"/>
      <stop offset="82.66%" stop-color="#293878"/>
      <stop offset="100%" stop-color="#201C60"/>
      <stop offset="100%" stop-color="#201C60"/>
      <stop offset="100%" stop-color="#201C60"/>
      <stop offset="100%" stop-color="#201C60"/>
      <stop offset="100%" stop-color="#201C60"/>
      <stop offset="100%" stop-color="#201C60"/>
      <stop offset="100%" stop-color="#201C60"/>
    </linearGradient>
    <path id="logo-sphere-single-g" d="M24.0394,1.05 C18.8384,1.05 12.9388,3.4552 9.0104,7.1764 C3.1612,12.7162 0.3836,19.8758 1.1886,27.3378 C1.526,30.478 2.6362,33.8982 4.6788,38.1052 C6.629,42.1162 8.5316,45.2382 10.6666,47.9318 C16.0818,54.7596 21.4886,60.039 27.195,64.0682 C30.3212,66.2746 33.9696,68.8254 37.7216,71.1704 C39.7642,72.4472 41.3434,73.4034 42.8428,74.27 C43.0766,74.4044 43.351,74.585 43.6492,74.7838 C44.289,75.2066 45.3614,75.915 45.8878,75.915 C46.2014,75.8422 47.5762,75.1324 52.507,71.2516 L52.9452,70.9058 C54.3886,69.7788 55.79,68.5972 57.1102,67.3974 L57.5288,67.0194 C58.4388,66.2074 59.6792,65.1014 60.0306,64.0892 C59.899,63.581 58.4248,62.4946 57.9348,62.1334 C57.701,61.9626 57.4966,61.8086 57.3398,61.684 C56.014,60.6186 54.5692,59.5196 52.794,58.2246 C51.3492,57.1718 49.8484,56.1386 48.3966,55.139 C46.7278,53.9896 45.0044,52.8038 43.3412,51.5718 C37.4192,47.1842 31.1836,42.4088 25.7628,36.5288 C23.0482,33.586 20.8628,30.6166 19.082,27.4498 C17.36,24.388 15.4084,20.9188 14.9562,16.849 C14.4032,11.8706 15.8592,7.2324 18.8496,4.4394 C20.5422,2.8602 22.456,1.834 24.4874,1.0556 C24.339,1.0514 24.1892,1.05 24.0394,1.05 Z"/>
  </defs>
  <g fill="none" fill-rule="evenodd">
    <rect width="256" height="104" fill="#FFF" fill-rule="nonzero"/>
    <g transform="translate(15 14)">
      <path fill="#21211F" d="M30.1812,67.3134 L36.8998,71.1816 C36.8998,71.1816 29.4966,75.5664 28.3514,76.3616 C28.3514,76.3616 28.035,75.5104 27.965,75.2248 C27.7242,73.6498 27.5086,72.4136 28.0812,70.8778 C28.5894,69.51 29.2544,68.4264 30.1812,67.3134"/>
      <polyline fill="url(#logo-sphere-single-a)" points="36.165 71.429 31.304 72.776 28.349 76.362 38.916 73.146 36.165 71.429"/>
      <use fill="url(#logo-sphere-single-c)" xlink:href="#logo-sphere-single-b"/>
      <path d="M70,37.5368191 L70,37.5634091 C69.9991787,38.5133115 69.9108581,39.470212 69.902,40.32 C69.8796,42.3948 69.6444,44.443 69.3504,46.4982 C68.7078,51.0132 67.1664,55.2272 64.4196,58.8686 C64.7472,57.47 64.7864,56.6902 63.9534,55.671 C62.9118,54.3956 61.7834,53.2966 60.5038,52.2648 C57.68,49.9828 54.5552,48.223 51.5816,46.165 C42.9324,40.1772 34.1908,33.8072 27.3882,25.7124 C24.0744,21.7714 20.5366,16.436 20.5646,11.13 C20.594,5.5608 24.6106,3.0898 29.043,0.7098 C27.1936,3.1934 30.3058,6.9356 31.9704,8.8004 C34.0536,11.1314 36.5358,13.1264 39.0572,14.966 C43.2572,18.0292 47.8142,20.5422 52.3236,23.093 C55.3854,24.8248 58.4402,26.565 61.5034,28.294 C64.1312,29.778 67.2,31.5518 69.0802,33.9906 C69.8326961,34.96579 69.9988752,36.2438335 70,37.5368191 L70,37.5368191 Z"/>
      <path fill="url(#logo-sphere-single-d)" d="M69.264865,46.4982 C68.6233916,51.0132 67.0846941,55.2272 64.34271,58.8686 C64.6697356,57.47 64.7088669,56.6902 63.8773274,55.671 C62.8375536,54.3956 61.711132,53.2966 60.4337755,52.2648 C57.6149264,49.9828 54.495605,48.223 51.5272185,46.165 C42.8931829,40.1772 34.1669093,33.8072 27.3762361,25.7124 C24.0682461,21.7714 20.5366488,16.436 20.5645997,11.13 C20.5939482,5.5608 24.5523622,3.12407043 28.976991,0.744070435 C27.1308335,3.22767043 30.2887207,6.9356 31.9504023,8.8004 C34.0299498,11.1314 36.5077979,13.1264 39.0247772,14.966 C43.2174134,18.0292 47.7664238,20.5422 52.2679176,23.093 C55.3243494,24.8248 58.3737935,26.565 61.4316229,28.294 C64.0548157,29.778 67.1182352,31.5518 68.9951387,33.9906 C69.7463155,34.96579 70,36.2585621 70,37.5515483 C70.0263446,39.9667186 69.7812996,42.9489359 69.264865,46.4982 Z"/>
      <path fill="url(#logo-sphere-single-e)" d="M27.4307404,2.8098 C24.0305124,4.8342 21.633722,7.0574 21.6127588,11.1356 C21.5917956,15.1424 23.7999174,19.8198 28.1784272,25.0362 C34.9551249,33.1128 43.7233249,39.4758 52.1239704,45.3012 C53.1665393,46.025 54.2538296,46.7264 55.3047838,47.4054 C57.2361915,48.6528 59.2346815,49.9436 61.0934169,51.4472 C62.4686016,52.5616 63.6453348,53.725 64.6893013,55.006 C64.8821625,55.2412 65.0372901,55.4708 65.1644667,55.6962 C66.7059593,52.9522 67.7331552,49.8218 68.2278863,46.3498 C68.6656442,43.1666542 68.9299406,40.6898343 68.9299406,38.8137303 C68.9299406,37.1643255 68.9839583,35.6944 68.1663943,34.6318 C66.3607656,32.2882 63.2148909,30.5088 60.9159286,29.2082 C59.2318864,28.2562 57.5492417,27.3 55.8651995,26.3424 L51.7522233,24.0072 L50.711052,23.4178 C46.588293,21.0882 42.3257795,18.6774 38.4084596,15.8144 C36.2604323,14.245 33.4960875,12.1086 31.1691744,9.499 C30.1671343,8.3762 27.6459624,5.5482 27.4307404,2.8098 Z"/>
      <path fill="url(#logo-sphere-single-f)" d="M42.3164,75.1786 C40.579,74.1734 38.8668,73.1234 37.1644,72.0608 C33.5608,69.8082 30.0608,67.3764 26.5902,64.9264 C20.1964,60.4114 14.6832,54.6854 9.8434,48.5842 C7.4032,45.507 5.4488,42.091 3.7352,38.563 C2.0594,35.1162 0.5586,31.2928 0.1442,27.4512 C0.121397334,27.2395913 0.104204994,27.0280828 0.0839999801,26.8179161 C-0.0430932348,25.4959291 0.00976149368,23.6708332 0.084,22.7847836 C0.608903584,16.5199676 3.57839392,10.8754649 8.288,6.4148 C13.3952,1.5764 22.0626,-1.491 28.9842,0.7434 C25.5514,1.6786 22.2348,2.716 19.5664,5.2066 C16.5088,8.0626 15.5554,12.7316 15.9992,16.7328 C16.415,20.4652 18.186,23.7146 19.9976,26.9346 C21.8134,30.163 24.024,33.0946 26.5342,35.8176 C31.7604,41.4848 37.7916,46.1538 43.9656,50.7276 C47.061,53.0208 50.2992,55.1068 53.4114,57.3748 C54.9654,58.5074 56.4998,59.661 57.9978,60.8664 C58.8812,61.5748 61.432,63.1582 61.047,64.3622 C60.5752,65.8322 58.9092,67.1776 57.8172,68.173 C56.4522,69.4148 55.0452,70.5978 53.5906,71.7346 C52.3530199,72.702115 47.6964339,76.4441194 46.156336,76.916 L45.479989,76.916 C44.4209642,76.6786104 43.1145956,75.6407133 42.3164,75.1786 Z"/>
      <use fill="url(#logo-sphere-single-h)" xlink:href="#logo-sphere-single-g"/>
    </g>
    <path fill="#005B96" fill-rule="nonzero" d="M21.5,17.6075 C21.289999,17.9525017 21.0762511,18.2037492 20.85875,18.36125 C20.6412489,18.5187508 20.3600017,18.5975 20.015,18.5975 C19.6849984,18.5975 19.3287519,18.4812512 18.94625,18.24875 C18.5637481,18.0162488 18.1175026,17.7650014 17.6075,17.495 C17.0974975,17.2249987 16.5125033,16.9737512 15.8525,16.74125 C15.1924967,16.5087488 14.4200044,16.3925 13.535,16.3925 C11.9749922,16.3925 10.8050039,16.7412465 10.025,17.43875 C9.2449961,18.1362535 8.855,19.0474944 8.855,20.1725 C8.855,20.8925036 9.06874786,21.4887476 9.49625,21.96125 C9.92375214,22.4337524 10.4862465,22.8424983 11.18375,23.1875 C11.8812535,23.5325017 12.6724956,23.8399987 13.5575,24.11 C14.4425044,24.3800014 15.3499954,24.6762484 16.28,24.99875 C17.2100047,25.3212516 18.1174956,25.6999978 19.0025,26.135 C19.8875044,26.5700022 20.6787465,27.1174967 21.37625,27.7775 C22.0737535,28.4375033 22.6362479,29.2437452 23.06375,30.19625 C23.4912521,31.1487548 23.705,32.3074932 23.705,33.6725 C23.705,35.1575074 23.4462526,36.5487435 22.92875,37.84625 C22.4112474,39.1437565 21.6650049,40.2762452 20.69,41.24375 C19.7149951,42.2112548 18.5112572,42.9724972 17.07875,43.5275 C15.6462428,44.0825028 14.0225091,44.36 12.2075,44.36 C11.1724948,44.36 10.1412551,44.255001 9.11375,44.045 C8.08624486,43.8349989 7.09625476,43.5425019 6.14375,43.1675 C5.19124524,42.7924981 4.2950042,42.3425026 3.455,41.8175 C2.6149958,41.2924974 1.88000315,40.7075032 1.25,40.0625 L3.23,36.8675 C3.39500083,36.6274988 3.61249865,36.4287508 3.8825,36.27125 C4.15250135,36.1137492 4.4374985,36.035 4.7375,36.035 C5.14250203,36.035 5.56999775,36.1849985 6.02,36.485 C6.47000225,36.7850015 6.98749708,37.1149982 7.5725,37.475 C8.15750293,37.8350018 8.83624614,38.1649985 9.60875,38.465 C10.3812539,38.7650015 11.3074946,38.915 12.3875,38.915 C13.9625079,38.915 15.1812457,38.5550036 16.04375,37.835 C16.9062543,37.1149964 17.3375,36.0425071 17.3375,34.6175 C17.3375,33.7924959 17.1237521,33.1250026 16.69625,32.615 C16.2687479,32.1049974 15.7100035,31.6775017 15.02,31.3325 C14.3299966,30.9874983 13.5425044,30.6912512 12.6575,30.44375 C11.7724956,30.1962488 10.8650047,29.9225015 9.935,29.6225 C9.00499535,29.3224985 8.09750443,28.9625021 7.2125,28.5425 C6.32749558,28.1224979 5.54000345,27.5675035 4.85,26.8775 C4.15999655,26.1874966 3.60125214,25.3325051 3.17375,24.3125 C2.74624786,23.2924949 2.5325,22.0250076 2.5325,20.51 C2.5325,19.2949939 2.7724976,18.1175057 3.2525,16.9775 C3.7325024,15.8374943 4.43749535,14.8250044 5.3675,13.94 C6.29750465,13.0549956 7.44124321,12.3425027 8.79875,11.8025 C10.1562568,11.2624973 11.7124912,10.9925 13.4675,10.9925 C15.4325098,10.9925 17.2512416,11.296247 18.92375,11.90375 C20.5962584,12.511253 22.0099942,13.3549946 23.165,14.435 L21.5,17.6075 Z M33.965,37.88 C34.5500029,38.5550034 35.1837466,39.0274986 35.86625,39.2975 C36.5487534,39.5675014 37.2799961,39.7025 38.06,39.7025 C38.8100038,39.7025 39.4924969,39.5600014 40.1075,39.275 C40.7225031,38.9899986 41.2512478,38.543753 41.69375,37.93625 C42.1362522,37.328747 42.4774988,36.5525047 42.7175,35.6075 C42.9575012,34.6624953 43.0775,33.5375065 43.0775,32.2325 C43.0775,30.9424936 42.976251,29.8475045 42.77375,28.9475 C42.571249,28.0474955 42.2862518,27.3200028 41.91875,26.765 C41.5512482,26.2099972 41.1050026,25.8087512 40.58,25.56125 C40.0549974,25.3137488 39.4700032,25.19 38.825,25.19 C37.7299945,25.19 36.8112537,25.4037479 36.06875,25.83125 C35.3262463,26.2587521 34.6250033,26.8849959 33.965,27.71 L33.965,37.88 Z M33.605,23.84 C34.0700023,23.3299975 34.5649974,22.8612521 35.09,22.43375 C35.6150026,22.0062479 36.177497,21.6387515 36.7775,21.33125 C37.377503,21.0237485 38.0224966,20.7837509 38.7125,20.61125 C39.4025035,20.4387491 40.152496,20.3525 40.9625,20.3525 C42.2075062,20.3525 43.3512448,20.6187473 44.39375,21.15125 C45.4362552,21.6837527 46.3324963,22.4562449 47.0825,23.46875 C47.8325038,24.4812551 48.4174979,25.7224926 48.8375,27.1925 C49.2575021,28.6625073 49.4675,30.3424906 49.4675,32.2325 C49.4675,33.9725087 49.2312524,35.5812426 48.75875,37.05875 C48.2862476,38.5362574 47.6150044,39.8149946 46.745,40.895 C45.8749957,41.9750054 44.8287561,42.818747 43.60625,43.42625 C42.3837439,44.033753 41.0225075,44.3375 39.5225,44.3375 C38.2624937,44.3375 37.1937544,44.1500019 36.31625,43.775 C35.4387456,43.3999981 34.6550035,42.8900032 33.965,42.245 L33.965,51.4925 L27.755,51.4925 L27.755,20.8025 L31.58,20.8025 C32.3600039,20.8025 32.8774987,21.1624964 33.1325,21.8825 L33.605,23.84 Z M59.66,23.075 C60.0950022,22.6849981 60.5487476,22.3287516 61.02125,22.00625 C61.4937524,21.6837484 61.9962473,21.4062512 62.52875,21.17375 C63.0612527,20.9412488 63.631247,20.7612506 64.23875,20.63375 C64.846253,20.5062494 65.5024965,20.4425 66.2075,20.4425 C67.4675063,20.4425 68.5849951,20.6599978 69.56,21.095 C70.5350049,21.5300022 71.3562467,22.1374961 72.02375,22.9175 C72.6912533,23.6975039 73.1937483,24.6274946 73.53125,25.7075 C73.8687517,26.7875054 74.0375,27.9724936 74.0375,29.2625 L74.0375,44 L67.85,44 L67.85,29.2625 C67.85,27.9724936 67.550003,26.9712536 66.95,26.25875 C66.349997,25.5462464 65.4650058,25.19 64.295,25.19 C63.4249957,25.19 62.6075038,25.3774981 61.8425,25.7525 C61.0774962,26.1275019 60.3500035,26.6524966 59.66,27.3275 L59.66,44 L53.45,44 L53.45,10.4525 L59.66,10.4525 L59.66,23.075 Z M93.68,29.6675 C93.68,29.0224968 93.5937509,28.4075029 93.42125,27.8225 C93.2487491,27.2374971 92.9750019,26.7200023 92.6,26.27 C92.2249981,25.8199978 91.7525028,25.4637513 91.1825,25.20125 C90.6124972,24.9387487 89.930004,24.8075 89.135,24.8075 C87.6499926,24.8075 86.4875042,25.2274958 85.6475,26.0675 C84.8074958,26.9075042 84.2600013,28.1074922 84.005,29.6675 L93.68,29.6675 Z M83.915,33.3575 C84.110001,35.5325109 84.7287448,37.122495 85.77125,38.1275 C86.8137552,39.132505 88.1749916,39.635 89.855,39.635 C90.7100043,39.635 91.4487469,39.533751 92.07125,39.33125 C92.6937531,39.128749 93.2412476,38.9037512 93.71375,38.65625 C94.1862524,38.4087488 94.6137481,38.183751 94.99625,37.98125 C95.3787519,37.778749 95.7574981,37.6775 96.1325,37.6775 C96.6125024,37.6775 96.9874987,37.8574982 97.2575,38.2175 L99.0575,40.4675 C98.3974967,41.2325038 97.670004,41.8662475 96.875,42.36875 C96.079996,42.8712525 95.2550043,43.2687485 94.4,43.56125 C93.5449957,43.8537515 92.6825044,44.0562494 91.8125,44.16875 C90.9424956,44.2812506 90.1025041,44.3375 89.2925,44.3375 C87.6724919,44.3375 86.161257,44.0712527 84.75875,43.53875 C83.356243,43.0062473 82.1337552,42.2187552 81.09125,41.17625 C80.0487448,40.1337448 79.227503,38.8400077 78.6275,37.295 C78.027497,35.7499923 77.7275,33.9575102 77.7275,31.9175 C77.7275,30.3424921 77.9862474,28.857507 78.50375,27.4625 C79.0212526,26.067493 79.7674951,24.8525052 80.7425,23.8175 C81.7175049,22.7824948 82.902493,21.961253 84.2975,21.35375 C85.692507,20.746247 87.2674912,20.4425 89.0225,20.4425 C90.5075074,20.4425 91.8762437,20.6787476 93.12875,21.15125 C94.3812563,21.6237524 95.4612455,22.3099955 96.36875,23.21 C97.2762545,24.1100045 97.9812475,25.2162434 98.48375,26.52875 C98.9862525,27.8412566 99.2375,29.3374916 99.2375,31.0175 C99.2375,31.4825023 99.2150002,31.8649985 99.17,32.165 C99.1249998,32.4650015 99.0500005,32.7049991 98.945,32.885 C98.8399995,33.0650009 98.6975009,33.1887497 98.5175,33.25625 C98.3374991,33.3237503 98.1050014,33.3575 97.82,33.3575 L83.915,33.3575 Z M108.9125,24.6275 C109.647504,23.3074934 110.494995,22.2650038 111.455,21.5 C112.415005,20.7349962 113.539994,20.3525 114.83,20.3525 C115.880005,20.3525 116.734997,20.5999975 117.395,21.095 L116.99,25.685 C116.915,25.9850015 116.798751,26.1912494 116.64125,26.30375 C116.483749,26.4162506 116.270001,26.4725 116,26.4725 C115.759999,26.4725 115.415002,26.4387503 114.965,26.37125 C114.514998,26.3037497 114.095002,26.27 113.705,26.27 C113.134997,26.27 112.628752,26.3524992 112.18625,26.5175 C111.743748,26.6825008 111.350002,26.9149985 111.005,27.215 C110.659998,27.5150015 110.348751,27.8824978 110.07125,28.3175 C109.793749,28.7525022 109.535001,29.2474972 109.295,29.8025 L109.295,44 L103.085,44 L103.085,20.8025 L106.7525,20.8025 C107.382503,20.8025 107.817499,20.9149989 108.0575,21.14 C108.297501,21.3650011 108.469999,21.7549972 108.575,22.31 L108.9125,24.6275 Z M134.765,29.6675 C134.765,29.0224968 134.678751,28.4075029 134.50625,27.8225 C134.333749,27.2374971 134.060002,26.7200023 133.685,26.27 C133.309998,25.8199978 132.837503,25.4637513 132.2675,25.20125 C131.697497,24.9387487 131.015004,24.8075 130.22,24.8075 C128.734993,24.8075 127.572504,25.2274958 126.7325,26.0675 C125.892496,26.9075042 125.345001,28.1074922 125.09,29.6675 L134.765,29.6675 Z M125,33.3575 C125.195001,35.5325109 125.813745,37.122495 126.85625,38.1275 C127.898755,39.132505 129.259992,39.635 130.94,39.635 C131.795004,39.635 132.533747,39.533751 133.15625,39.33125 C133.778753,39.128749 134.326248,38.9037512 134.79875,38.65625 C135.271252,38.4087488 135.698748,38.183751 136.08125,37.98125 C136.463752,37.778749 136.842498,37.6775 137.2175,37.6775 C137.697502,37.6775 138.072499,37.8574982 138.3425,38.2175 L140.1425,40.4675 C139.482497,41.2325038 138.755004,41.8662475 137.96,42.36875 C137.164996,42.8712525 136.340004,43.2687485 135.485,43.56125 C134.629996,43.8537515 133.767504,44.0562494 132.8975,44.16875 C132.027496,44.2812506 131.187504,44.3375 130.3775,44.3375 C128.757492,44.3375 127.246257,44.0712527 125.84375,43.53875 C124.441243,43.0062473 123.218755,42.2187552 122.17625,41.17625 C121.133745,40.1337448 120.312503,38.8400077 119.7125,37.295 C119.112497,35.7499923 118.8125,33.9575102 118.8125,31.9175 C118.8125,30.3424921 119.071247,28.857507 119.58875,27.4625 C120.106253,26.067493 120.852495,24.8525052 121.8275,23.8175 C122.802505,22.7824948 123.987493,21.961253 125.3825,21.35375 C126.777507,20.746247 128.352491,20.4425 130.1075,20.4425 C131.592507,20.4425 132.961244,20.6787476 134.21375,21.15125 C135.466256,21.6237524 136.546245,22.3099955 137.45375,23.21 C138.361255,24.1100045 139.066247,25.2162434 139.56875,26.52875 C140.071253,27.8412566 140.3225,29.3374916 140.3225,31.0175 C140.3225,31.4825023 140.3,31.8649985 140.255,32.165 C140.21,32.4650015 140.135001,32.7049991 140.03,32.885 C139.924999,33.0650009 139.782501,33.1887497 139.6025,33.25625 C139.422499,33.3237503 139.190001,33.3575 138.905,33.3575 L125,33.3575 Z" transform="translate(99 21)"/>
  </g>
</svg>
