<svg xmlns="http://www.w3.org/2000/svg" xmlns:xlink="http://www.w3.org/1999/xlink" width="256" height="104" viewBox="0 0 256 104">
  <defs>
    <linearGradient id="logo-sphere-software-inverse-a" x1="92.05%" x2="10.463%" y1="58.199%" y2="45.653%">
      <stop offset="0%" stop-color="#FFF"/>
      <stop offset="41.21%" stop-color="#BBBCBE"/>
      <stop offset="100%"/>
    </linearGradient>
    <linearGradient id="logo-sphere-software-inverse-c" x1=".136%" x2="100.13%" y1="50%" y2="50%">
      <stop offset="0%" stop-color="#FFFFFE"/>
      <stop offset="100%" stop-color="#777978"/>
    </linearGradient>
    <path id="logo-sphere-software-inverse-b" d="M59.6428,62.1222 C60.151,61.8394 60.6606,61.5622 61.18,61.292 C62.7676,60.4716 63.1373772,60.1361419 64.3497772,58.8677419 L65.1462,56.3486 L56.9142,47.9038 C53.8664,49.742 50.96,51.6124 47.999,53.5906 L59.6428,62.1222 Z"/>
    <linearGradient id="logo-sphere-software-inverse-d" x1="61.479%" x2="38.149%" y1="19.506%" y2="77.879%">
      <stop offset="0%" stop-color="#201C60"/>
      <stop offset="61.82%" stop-color="#13C0E8"/>
      <stop offset="100%" stop-color="#13C0E8"/>
    </linearGradient>
    <linearGradient id="logo-sphere-software-inverse-e" x1="27.967%" x2="90.025%" y1="51.544%" y2="50%">
      <stop offset="0%" stop-color="#2CAFDD"/>
      <stop offset="27.369%" stop-color="#3290C3"/>
      <stop offset="46.234%" stop-color="#3371A9"/>
      <stop offset="64.638%" stop-color="#305490"/>
      <stop offset="82.123%" stop-color="#293878"/>
      <stop offset="100%" stop-color="#201C60"/>
      <stop offset="100%" stop-color="#201C60"/>
      <stop offset="100%" stop-color="#201C60"/>
      <stop offset="100%" stop-color="#201C60"/>
      <stop offset="100%" stop-color="#201C60"/>
      <stop offset="100%" stop-color="#201C60"/>
      <stop offset="100%" stop-color="#201C60"/>
    </linearGradient>
    <linearGradient id="logo-sphere-software-inverse-f" x1="27.764%" x2="65.43%" y1="6.375%" y2="100.305%">
      <stop offset="0%" stop-color="#201C60"/>
      <stop offset="16.36%" stop-color="#13C0E8"/>
      <stop offset="84.85%" stop-color="#13C0E8"/>
    </linearGradient>
    <linearGradient id="logo-sphere-software-inverse-h" x1="37.742%" y1="50%" y2="50%">
      <stop offset="0%" stop-color="#2CAFDD"/>
      <stop offset="31.269%" stop-color="#3290C3"/>
      <stop offset="52.6%" stop-color="#3371A9"/>
      <stop offset="68.281%" stop-color="#305490"/>
      <stop offset="82.66%" stop-color="#293878"/>
      <stop offset="100%" stop-color="#201C60"/>
      <stop offset="100%" stop-color="#201C60"/>
      <stop offset="100%" stop-color="#201C60"/>
      <stop offset="100%" stop-color="#201C60"/>
      <stop offset="100%" stop-color="#201C60"/>
      <stop offset="100%" stop-color="#201C60"/>
      <stop offset="100%" stop-color="#201C60"/>
    </linearGradient>
    <path id="logo-sphere-software-inverse-g" d="M24.0394,1.05 C18.8384,1.05 12.9388,3.4552 9.0104,7.1764 C3.1612,12.7162 0.3836,19.8758 1.1886,27.3378 C1.526,30.478 2.6362,33.8982 4.6788,38.1052 C6.629,42.1162 8.5316,45.2382 10.6666,47.9318 C16.0818,54.7596 21.4886,60.039 27.195,64.0682 C30.3212,66.2746 33.9696,68.8254 37.7216,71.1704 C39.7642,72.4472 41.3434,73.4034 42.8428,74.27 C43.0766,74.4044 43.351,74.585 43.6492,74.7838 C44.289,75.2066 45.3614,75.915 45.8878,75.915 C46.2014,75.8422 47.5762,75.1324 52.507,71.2516 L52.9452,70.9058 C54.3886,69.7788 55.79,68.5972 57.1102,67.3974 L57.5288,67.0194 C58.4388,66.2074 59.6792,65.1014 60.0306,64.0892 C59.899,63.581 58.4248,62.4946 57.9348,62.1334 C57.701,61.9626 57.4966,61.8086 57.3398,61.684 C56.014,60.6186 54.5692,59.5196 52.794,58.2246 C51.3492,57.1718 49.8484,56.1386 48.3966,55.139 C46.7278,53.9896 45.0044,52.8038 43.3412,51.5718 C37.4192,47.1842 31.1836,42.4088 25.7628,36.5288 C23.0482,33.586 20.8628,30.6166 19.082,27.4498 C17.36,24.388 15.4084,20.9188 14.9562,16.849 C14.4032,11.8706 15.8592,7.2324 18.8496,4.4394 C20.5422,2.8602 22.456,1.834 24.4874,1.0556 C24.339,1.0514 24.1892,1.05 24.0394,1.05 Z"/>
  </defs>
  <g fill="none" fill-rule="evenodd">
    <rect width="256" height="104" fill="#1B1B1B" fill-rule="nonzero"/>
    <g transform="translate(15 14)">
      <path fill="#21211F" d="M30.1812,67.3134 L36.8998,71.1816 C36.8998,71.1816 29.4966,75.5664 28.3514,76.3616 C28.3514,76.3616 28.035,75.5104 27.965,75.2248 C27.7242,73.6498 27.5086,72.4136 28.0812,70.8778 C28.5894,69.51 29.2544,68.4264 30.1812,67.3134"/>
      <polyline fill="url(#logo-sphere-software-inverse-a)" points="36.165 71.429 31.304 72.776 28.349 76.362 38.916 73.146 36.165 71.429"/>
      <use fill="url(#logo-sphere-software-inverse-c)" xlink:href="#logo-sphere-software-inverse-b"/>
      <path d="M70,37.5368191 L70,37.5634091 C69.9991787,38.5133115 69.9108581,39.470212 69.902,40.32 C69.8796,42.3948 69.6444,44.443 69.3504,46.4982 C68.7078,51.0132 67.1664,55.2272 64.4196,58.8686 C64.7472,57.47 64.7864,56.6902 63.9534,55.671 C62.9118,54.3956 61.7834,53.2966 60.5038,52.2648 C57.68,49.9828 54.5552,48.223 51.5816,46.165 C42.9324,40.1772 34.1908,33.8072 27.3882,25.7124 C24.0744,21.7714 20.5366,16.436 20.5646,11.13 C20.594,5.5608 24.6106,3.0898 29.043,0.7098 C27.1936,3.1934 30.3058,6.9356 31.9704,8.8004 C34.0536,11.1314 36.5358,13.1264 39.0572,14.966 C43.2572,18.0292 47.8142,20.5422 52.3236,23.093 C55.3854,24.8248 58.4402,26.565 61.5034,28.294 C64.1312,29.778 67.2,31.5518 69.0802,33.9906 C69.8326961,34.96579 69.9988752,36.2438335 70,37.5368191 L70,37.5368191 Z"/>
      <path fill="url(#logo-sphere-software-inverse-d)" d="M69.264865,46.4982 C68.6233916,51.0132 67.0846941,55.2272 64.34271,58.8686 C64.6697356,57.47 64.7088669,56.6902 63.8773274,55.671 C62.8375536,54.3956 61.711132,53.2966 60.4337755,52.2648 C57.6149264,49.9828 54.495605,48.223 51.5272185,46.165 C42.8931829,40.1772 34.1669093,33.8072 27.3762361,25.7124 C24.0682461,21.7714 20.5366488,16.436 20.5645997,11.13 C20.5939482,5.5608 24.5523622,3.12407043 28.976991,0.744070435 C27.1308335,3.22767043 30.2887207,6.9356 31.9504023,8.8004 C34.0299498,11.1314 36.5077979,13.1264 39.0247772,14.966 C43.2174134,18.0292 47.7664238,20.5422 52.2679176,23.093 C55.3243494,24.8248 58.3737935,26.565 61.4316229,28.294 C64.0548157,29.778 67.1182352,31.5518 68.9951387,33.9906 C69.7463155,34.96579 70,36.2585621 70,37.5515483 C70.0263446,39.9667186 69.7812996,42.9489359 69.264865,46.4982 Z"/>
      <path fill="url(#logo-sphere-software-inverse-e)" d="M27.4307404,2.8098 C24.0305124,4.8342 21.633722,7.0574 21.6127588,11.1356 C21.5917956,15.1424 23.7999174,19.8198 28.1784272,25.0362 C34.9551249,33.1128 43.7233249,39.4758 52.1239704,45.3012 C53.1665393,46.025 54.2538296,46.7264 55.3047838,47.4054 C57.2361915,48.6528 59.2346815,49.9436 61.0934169,51.4472 C62.4686016,52.5616 63.6453348,53.725 64.6893013,55.006 C64.8821625,55.2412 65.0372901,55.4708 65.1644667,55.6962 C66.7059593,52.9522 67.7331552,49.8218 68.2278863,46.3498 C68.6656442,43.1666542 68.9299406,40.6898343 68.9299406,38.8137303 C68.9299406,37.1643255 68.9839583,35.6944 68.1663943,34.6318 C66.3607656,32.2882 63.2148909,30.5088 60.9159286,29.2082 C59.2318864,28.2562 57.5492417,27.3 55.8651995,26.3424 L51.7522233,24.0072 L50.711052,23.4178 C46.588293,21.0882 42.3257795,18.6774 38.4084596,15.8144 C36.2604323,14.245 33.4960875,12.1086 31.1691744,9.499 C30.1671343,8.3762 27.6459624,5.5482 27.4307404,2.8098 Z"/>
      <path fill="url(#logo-sphere-software-inverse-f)" d="M42.3164,75.1786 C40.579,74.1734 38.8668,73.1234 37.1644,72.0608 C33.5608,69.8082 30.0608,67.3764 26.5902,64.9264 C20.1964,60.4114 14.6832,54.6854 9.8434,48.5842 C7.4032,45.507 5.4488,42.091 3.7352,38.563 C2.0594,35.1162 0.5586,31.2928 0.1442,27.4512 C0.121397334,27.2395913 0.104204994,27.0280828 0.0839999801,26.8179161 C-0.0430932348,25.4959291 0.00976149368,23.6708332 0.084,22.7847836 C0.608903584,16.5199676 3.57839392,10.8754649 8.288,6.4148 C13.3952,1.5764 22.0626,-1.491 28.9842,0.7434 C25.5514,1.6786 22.2348,2.716 19.5664,5.2066 C16.5088,8.0626 15.5554,12.7316 15.9992,16.7328 C16.415,20.4652 18.186,23.7146 19.9976,26.9346 C21.8134,30.163 24.024,33.0946 26.5342,35.8176 C31.7604,41.4848 37.7916,46.1538 43.9656,50.7276 C47.061,53.0208 50.2992,55.1068 53.4114,57.3748 C54.9654,58.5074 56.4998,59.661 57.9978,60.8664 C58.8812,61.5748 61.432,63.1582 61.047,64.3622 C60.5752,65.8322 58.9092,67.1776 57.8172,68.173 C56.4522,69.4148 55.0452,70.5978 53.5906,71.7346 C52.3530199,72.702115 47.6964339,76.4441194 46.156336,76.916 L45.479989,76.916 C44.4209642,76.6786104 43.1145956,75.6407133 42.3164,75.1786 Z"/>
      <use fill="url(#logo-sphere-software-inverse-h)" xlink:href="#logo-sphere-software-inverse-g"/>
    </g>
    <g fill="#FFF" fill-rule="nonzero" transform="translate(100 24)">
      <path d="M20.5 7.6075C20.289999 7.95250172 20.0762511 8.20374921 19.85875 8.36125 19.6412489 8.51875079 19.3600017 8.5975 19.015 8.5975 18.6849983 8.5975 18.3287519 8.48125116 17.94625 8.24875 17.5637481 8.01624884 17.1175026 7.76500135 16.6075 7.495 16.0974974 7.22499865 15.5125033 6.97375116 14.8525 6.74125 14.1924967 6.50874884 13.4200044 6.3925 12.535 6.3925 10.9749922 6.3925 9.8050039 6.74124651 9.025 7.43875 8.2449961 8.13625349 7.855 9.04749437 7.855 10.1725 7.855 10.8925036 8.06874786 11.4887476 8.49625 11.96125 8.92375214 12.4337524 9.48624651 12.8424983 10.18375 13.1875 10.8812535 13.5325017 11.6724956 13.8399986 12.5575 14.11 13.4425044 14.3800013 14.3499953 14.6762484 15.28 14.99875 16.2100046 15.3212516 17.1174956 15.6999978 18.0025 16.135 18.8875044 16.5700022 19.6787465 17.1174967 20.37625 17.7775 21.0737535 18.4375033 21.6362479 19.2437452 22.06375 20.19625 22.4912521 21.1487548 22.705 22.3074932 22.705 23.6725 22.705 25.1575074 22.4462526 26.5487435 21.92875 27.84625 21.4112474 29.1437565 20.6650049 30.2762452 19.69 31.24375 18.7149951 32.2112548 17.5112572 32.9724972 16.07875 33.5275 14.6462428 34.0825028 13.0225091 34.36 11.2075 34.36 10.1724948 34.36 9.14125514 34.255001 8.11375 34.045 7.08624486 33.8349989 6.09625476 33.5425019 5.14375 33.1675 4.19124524 32.7924981 3.2950042 32.3425026 2.455 31.8175 1.6149958 31.2924974.88000315 30.7075032.25 30.0625L2.23 26.8675C2.39500082 26.6274988 2.61249865 26.4287508 2.8825 26.27125 3.15250135 26.1137492 3.4374985 26.035 3.7375 26.035 4.14250203 26.035 4.56999775 26.1849985 5.02 26.485 5.47000225 26.7850015 5.98749707 27.1149982 6.5725 27.475 7.15750292 27.8350018 7.83624614 28.1649985 8.60875 28.465 9.38125386 28.7650015 10.3074946 28.915 11.3875 28.915 12.9625079 28.915 14.1812457 28.5550036 15.04375 27.835 15.9062543 27.1149964 16.3375 26.0425071 16.3375 24.6175 16.3375 23.7924959 16.1237521 23.1250025 15.69625 22.615 15.2687479 22.1049974 14.7100034 21.6775017 14.02 21.3325 13.3299966 20.9874983 12.5425044 20.6912512 11.6575 20.44375 10.7724956 20.1962488 9.86500465 19.9225015 8.935 19.6225 8.00499535 19.3224985 7.09750443 18.9625021 6.2125 18.5425 5.32749558 18.1224979 4.54000345 17.5675034 3.85 16.8775 3.15999655 16.1874965 2.60125214 15.3325051 2.17375 14.3125 1.74624786 13.2924949 1.5325 12.0250076 1.5325 10.51 1.5325 9.29499392 1.7724976 8.1175057 2.2525 6.9775 2.7325024 5.8374943 3.43749535 4.82500442 4.3675 3.94 5.29750465 3.05499557 6.44124321 2.3425027 7.79875 1.8025 9.15625679 1.2624973 10.7124912.9925 12.4675.9925 14.4325098.9925 16.2512416 1.29624696 17.92375 1.90375 19.5962584 2.51125304 21.0099942 3.3549946 22.165 4.435L20.5 7.6075zM32.965 27.88C33.5500029 28.5550034 34.1837466 29.0274986 34.86625 29.2975 35.5487534 29.5675013 36.2799961 29.7025 37.06 29.7025 37.8100037 29.7025 38.4924969 29.5600014 39.1075 29.275 39.7225031 28.9899986 40.2512478 28.543753 40.69375 27.93625 41.1362522 27.328747 41.4774988 26.5525047 41.7175 25.6075 41.9575012 24.6624953 42.0775 23.5375065 42.0775 22.2325 42.0775 20.9424935 41.976251 19.8475045 41.77375 18.9475 41.571249 18.0474955 41.2862518 17.3200028 40.91875 16.765 40.5512482 16.2099972 40.1050026 15.8087512 39.58 15.56125 39.0549974 15.3137488 38.4700032 15.19 37.825 15.19 36.7299945 15.19 35.8112537 15.4037479 35.06875 15.83125 34.3262463 16.2587521 33.6250033 16.8849959 32.965 17.71L32.965 27.88zM32.605 13.84C33.0700023 13.3299974 33.5649974 12.8612521 34.09 12.43375 34.6150026 12.0062479 35.177497 11.6387515 35.7775 11.33125 36.377503 11.0237485 37.0224966 10.7837509 37.7125 10.61125 38.4025035 10.4387491 39.152496 10.3525 39.9625 10.3525 41.2075062 10.3525 42.3512448 10.6187473 43.39375 11.15125 44.4362552 11.6837527 45.3324963 12.4562449 46.0825 13.46875 46.8325038 14.4812551 47.4174979 15.7224926 47.8375 17.1925 48.2575021 18.6625073 48.4675 20.3424905 48.4675 22.2325 48.4675 23.9725087 48.2312524 25.5812426 47.75875 27.05875 47.2862476 28.5362574 46.6150044 29.8149946 45.745 30.895 44.8749957 31.9750054 43.8287561 32.818747 42.60625 33.42625 41.3837439 34.033753 40.0225075 34.3375 38.5225 34.3375 37.2624937 34.3375 36.1937544 34.1500019 35.31625 33.775 34.4387456 33.3999981 33.6550035 32.8900032 32.965 32.245L32.965 41.4925 26.755 41.4925 26.755 10.8025 30.58 10.8025C31.3600039 10.8025 31.8774987 11.1624964 32.1325 11.8825L32.605 13.84zM58.66 13.075C59.0950022 12.684998 59.5487476 12.3287516 60.02125 12.00625 60.4937524 11.6837484 60.9962473 11.4062512 61.52875 11.17375 62.0612527 10.9412488 62.631247 10.7612506 63.23875 10.63375 63.846253 10.5062494 64.5024965 10.4425 65.2075 10.4425 66.4675063 10.4425 67.5849951 10.6599978 68.56 11.095 69.5350049 11.5300022 70.3562467 12.1374961 71.02375 12.9175 71.6912533 13.6975039 72.1937483 14.6274946 72.53125 15.7075 72.8687517 16.7875054 73.0375 17.9724935 73.0375 19.2625L73.0375 34 66.85 34 66.85 19.2625C66.85 17.9724935 66.550003 16.9712536 65.95 16.25875 65.349997 15.5462464 64.4650058 15.19 63.295 15.19 62.4249956 15.19 61.6075038 15.3774981 60.8425 15.7525 60.0774962 16.1275019 59.3500034 16.6524966 58.66 17.3275L58.66 34 52.45 34 52.45.4525 58.66.4525 58.66 13.075zM92.68 19.6675C92.68 19.0224968 92.5937509 18.4075029 92.42125 17.8225 92.2487491 17.2374971 91.9750019 16.7200022 91.6 16.27 91.2249981 15.8199977 90.7525028 15.4637513 90.1825 15.20125 89.6124971 14.9387487 88.930004 14.8075 88.135 14.8075 86.6499926 14.8075 85.4875042 15.2274958 84.6475 16.0675 83.8074958 16.9075042 83.2600013 18.1074922 83.005 19.6675L92.68 19.6675zM82.915 23.3575C83.110001 25.5325109 83.7287448 27.122495 84.77125 28.1275 85.8137552 29.132505 87.1749916 29.635 88.855 29.635 89.7100043 29.635 90.4487469 29.533751 91.07125 29.33125 91.6937531 29.128749 92.2412476 28.9037512 92.71375 28.65625 93.1862524 28.4087488 93.6137481 28.183751 93.99625 27.98125 94.3787519 27.778749 94.7574981 27.6775 95.1325 27.6775 95.6125024 27.6775 95.9874986 27.8574982 96.2575 28.2175L98.0575 30.4675C97.3974967 31.2325038 96.670004 31.8662475 95.875 32.36875 95.079996 32.8712525 94.2550043 33.2687485 93.4 33.56125 92.5449957 33.8537515 91.6825043 34.0562494 90.8125 34.16875 89.9424956 34.2812506 89.102504 34.3375 88.2925 34.3375 86.6724919 34.3375 85.161257 34.0712527 83.75875 33.53875 82.356243 33.0062473 81.1337552 32.2187552 80.09125 31.17625 79.0487448 30.1337448 78.227503 28.8400077 77.6275 27.295 77.027497 25.7499923 76.7275 23.9575102 76.7275 21.9175 76.7275 20.3424921 76.9862474 18.857507 77.50375 17.4625 78.0212526 16.067493 78.7674951 14.8525052 79.7425 13.8175 80.7175049 12.7824948 81.902493 11.961253 83.2975 11.35375 84.692507 10.746247 86.2674912 10.4425 88.0225 10.4425 89.5075074 10.4425 90.8762437 10.6787476 92.12875 11.15125 93.3812563 11.6237524 94.4612455 12.3099955 95.36875 13.21 96.2762545 14.1100045 96.9812475 15.2162434 97.48375 16.52875 97.9862525 17.8412566 98.2375 19.3374916 98.2375 21.0175 98.2375 21.4825023 98.2150002 21.8649985 98.17 22.165 98.1249998 22.4650015 98.0500005 22.7049991 97.945 22.885 97.8399995 23.0650009 97.6975009 23.1887497 97.5175 23.25625 97.3374991 23.3237503 97.1050014 23.3575 96.82 23.3575L82.915 23.3575zM107.9125 14.6275C108.647504 13.3074934 109.494995 12.2650038 110.455 11.5 111.415005 10.7349962 112.539994 10.3525 113.83 10.3525 114.880005 10.3525 115.734997 10.5999975 116.395 11.095L115.99 15.685C115.915 15.9850015 115.798751 16.1912494 115.64125 16.30375 115.483749 16.4162506 115.270001 16.4725 115 16.4725 114.759999 16.4725 114.415002 16.4387503 113.965 16.37125 113.514998 16.3037497 113.095002 16.27 112.705 16.27 112.134997 16.27 111.628752 16.3524992 111.18625 16.5175 110.743748 16.6825008 110.350002 16.9149985 110.005 17.215 109.659998 17.5150015 109.348751 17.8824978 109.07125 18.3175 108.793749 18.7525022 108.535001 19.2474972 108.295 19.8025L108.295 34 102.085 34 102.085 10.8025 105.7525 10.8025C106.382503 10.8025 106.817499 10.9149989 107.0575 11.14 107.297501 11.3650011 107.469999 11.7549972 107.575 12.31L107.9125 14.6275zM133.765 19.6675C133.765 19.0224968 133.678751 18.4075029 133.50625 17.8225 133.333749 17.2374971 133.060002 16.7200022 132.685 16.27 132.309998 15.8199977 131.837503 15.4637513 131.2675 15.20125 130.697497 14.9387487 130.015004 14.8075 129.22 14.8075 127.734993 14.8075 126.572504 15.2274958 125.7325 16.0675 124.892496 16.9075042 124.345001 18.1074922 124.09 19.6675L133.765 19.6675zM124 23.3575C124.195001 25.5325109 124.813745 27.122495 125.85625 28.1275 126.898755 29.132505 128.259992 29.635 129.94 29.635 130.795004 29.635 131.533747 29.533751 132.15625 29.33125 132.778753 29.128749 133.326248 28.9037512 133.79875 28.65625 134.271252 28.4087488 134.698748 28.183751 135.08125 27.98125 135.463752 27.778749 135.842498 27.6775 136.2175 27.6775 136.697502 27.6775 137.072499 27.8574982 137.3425 28.2175L139.1425 30.4675C138.482497 31.2325038 137.755004 31.8662475 136.96 32.36875 136.164996 32.8712525 135.340004 33.2687485 134.485 33.56125 133.629996 33.8537515 132.767504 34.0562494 131.8975 34.16875 131.027496 34.2812506 130.187504 34.3375 129.3775 34.3375 127.757492 34.3375 126.246257 34.0712527 124.84375 33.53875 123.441243 33.0062473 122.218755 32.2187552 121.17625 31.17625 120.133745 30.1337448 119.312503 28.8400077 118.7125 27.295 118.112497 25.7499923 117.8125 23.9575102 117.8125 21.9175 117.8125 20.3424921 118.071247 18.857507 118.58875 17.4625 119.106253 16.067493 119.852495 14.8525052 120.8275 13.8175 121.802505 12.7824948 122.987493 11.961253 124.3825 11.35375 125.777507 10.746247 127.352491 10.4425 129.1075 10.4425 130.592507 10.4425 131.961244 10.6787476 133.21375 11.15125 134.466256 11.6237524 135.546245 12.3099955 136.45375 13.21 137.361255 14.1100045 138.066247 15.2162434 138.56875 16.52875 139.071253 17.8412566 139.3225 19.3374916 139.3225 21.0175 139.3225 21.4825023 139.3 21.8649985 139.255 22.165 139.21 22.4650015 139.135001 22.7049991 139.03 22.885 138.924999 23.0650009 138.782501 23.1887497 138.6025 23.25625 138.422499 23.3237503 138.190001 23.3575 137.905 23.3575L124 23.3575zM61.7789999 48.812C61.63385 48.812 61.486547 48.7462398 61.3229023 48.6259128 61.2085026 48.5417953 61.0508784 48.4447958 60.8510569 48.336121 60.6586592 48.2314836 60.4160277 48.1351193 60.1236865 48.048113 59.8409087 47.9639529 59.4904127 47.921 59.0729999 47.921 58.7040931 47.921 58.3706525 47.9734704 58.071733 48.0775884 57.7724535 48.1818318 57.5198846 48.3197477 57.3126412 48.4908058 57.1085119 48.6592935 56.9530339 48.8532402 56.844253 49.0740015 56.7364707 49.2927361 56.6829999 49.5207731 56.6829999 49.761 56.6829999 50.0527136 56.7543984 50.2847585 56.8946809 50.4659567 57.0499031 50.6664521 57.2538719 50.8394177 57.5085347 50.9849392 57.7750076 51.1372095 58.0835224 51.2696791 58.4341939 51.381894 58.8001849 51.4990111 59.1716742 51.6161309 59.5486726 51.7332566 59.9319558 51.8523349 60.3096769 51.9844442 60.6818362 52.1295864 61.0692425 52.2806748 61.4138098 52.4695054 61.7149145 52.6963116 62.0243971 52.9294284 62.2762284 53.2155087 62.4690607 53.5529653 62.6679831 53.9010795 62.7659999 54.3176509 62.7659999 54.799 62.7659999 55.3076743 62.6755337 55.7836051 62.4942549 56.2249797 62.3117113 56.6694337 62.0431014 57.0554361 61.6898983 57.3808592 61.3386478 57.7044832 60.90892 57.9595728 60.4025934 58.1465241 59.8967203 58.333308 59.3212577 58.426 58.6769999 58.426 57.87409 58.426 57.1763874 58.2968672 56.585164 58.0362621 56.0037287 57.7799716 55.482623 57.4447014 55.0227587 57.0308235L54.8642802 56.8881928 54.9801074 56.7091872 55.2200004 56.3385003C55.2761083 56.2487276 55.3450022 56.1768383 55.4274756 56.1260854 55.5188926 56.0698288 55.6275185 56.045 55.7509999 56.045 55.918867 56.045 56.084229 56.1289934 56.2610379 56.2819092 56.3844278 56.3886248 56.5543887 56.5070824 56.7701143 56.6358219 56.9819641 56.7622484 57.2475454 56.8820203 57.5664338 56.9941569 57.8709281 57.1012318 58.256017 57.156 58.7209999 57.156 59.1551719 57.156 59.5334115 57.0963676 59.8563677 56.9786232 60.1778089 56.8614311 60.441998 56.7045688 60.6510146 56.5086157 60.8594126 56.3132426 61.0165834 56.0847779 61.1239768 55.8211758 61.2326845 55.5543478 61.2869999 55.2728953 61.2869999 54.975 61.2869999 54.6586104 61.213889 54.4057684 61.0708159 54.2090429 60.9155059 53.9954917 60.7102796 53.8130683 60.4530037 53.6613415 60.1834144 53.502353 59.8756974 53.3667488 59.5296088 53.2548818 59.1677405 53.1379143 58.7967003 53.0209361 58.4164785 52.9039448 58.0297613 52.7849548 57.6522402 52.6547752 57.2839132 52.5133971 56.9000955 52.3660732 56.5555226 52.1791862 56.2508242 51.9526156 55.9376013 51.7197062 55.6836874 51.4355645 55.4905839 51.1016563 55.2909333 50.7564272 55.1929999 50.3340894 55.1929999 49.838 55.1929999 49.4124095 55.2855054 49.0021681 55.4696907 48.6097732 55.653284 48.2186396 55.9147273 47.8753705 56.2523454 47.5814442 56.5882417 47.2890168 56.9947131 47.0573085 57.4701836 46.8858273 57.9459034 46.7142562 58.4768173 46.629 59.0619999 46.629 59.7575666 46.629 60.3788331 46.7290181 60.9250034 46.9304426 61.4735358 47.1327383 61.973087 47.4437429 62.4223546 47.8620265L62.5712223 48.0006275 62.2472742 48.5351421C62.1449086 48.7120952 61.9796149 48.812 61.7789999 48.812zM70.2489999 46.629C71.0665534 46.629 71.8023657 46.7692462 72.454635 47.0509956 73.108506 47.333437 73.6618107 47.7353109 74.1120153 48.2553748 74.5599915 48.7728646 74.9007243 49.3946539 75.1344152 50.1187125 75.3664491 50.8376372 75.4819999 51.6389159 75.4819999 52.522 75.4819999 53.4051835 75.3664231 54.2047477 75.1342956 54.9201571 74.9005845 55.6404471 74.5598734 56.2602719 74.1120153 56.7776252 73.661546 57.2979948 73.1078341 57.6982217 72.4534868 57.9769969 71.8015324 58.2547526 71.0661332 58.393 70.2489999 58.393 69.4318667 58.393 68.6964675 58.2547526 68.0445131 57.9769969 67.3904605 57.6983473 66.8351779 57.2983885 66.3811818 56.7784271 65.9293271 56.2609183 65.5865315 55.6408049 65.3527043 54.9201571 65.1205768 54.2047477 65.0049999 53.4051835 65.0049999 52.522 65.0049999 51.6389159 65.1205508 50.8376372 65.3525847 50.1187125 65.5863909 49.3942964 65.9292082 48.7722179 66.3811818 48.2545729 66.8349121 47.7349159 67.3897881 47.3333099 68.0433649 47.0509956 68.6956342 46.7692462 69.4314465 46.629 70.2489999 46.629zM70.2489999 57.068C70.8673181 57.068 71.4021075 56.9631056 71.8552774 56.7552608 72.306683 56.5482251 72.681807 56.2525193 72.9834414 55.8661561 73.2885975 55.475282 73.5179428 55.0010719 73.6708436 54.4415939 73.8260178 53.8737974 73.9039999 53.2339893 73.9039999 52.522 73.9039999 51.8172888 73.8260128 51.179212 73.6707404 50.6075273 73.5177339 50.0441853 73.2882041 49.5661421 72.9827922 49.1715086 72.6809052 48.78143 72.305507 48.482126 71.8538719 48.2715893 71.4010761 48.0605116 70.8668003 47.954 70.2489999 47.954 69.6311996 47.954 69.0969238 48.0605116 68.644128 48.2715893 68.1924929 48.482126 67.8170947 48.78143 67.5152077 49.1715086 67.2094969 49.5665282 66.9780043 50.0450615 66.8213794 50.608911 66.6627001 51.1801565 66.5829999 51.8177578 66.5829999 52.522 66.5829999 53.2335194 66.6626949 53.8728497 66.821272 54.4402035 66.9777906 55.0001922 67.2091004 55.4748953 67.5145584 55.8661561 67.8161928 56.2525193 68.1913168 56.5482251 68.6427224 56.7552608 69.0958924 56.9631056 69.6306818 57.068 70.2489999 57.068zM80.5259946 58.25L78.9699946 58.25 78.9699946 48.4334104 77.6533613 48.3485773C77.3310472 48.3140436 77.1219946 48.1273895 77.1219946 47.825L77.1219946 47.146 78.9699946 47.146 78.9699946 46.01C78.9699946 45.3605599 79.0546358 44.7853845 79.2253797 44.2847942 79.3976687 43.7796742 79.6426713 43.3548713 79.9609479 43.012724 80.2803613 42.6693546 80.6643672 42.4113506 81.1103894 42.2401099 81.5506291 42.0710894 82.0356096 41.987 82.5639946 41.987 82.8058571 41.987 83.0494034 42.0084321 83.2944948 42.0512258 83.541889 42.0944216 83.7656774 42.1558149 83.9658422 42.2358808L84.1342701 42.303252 84.1224646 42.4842698 84.0840413 43.0282326C84.0524732 43.1702891 83.9694635 43.2825963 83.8362393 43.3338364 83.7513669 43.3664796 83.6517542 43.3772486 83.5325869 43.3722833 83.436147 43.3682649 83.3154901 43.3565885 83.1693809 43.3373636 83.0416603 43.3205582 82.8910355 43.312 82.7179946 43.312 82.3860042 43.312 82.0820124 43.3607059 81.8049555 43.4575089 81.5386628 43.5505509 81.3107872 43.6987497 81.1183789 43.9039853 80.9252376 44.1100026 80.7728027 44.3837298 80.6625737 44.7277778 80.5502151 45.0784729 80.4929946 45.5171639 80.4929946 46.043L80.4929946 47.146 83.5325869 47.146 83.5325869 48.427 80.5259946 48.427 80.5259946 58.25zM88.406 55.569C88.406 55.842756 88.4403372 56.0733062 88.5070256 56.2606688 88.5724314 56.4444279 88.6602116 56.5912328 88.7696177 56.7035958 88.8788132 56.8157425 89.0060125 56.8976179 89.1536798 56.9507781 89.3092198 57.0067725 89.4785846 57.035 89.663 57.035 89.8966768 57.035 90.0925764 57.0018235 90.2513842 56.9376895 90.4274441 56.8665884 90.5778572 56.7897106 90.7025958 56.7076457 90.8330552 56.6218172 90.9378345 56.5440777 91.0163738 56.4753558 91.1463712 56.3616081 91.2614716 56.298 91.39 56.298 91.5367498 56.298 91.6595625 56.374758 91.7785662 56.5264113L92.1635402 57.1482924 92.0373839 57.2877283C91.7341295 57.6229042 91.3509938 57.8909007 90.8903963 58.091674 90.4299854 58.2923659 89.9504937 58.393 89.454 58.393 88.651209 58.393 88.0101182 58.1650566 87.5455107 57.7045606 87.0779179 57.2411059 86.85 56.5432331 86.85 55.624L86.85 48.394 85.527 48.394C85.3892637 48.394 85.2653177 48.3526847 85.1663021 48.2678142 85.0565198 48.173715 85.002 48.0413097 85.002 47.891L85.002 47.251025 86.8873692 47.1179401 87.1419532 43.3817674C87.1655217 43.275709 87.2134802 43.179792 87.2841858 43.0973022 87.3782849 42.9875198 87.5106903 42.933 87.661 42.933L88.406 42.933 88.406 47.113 91.86 47.113 91.86 48.394 88.406 48.394 88.406 55.569zM104.858053 55.8773113L107.644052 47.2335642C107.690265 47.1064761 107.768437 47.0012457 107.875627 46.9238302 107.985156 46.8447261 108.113502 46.805 108.253 46.805L109.358967 46.805 105.540133 58.25 104.579 58.25C104.332015 58.25 104.15804 58.0911528 104.089065 57.8487604L101.163013 49.1566625 98.197381 57.8376803C98.1245273 58.0926679 97.9447193 58.25 97.693 58.25L96.7648674 58.25 92.9460332 46.805 94.085 46.805C94.2435841 46.805 94.3847521 46.851033 94.4980461 46.9454447 94.5980063 47.0287449 94.6695726 47.1271485 94.7081236 47.2428611L97.4729043 55.8908945C97.4743982 55.8966214 97.4758881 55.9023421 97.4773737 55.9080567 97.4812237 55.896852 97.4851023 55.8856344 97.4890093 55.8744046L100.413769 47.1661991C100.497106 46.9042828 100.693465 46.75 100.96 46.75L101.389 46.75C101.661029 46.75 101.862415 46.902775 101.945171 47.1629431L104.851168 55.8812096C104.852121 55.8843391 104.853072 55.8874661 104.854022 55.8905906 104.855359 55.8861709 104.856703 55.8817445 104.858053 55.8773113zM117.683 50.872C117.683 49.9123115 117.48004 49.1874537 117.083155 48.6905138 116.697339 48.2074333 116.122983 47.965 115.337 47.965 114.838618 47.965 114.42022 48.0333098 114.081554 48.1674352 113.727665 48.3075892 113.430581 48.4604746 113.190382 48.6251822 112.942463 48.7951841 112.742211 48.9497646 112.590168 49.087985 112.387104 49.272589 112.201343 49.373 112.015 49.373 111.885175 49.373 111.768516 49.3405948 111.67169 49.2714334 111.593032 49.2152491 111.526642 49.1433258 111.469325 49.0514299L111.184646 48.5658004 111.321223 48.4292233C111.913173 47.8372734 112.538286 47.387497 113.196567 47.0813197 113.861528 46.7720356 114.612452 46.618 115.447 46.618 116.065706 46.618 116.612082 46.7175184 117.084785 46.9184173 117.560907 47.120769 117.958246 47.4122839 118.273721 47.791653 118.585852 48.167 118.819697 48.6189705 118.9757 49.1454779 119.129505 49.6645705 119.206 50.2401973 119.206 50.872L119.206 58.25 118.538 58.25C118.204806 58.25 117.968006 58.0707999 117.882482 57.7191816L117.782931 56.8089977C117.599964 56.9739673 117.41749 57.1283559 117.23549 57.2721587 116.925228 57.5173037 116.600958 57.7245297 116.262803 57.8936068 115.922497 58.0637598 115.555857 58.1949785 115.16326 58.2873543 114.769721 58.3799516 114.339936 58.426 113.874 58.426 113.474799 58.426 113.086657 58.3671907 112.710431 58.24962 112.327737 58.130028 111.985423 57.9458594 111.685213 57.6976856 111.380736 57.4459843 111.138045 57.1244194 110.957716 56.7357091 110.776372 56.3448131 110.687 55.8820629 110.687 55.349 110.687 54.8372445 110.833822 54.3600732 111.124987 53.923325 111.414388 53.4892233 111.860992 53.1177127 112.460753 52.8061486 113.048446 52.5008532 113.794469 52.2591042 114.699667 52.0788158 115.539823 51.9114818 116.534019 51.8096824 117.683 51.7728601L117.683 50.872zM115.285574 53.2029341C114.553389 53.3279413 113.953625 53.496514 113.487305 53.7068841 113.034476 53.9111679 112.706127 54.1495125 112.498978 54.4181581 112.298143 54.6786164 112.199 54.9713988 112.199 55.305 112.199 55.6379313 112.252852 55.9202443 112.358305 56.1535197 112.46455 56.3885461 112.60395 56.5786371 112.776913 56.7264421 112.952204 56.8762363 113.15456 56.9861776 113.386055 57.0569121 113.626162 57.1302783 113.876537 57.167 114.138 57.167 114.543006 57.167 114.912626 57.1236173 115.247106 57.0374112 115.583301 56.9507631 115.894224 56.8298483 116.180344 56.6747232 116.468954 56.5182479 116.738379 56.3322577 116.988869 56.1165578 117.223012 55.9149348 117.454391 55.698401 117.683 55.4669339L117.683 52.9690333C116.761942 53.0092702 115.962625 53.08734 115.285574 53.2029341zM124.370124 48.3696036C124.599639 48.0000469 124.865537 47.6852704 125.167802 47.4261858 125.472688 47.164855 125.813844 46.9645252 126.190074 46.8259142 126.567106 46.6870075 126.983123 46.618 127.437 46.618 127.679393 46.618 127.918147 46.639527 128.153082 46.6825984 128.402228 46.7282752 128.62535 46.8103672 128.820987 46.9294504L128.958564 47.0131931 128.939183 47.1730828 128.84162 47.9435687C128.774128 48.1595442 128.613274 48.295 128.394 48.295 128.277412 48.295 128.124034 48.265585 127.92382 48.208381 127.769456 48.164277 127.554975 48.141 127.283 48.141 126.887597 48.141 126.54262 48.1998985 126.246994 48.3161561 125.952412 48.432003 125.687572 48.6058039 125.451019 48.839026 125.21032 49.0763345 124.998434 49.3719496 124.815797 49.7268858 124.627812 50.0922145 124.454929 50.5146204 124.31 50.916L124.31 58.25 122.754 58.25 122.754 46.805 123.565 46.805C123.749665 46.805 123.899154 46.8486009 124.005777 46.9552233 124.103853 47.0532992 124.15566 47.1914512 124.17786 47.3876315L124.21936 48.6266927C124.268268 48.5383896 124.318522 48.4526928 124.370124 48.3696036zM132.230066 54.3958739C132.411371 54.9886004 132.667296 55.4814294 132.996918 55.8762898 133.323677 56.2677198 133.716884 56.5609297 134.179072 56.7580392 134.645655 56.9570232 135.169671 57.057 135.753 57.057 136.280061 57.057 136.732889 56.9995258 137.111163 56.8860434 137.498836 56.7697414 137.822138 56.6404208 138.080582 56.499138 138.345931 56.3540804 138.554444 56.2244174 138.705 56.1115 138.908155 55.9591337 139.061626 55.88 139.207 55.88 139.382433 55.88 139.532788 55.9551774 139.621029 56.0823518L140.034129 56.5907836 139.908217 56.7481738C139.714897 56.9898245 139.462496 57.2124142 139.151953 57.4168223 138.846742 57.6177207 138.507858 57.7890882 138.135599 57.9310838 137.766488 58.0718788 137.371623 58.1838837 136.951104 58.2672298 136.528136 58.3510612 136.103029 58.393 135.676 58.393 134.89547 58.393 134.180412 58.2565239 133.532679 57.9827796 132.882196 57.7078729 132.323381 57.3062247 131.858541 56.7794054 131.39535 56.2544565 131.039676 55.614243 130.791089 54.8608335 130.543947 54.1118034 130.421 53.258738 130.421 52.302 130.421 51.49092 130.53699 50.7398398 130.769592 50.0496582 131.003581 49.3553641 131.34261 48.7543574 131.786623 48.2485695 132.232499 47.7406581 132.779137 47.3432791 133.424219 47.0574344 134.06976 46.7713863 134.799009 46.629 135.61 46.629 136.257387 46.629 136.861087 46.7412263 137.419403 46.9661036 137.980327 47.1920313 138.468477 47.5220208 138.881802 47.9548423 139.294459 48.3869641 139.618287 48.9163363 139.853463 49.5409027 140.088304 50.1645786 140.205 50.8762311 140.205 51.675 140.205 51.8860073 140.17382 52.0419064 140.089 52.155 139.992488 52.2836827 139.844195 52.343 139.669 52.343L131.955081 52.343C131.958189 53.1237498 132.050256 53.8080329 132.230066 54.3958739zM138.525855 49.9269961C138.37198 49.4927252 138.156696 49.1282682 137.880098 48.8314314 137.603863 48.5349836 137.276031 48.308023 136.894491 48.1493296 136.511449 47.9900113 136.08756 47.91 135.621 47.91 135.08648 47.91 134.611422 47.9926188 134.194531 48.1566415 133.779294 48.3200133 133.421898 48.5537608 133.120262 48.8587864 132.816428 49.1660339 132.571686 49.5357141 132.385786 49.9694798 132.230076 50.3328033 132.11692 50.7335279 132.046649 51.172L138.753627 51.172C138.733572 50.7131276 138.657417 50.2982928 138.525855 49.9269961z"/>
    </g>
  </g>
</svg>
