<svg xmlns="http://www.w3.org/2000/svg" xmlns:xlink="http://www.w3.org/1999/xlink" width="92" height="92" viewBox="0 0 92 92">
  <defs>
    <linearGradient id="sphere-coin-logo-a" x1="92.05%" x2="10.463%" y1="58.366%" y2="45.565%">
      <stop offset="0%" stop-color="#FFF"/>
      <stop offset="41.21%" stop-color="#BBBCBE"/>
      <stop offset="100%"/>
    </linearGradient>
    <linearGradient id="sphere-coin-logo-c" x1=".136%" x2="100.13%" y1="50%" y2="50%">
      <stop offset="0%" stop-color="#FFFFFE"/>
      <stop offset="100%" stop-color="#777978"/>
    </linearGradient>
    <path id="sphere-coin-logo-b" d="M30.67344,32.2712727 C30.9348,32.1243636 31.19688,31.9803636 31.464,31.84 C32.28048,31.4138182 32.4706511,31.2395543 33.0941711,30.5806452 L33.50376,29.272 L29.27016,24.8850909 C27.70272,25.84 26.208,26.8116364 24.6852,27.8392727 L30.67344,32.2712727 Z"/>
    <linearGradient id="sphere-coin-logo-d" x1="61.251%" x2="38.385%" y1="19.506%" y2="77.879%">
      <stop offset="0%" stop-color="#201C60"/>
      <stop offset="61.82%" stop-color="#13C0E8"/>
      <stop offset="100%" stop-color="#13C0E8"/>
    </linearGradient>
    <linearGradient id="sphere-coin-logo-e" x1="28.406%" x2="89.229%" y1="51.544%" y2="50%">
      <stop offset="0%" stop-color="#2CAFDD"/>
      <stop offset="27.369%" stop-color="#3290C3"/>
      <stop offset="46.234%" stop-color="#3371A9"/>
      <stop offset="64.638%" stop-color="#305490"/>
      <stop offset="82.123%" stop-color="#293878"/>
      <stop offset="100%" stop-color="#201C60"/>
      <stop offset="100%" stop-color="#201C60"/>
      <stop offset="100%" stop-color="#201C60"/>
      <stop offset="100%" stop-color="#201C60"/>
      <stop offset="100%" stop-color="#201C60"/>
      <stop offset="100%" stop-color="#201C60"/>
      <stop offset="100%" stop-color="#201C60"/>
    </linearGradient>
    <linearGradient id="sphere-coin-logo-f" x1="28.206%" x2="65.123%" y1="6.375%" y2="100.305%">
      <stop offset="0%" stop-color="#201C60"/>
      <stop offset="16.36%" stop-color="#13C0E8"/>
      <stop offset="84.85%" stop-color="#13C0E8"/>
    </linearGradient>
    <linearGradient id="sphere-coin-logo-h" x1="37.742%" y1="50%" y2="50%">
      <stop offset="0%" stop-color="#2CAFDD"/>
      <stop offset="31.269%" stop-color="#3290C3"/>
      <stop offset="52.6%" stop-color="#3371A9"/>
      <stop offset="68.281%" stop-color="#305490"/>
      <stop offset="82.66%" stop-color="#293878"/>
      <stop offset="100%" stop-color="#201C60"/>
      <stop offset="100%" stop-color="#201C60"/>
      <stop offset="100%" stop-color="#201C60"/>
      <stop offset="100%" stop-color="#201C60"/>
      <stop offset="100%" stop-color="#201C60"/>
      <stop offset="100%" stop-color="#201C60"/>
      <stop offset="100%" stop-color="#201C60"/>
    </linearGradient>
    <path id="sphere-coin-logo-g" d="M12.36312,0.545454545 C9.68832,0.545454545 6.65424,1.79490909 4.63392,3.728 C1.62576,6.60581818 0.19728,10.3250909 0.61128,14.2014545 C0.7848,15.8327273 1.35576,17.6094545 2.40624,19.7949091 C3.4092,21.8785455 4.38768,23.5003636 5.48568,24.8996364 C8.27064,28.4465455 11.05128,31.1890909 13.986,33.2821818 C15.59376,34.4283636 17.47008,35.7534545 19.39968,36.9716364 C20.45016,37.6349091 21.26232,38.1316364 22.03344,38.5818182 C22.15368,38.6516364 22.2948,38.7454545 22.44816,38.8487273 C22.7772,39.0683636 23.32872,39.4363636 23.59944,39.4363636 C23.76072,39.3985455 24.46776,39.0298182 27.0036,37.0138182 L27.22896,36.8341818 C27.97128,36.2487273 28.692,35.6349091 29.37096,35.0116364 L29.58624,34.8152727 C30.05424,34.3934545 30.69216,33.8189091 30.87288,33.2930909 C30.8052,33.0290909 30.04704,32.4647273 29.79504,32.2770909 C29.6748,32.1883636 29.56968,32.1083636 29.48904,32.0436364 C28.8072,31.4901818 28.06416,30.9192727 27.1512,30.2465455 C26.40816,29.6996364 25.63632,29.1629091 24.88968,28.6436364 C24.03144,28.0465455 23.14512,27.4305455 22.28976,26.7905455 C19.24416,24.5112727 16.03728,22.0305455 13.24944,18.976 C11.85336,17.4472727 10.72944,15.9047273 9.8136,14.2596364 C8.928,12.6690909 7.92432,10.8669091 7.69176,8.75272727 C7.40736,6.16654545 8.15616,3.75709091 9.69408,2.30618182 C10.56456,1.48581818 11.5488,0.952727273 12.59352,0.548363636 C12.5172,0.546181818 12.44016,0.545454545 12.36312,0.545454545 Z"/>
  </defs>
  <g fill="none" fill-rule="evenodd">
    <g fill-rule="nonzero">
      <path fill="#D6E2EB" d="M82.7803889 42.3398811C83.2985313 47.0506685 82.8985238 51.7617134 81.5940065 56.3394917 80.2886528 60.920204 78.1426977 65.1378868 75.2161234 68.8752673 72.1870075 72.7469673 68.448807 75.9340029 64.1060406 78.3454099 59.7632742 80.756817 55.0745899 82.248976 50.1720379 82.7814916 45.4384882 83.2967235 40.7047529 82.899948 36.1015723 81.6000664 35.3339427 81.3833854 34.7268009 80.8775517 34.3666732 80.2353819 34.0065454 79.5932119 33.8927276 78.8134503 34.1104847 78.0496139 34.5450158 76.5216636 36.1429571 75.6343751 37.6785683 76.0683649 41.5605935 77.1636271 45.5538697 77.4998612 49.5443514 77.0654812 53.6738788 76.6164569 57.6264504 75.3576965 61.2891613 73.3239038 64.9518723 71.290111 68.1032944 68.6042382 70.6557227 65.3429743 73.1226141 62.19177 74.9319629 58.63516 76.0335736 54.7709888 77.1346268 50.9087736 77.4715477 46.934952 77.0346586 42.9635607 76.5840354 38.8540883 75.3190242 34.9210476 73.2754839 31.2770631 72.4978473 29.8904029 72.9972108 28.1387627 74.3907569 27.3649686 75.7843029 26.5911746 77.5446416 27.0880705 78.3222782 28.4747306 80.7453079 32.7954104 82.2451556 37.4599484 82.7803889 42.3398811zM18.724806 60.7219578C19.5024334 62.1086183 19.0027971 63.861237 17.6092674 64.6350313 16.2157377 65.4088255 14.4554198 64.9119294 13.6777923 63.525269 11.2554952 59.2058436 9.75496123 54.540049 9.21847246 49.6608157 8.70230195 44.9505819 9.10174709 40.2414918 10.4064546 35.6611286 11.7118662 31.082021 13.8577958 26.864337 16.7841893 23.1237441 19.815793 19.250642 23.5540226 16.0652114 27.8954761 13.6545043 32.2369298 11.2437973 36.9238719 9.75010496 41.8273491 9.21786653 46.5628087 8.70318947 51.2965614 9.10157079 55.8983528 10.4005476 57.4342247 10.8335594 58.3252048 12.4223497 57.889417 13.951001 57.4548909 15.4789517 55.8569685 16.3662404 54.3213755 15.9322505 50.439396 14.8369879 46.4461668 14.5007539 42.455028 14.9338785 38.3255493 15.3829029 34.3737283 16.642919 30.7116914 18.676362 27.0496545 20.709805 23.8975654 23.394423 21.3439056 26.6563883 18.8771164 29.8091991 17.068493 33.3670655 15.966822 37.2296319 14.8664858 41.0931036 14.5288649 45.0656707 14.9644139 49.0361578 15.4156627 53.1452809 16.6812898 57.0779723 18.724806 60.7219578z"/>
      <path fill="#2CAFDD" d="M45.9999999,0 C20.6360312,0 0,20.6353125 0,46 C0,71.3646876 20.6360312,92 45.9999999,92 C71.3639685,92 92,71.3646876 92,46 C92,20.6353125 71.3639685,0 45.9999999,0 Z M45.9999999,86.25 C23.8057186,86.25 5.74999996,68.1942813 5.74999996,46 C5.74999996,23.8057187 23.8057186,5.75000001 45.9999999,5.75000001 C68.1942811,5.75000001 86.2499997,23.8057187 86.2499997,46 C86.2499997,68.1942813 68.1942811,86.25 45.9999999,86.25 Z"/>
    </g>
    <g transform="translate(28 26)">
      <path fill="#21211F" d="M15.52176,34.968 L18.97704,36.9774545 C18.97704,36.9774545 15.16968,39.2552727 14.58072,39.6683636 C14.58072,39.6683636 14.418,39.2261818 14.382,39.0778182 C14.25816,38.2596364 14.14728,37.6174545 14.44176,36.8196364 C14.70312,36.1090909 15.04512,35.5461818 15.52176,34.968"/>
      <polyline fill="url(#sphere-coin-logo-a)" points="18.599 37.106 16.099 37.806 14.579 39.668 20.014 37.998 18.599 37.106"/>
      <use fill="url(#sphere-coin-logo-c)" xlink:href="#sphere-coin-logo-b"/>
      <path d="M36,19.4996463 L36,19.5134593 C35.9995776,20.0069151 35.9541556,20.5040062 35.9496,20.9454545 C35.93808,22.0232727 35.81712,23.0872727 35.66592,24.1549091 C35.33544,26.5003636 34.54272,28.6894545 33.13008,30.5810909 C33.29856,29.8545455 33.31872,29.4494545 32.89032,28.92 C32.35464,28.2574545 31.77432,27.6865455 31.11624,27.1505455 C29.664,25.9650909 28.05696,25.0509091 26.52768,23.9818182 C22.07952,20.8712727 17.58384,17.5621818 14.08536,13.3570909 C12.38112,11.3098182 10.56168,8.53818182 10.57608,5.78181818 C10.5912,2.88872727 12.65688,1.60509091 14.9364,0.368727273 C13.98528,1.65890909 15.58584,3.60290909 16.44192,4.57163636 C17.51328,5.78254545 18.78984,6.81890909 20.08656,7.77454545 C22.24656,9.36581818 24.59016,10.6712727 26.90928,11.9963636 C28.48392,12.896 30.05496,13.8 31.63032,14.6981818 C32.98176,15.4690909 34.56,16.3905455 35.52696,17.6574545 C35.913958,18.1640467 35.9994215,18.8279655 36,19.4996463 L36,19.4996463 Z"/>
      <path fill="url(#sphere-coin-logo-d)" d="M35.6219306,24.1549091 C35.29203,26.5003636 34.5006998,28.6894545 33.0905366,30.5810909 C33.2587212,29.8545455 33.2788458,29.4494545 32.8511969,28.92 C32.3164561,28.2574545 31.7371536,27.6865455 31.0802274,27.1505455 C29.6305336,25.9650909 28.0263111,25.0509091 26.4997124,23.9818182 C22.0593512,20.8712727 17.5715533,17.5621818 14.0792071,13.3570909 C12.3779551,11.3098182 10.5617051,8.53818182 10.5760799,5.78181818 C10.5911733,2.88872727 12.6269291,1.62289373 14.9024525,0.386530096 C13.9530001,1.67671191 15.5770564,3.60290909 16.4316354,4.57163636 C17.5011171,5.78254545 18.7754389,6.81890909 20.0698854,7.77454545 C22.2260983,9.36581818 24.5655894,10.6712727 26.8806433,11.9963636 C28.4525226,12.896 30.0208081,13.8 31.5934061,14.6981818 C32.9424766,15.4690909 34.5179495,16.3905455 35.4832142,17.6574545 C35.8695337,18.1640467 36,18.8356167 36,19.5072978 C36.0135487,20.7619318 35.8875255,22.3111355 35.6219306,24.1549091 Z"/>
      <path fill="url(#sphere-coin-logo-e)" d="M14.1072379,1.45963636 C12.3585492,2.51127273 11.1259141,3.66618182 11.1151331,5.78472727 C11.104352,7.86618182 12.2399575,10.296 14.4917625,13.0058182 C17.9769214,17.2014545 22.4862814,20.5069091 26.8066133,23.5330909 C27.3427916,23.9090909 27.9019695,24.2734545 28.4424602,24.6261818 C29.4357557,25.2741818 30.4635505,25.9447273 31.4194716,26.7258182 C32.1267094,27.3047273 32.7318865,27.9090909 33.2687835,28.5745455 C33.3679693,28.6967273 33.4477492,28.816 33.5131543,28.9330909 C34.3059219,27.5076364 34.8341941,25.8814545 35.0886272,24.0778182 C35.3137599,22.424236 35.4496837,21.1375763 35.4496837,20.1629768 C35.4496837,19.3061431 35.4774643,18.5425455 35.0570028,17.9905455 C34.1283937,16.7730909 32.5105153,15.8487273 31.3281919,15.1730909 C30.462113,14.6785455 29.5967529,14.1818182 28.730674,13.6843636 L26.6154291,12.4712727 L26.0799696,12.1650909 C23.9596935,10.9549091 21.7675437,9.70254545 19.7529221,8.21527273 C18.6482223,7.4 17.2265593,6.29018182 16.0298611,4.93454545 C15.5145262,4.35127273 14.2179235,2.88218182 14.1072379,1.45963636 Z"/>
      <path fill="url(#sphere-coin-logo-f)" d="M21.76272,39.0538182 C20.8692,38.5316364 19.98864,37.9861818 19.11312,37.4341818 C17.25984,36.264 15.45984,35.0007273 13.67496,33.728 C10.38672,31.3825455 7.55136,28.408 5.06232,25.2385455 C3.80736,23.64 2.80224,21.8654545 1.92096,20.0327273 C1.05912,18.2421818 0.28728,16.256 0.07416,14.2603636 C0.0624329147,14.150437 0.0535911397,14.0405625 0.0431999898,13.931385 C-0.022162235,13.2446385 0.00502019675,12.2965367 0.0432,11.8362512 C0.313150415,8.58180135 1.84031687,5.64959217 4.2624,3.33236364 C6.88896,0.818909091 11.34648,-0.774545455 14.90616,0.386181818 C13.14072,0.872 11.43504,1.41090909 10.06272,2.70472727 C8.49024,4.18836364 7.99992,6.61381818 8.22816,8.69236364 C8.442,10.6312727 9.3528,12.3192727 10.28448,13.992 C11.21832,15.6690909 12.3552,17.192 13.64616,18.6065455 C16.33392,21.5505455 19.43568,23.976 22.61088,26.352 C24.2028,27.5432727 25.86816,28.6269091 27.46872,29.8050909 C28.26792,30.3934545 29.05704,30.9927273 29.82744,31.6189091 C30.28176,31.9869091 31.5936,32.8094545 31.3956,33.4349091 C31.15296,34.1985455 30.29616,34.8974545 29.73456,35.4145455 C29.03256,36.0596364 28.30896,36.6741818 27.56088,37.2647273 C26.9244102,37.7673325 24.5295946,39.7112309 23.7375442,39.9563636 L23.3897086,39.9563636 C22.8450673,39.8330444 22.1732206,39.293877 21.76272,39.0538182 Z"/>
      <use fill="url(#sphere-coin-logo-h)" xlink:href="#sphere-coin-logo-g"/>
    </g>
  </g>
</svg>
