<?xml version="1.0" encoding="UTF-8"?>
<svg width="231px" height="64px" viewBox="0 0 231 64" version="1.1" xmlns="http://www.w3.org/2000/svg" xmlns:xlink="http://www.w3.org/1999/xlink">
    <!-- Generator: Sketch 55.2 (78181) - https://sketchapp.com -->
    <title>logo-SMM_Influencer</title>
    <desc>Created with Sketch.</desc>
    <g id="logo-SMM_Influencer" stroke="none" stroke-width="1" fill="none" fill-rule="evenodd">
        <rect fill="#FFFFFF" x="0" y="0" width="231" height="64"></rect>
        <g transform="translate(12.000000, 9.000000)" id="Group-2">
            <g>
                <g id="logo-mark" transform="translate(0.000000, 3.000000)">
                    <rect id="Rectangle" fill="#263238" opacity="0.200000003" x="0" y="0" width="40" height="40" rx="5"></rect>
                    <rect id="Rectangle" fill="#FFFFFF" x="3.75" y="3.75" width="32.5" height="27.5" rx="5"></rect>
                    <path d="M9.375,13.75 C12.7083333,17.0833333 16.25,18.75 20,18.75 C23.75,18.75 27.2916667,17.0833333 30.625,13.75" id="Path-2" stroke="#263238" stroke-width="2.5" stroke-linecap="round"></path>
                    <path d="M13.75,28.75 C12.3692881,28.75 11.25,27.6307119 11.25,26.25 C11.25,24.8692881 12.3692881,23.75 13.75,23.75 C15.1307119,23.75 16.25,24.8692881 16.25,26.25 C16.25,27.6307119 15.1307119,28.75 13.75,28.75 Z M22.5,37.5 C21.1192881,37.5 20,36.3807119 20,35 C20,33.6192881 21.1192881,32.5 22.5,32.5 C23.8807119,32.5 25,33.6192881 25,35 C25,36.3807119 23.8807119,37.5 22.5,37.5 Z M31.25,28.75 C29.8692881,28.75 28.75,27.6307119 28.75,26.25 C28.75,24.8692881 29.8692881,23.75 31.25,23.75 C32.6307119,23.75 33.75,24.8692881 33.75,26.25 C33.75,27.6307119 32.6307119,28.75 31.25,28.75 Z M15.625,28.125 L20.625,33.125 L15.625,28.125 Z M24.375,33.125 L29.375,28.125 L24.375,33.125 Z" id="Combined-Shape" stroke="#2674A6" stroke-width="2.5"></path>
                </g>
                <path d="M60.3782647,17.987 C60.2902643,18.1410008 60.1967652,18.252833 60.0977647,18.3225 C59.9987642,18.392167 59.8759321,18.427 59.7292647,18.427 C59.575264,18.427 59.4084323,18.3701672 59.2287647,18.2565 C59.0490972,18.1428328 58.8345993,18.016334 58.5852647,17.877 C58.3359301,17.737666 58.0444331,17.6111672 57.7107647,17.4975 C57.3770964,17.3838328 56.9829337,17.327 56.5282647,17.327 C56.117596,17.327 55.7582663,17.3764995 55.4502647,17.4755 C55.1422632,17.5745005 54.8837658,17.7119991 54.6747647,17.888 C54.4657637,18.0640009 54.3099319,18.2748321 54.2072647,18.5205 C54.1045975,18.7661679 54.0532647,19.0356652 54.0532647,19.329 C54.0532647,19.7030019 54.1577637,20.0146654 54.3667647,20.264 C54.5757658,20.5133346 54.8525963,20.7259991 55.1972647,20.902 C55.5419331,21.0780009 55.9342625,21.235666 56.3742647,21.375 C56.8142669,21.514334 57.2652624,21.6628325 57.7272647,21.8205 C58.189267,21.9781675 58.6402625,22.161499 59.0802647,22.3705 C59.5202669,22.579501 59.9125963,22.8434984 60.2572647,23.1625 C60.6019331,23.4815016 60.8787637,23.8719977 61.0877647,24.334 C61.2967658,24.7960023 61.4012647,25.3569967 61.4012647,26.017 C61.4012647,26.7356703 61.2784326,27.4084969 61.0327647,28.0355 C60.7870968,28.6625031 60.4277671,29.208831 59.9547647,29.6745 C59.4817624,30.140169 58.9042681,30.506832 58.2222647,30.7745 C57.5402613,31.042168 56.7592691,31.176 55.8792647,31.176 C55.3732622,31.176 54.8746005,31.1265005 54.3832647,31.0275 C53.8919289,30.9284995 53.420767,30.7873343 52.9697647,30.604 C52.5187625,30.4206657 52.0952667,30.2006679 51.6992647,29.944 C51.3032627,29.6873321 50.9512663,29.4013349 50.6432647,29.086 L51.5122647,27.667 C51.5855984,27.5643328 51.6809308,27.478167 51.7982647,27.4085 C51.9155986,27.338833 52.0402641,27.304 52.1722647,27.304 C52.355599,27.304 52.553597,27.3791659 52.7662647,27.5295 C52.9789325,27.6798341 53.2319299,27.8466657 53.5252647,28.03 C53.8185995,28.2133343 54.1614294,28.3801659 54.5537647,28.5305 C54.9461,28.6808341 55.417262,28.756 55.9672647,28.756 C56.8106023,28.756 57.4632624,28.5561687 57.9252647,28.1565 C58.387267,27.7568313 58.6182647,27.1830037 58.6182647,26.435 C58.6182647,26.0169979 58.5137658,25.6760013 58.3047647,25.412 C58.0957637,25.1479987 57.8189331,24.9261676 57.4742647,24.7465 C57.1295963,24.5668324 56.7372669,24.4146673 56.2972647,24.29 C55.8572625,24.1653327 55.4099337,24.0296674 54.9552647,23.883 C54.5005958,23.7363326 54.0532669,23.5603344 53.6132647,23.355 C53.1732625,23.1496656 52.7809331,22.8820016 52.4362647,22.552 C52.0915963,22.2219983 51.8147658,21.8095025 51.6057647,21.3145 C51.3967637,20.8194975 51.2922647,20.2090036 51.2922647,19.483 C51.2922647,18.9036638 51.4077636,18.3390028 51.6387647,17.789 C51.8697659,17.2389973 52.2052625,16.7513355 52.6452647,16.326 C53.0852669,15.9006645 53.6279282,15.559668 54.2732647,15.303 C54.9186013,15.0463321 55.6592605,14.918 56.4952647,14.918 C57.4339361,14.918 58.2992608,15.0646652 59.0912647,15.358 C59.8832687,15.6513348 60.5579286,16.0619974 61.1152647,16.59 L60.3782647,17.987 Z M81.1291471,15.094 L81.1291471,31 L78.5221471,31 L78.5221471,20.726 C78.5221471,20.3153313 78.5441469,19.8716691 78.5881471,19.395 L73.7811471,28.426 C73.5538126,28.8586688 73.2054828,29.075 72.7361471,29.075 L72.3181471,29.075 C71.8488114,29.075 71.5004815,28.8586688 71.2731471,28.426 L66.4111471,19.362 C66.4331472,19.6040012 66.4514803,19.8423322 66.4661471,20.077 C66.4808138,20.3116678 66.4881471,20.527999 66.4881471,20.726 L66.4881471,31 L63.8811471,31 L63.8811471,15.094 L66.1141471,15.094 C66.2461477,15.094 66.3598133,15.0976666 66.4551471,15.105 C66.5504809,15.1123334 66.6366467,15.1306665 66.7136471,15.16 C66.7906475,15.1893335 66.8603134,15.2369997 66.9226471,15.303 C66.9849807,15.3690003 67.0454801,15.4569995 67.1041471,15.567 L71.8671471,24.4 C71.9918144,24.6346678 72.1073132,24.8766654 72.2136471,25.126 C72.3199809,25.3753346 72.4244799,25.6319987 72.5271471,25.896 C72.6298143,25.6246653 72.7361465,25.3625013 72.8461471,25.1095 C72.9561476,24.8564987 73.0734798,24.6126678 73.1981471,24.378 L77.8951471,15.567 C77.953814,15.4569995 78.0161467,15.3690003 78.0821471,15.303 C78.1481474,15.2369997 78.2196467,15.1893335 78.2966471,15.16 C78.3736475,15.1306665 78.4598133,15.1123334 78.5551471,15.105 C78.6504809,15.0976666 78.7641464,15.094 78.8961471,15.094 L81.1291471,15.094 Z M101.825029,15.094 L101.825029,31 L99.2180294,31 L99.2180294,20.726 C99.2180294,20.3153313 99.2400292,19.8716691 99.2840294,19.395 L94.4770294,28.426 C94.249695,28.8586688 93.9013651,29.075 93.4320294,29.075 L93.0140294,29.075 C92.5446937,29.075 92.1963639,28.8586688 91.9690294,28.426 L87.1070294,19.362 C87.1290295,19.6040012 87.1473627,19.8423322 87.1620294,20.077 C87.1766962,20.3116678 87.1840294,20.527999 87.1840294,20.726 L87.1840294,31 L84.5770294,31 L84.5770294,15.094 L86.8100294,15.094 C86.9420301,15.094 87.0556956,15.0976666 87.1510294,15.105 C87.2463632,15.1123334 87.332529,15.1306665 87.4095294,15.16 C87.4865298,15.1893335 87.5561958,15.2369997 87.6185294,15.303 C87.6808631,15.3690003 87.7413625,15.4569995 87.8000294,15.567 L92.5630294,24.4 C92.6876967,24.6346678 92.8031956,24.8766654 92.9095294,25.126 C93.0158633,25.3753346 93.1203622,25.6319987 93.2230294,25.896 C93.3256966,25.6246653 93.4320289,25.3625013 93.5420294,25.1095 C93.65203,24.8564987 93.7693621,24.6126678 93.8940294,24.378 L98.5910294,15.567 C98.6496964,15.4569995 98.7120291,15.3690003 98.7780294,15.303 C98.8440298,15.2369997 98.915529,15.1893335 98.9925294,15.16 C99.0695298,15.1306665 99.1556956,15.1123334 99.2510294,15.105 C99.3463632,15.0976666 99.4600288,15.094 99.5920294,15.094 L101.825029,15.094 Z M113.494794,31 L110.524794,31 L110.524794,15.094 L113.494794,15.094 L113.494794,31 Z M118.900676,21.1 C119.128011,20.8726655 119.368175,20.6618343 119.621176,20.4675 C119.874178,20.2731657 120.141842,20.1081673 120.424176,19.9725 C120.706511,19.8368327 121.009008,19.7305004 121.331676,19.6535 C121.654345,19.5764996 122.006341,19.538 122.387676,19.538 C123.00368,19.538 123.550007,19.642499 124.026676,19.8515 C124.503346,20.060501 124.901175,20.3538314 125.220176,20.7315 C125.539178,21.1091686 125.781176,21.560164 125.946176,22.0845 C126.111177,22.608836 126.193676,23.1863302 126.193676,23.817 L126.193676,31 L123.476676,31 L123.476676,23.817 C123.476676,23.1276632 123.319011,22.5941686 123.003676,22.2165 C122.688342,21.8388314 122.208013,21.65 121.562676,21.65 C121.093341,21.65 120.653345,21.7563323 120.242676,21.969 C119.832008,22.1816677 119.443345,22.4713315 119.076676,22.838 L119.076676,31 L116.359676,31 L116.359676,19.714 L118.020676,19.714 C118.372678,19.714 118.603676,19.8789984 118.713676,20.209 L118.900676,21.1 Z M129.278559,31 L129.278559,21.76 L128.299559,21.606 C128.086891,21.5619998 127.916393,21.4868339 127.788059,21.3805 C127.659725,21.2741661 127.595559,21.122001 127.595559,20.924 L127.595559,19.813 L129.278559,19.813 L129.278559,19.34 C129.278559,18.7386637 129.373891,18.1630028 129.564559,17.613 C129.755226,17.0629972 130.04489,16.5771688 130.433559,16.1555 C130.822227,15.7338312 131.313556,15.3965013 131.907559,15.1435 C132.501562,14.8904987 133.201888,14.764 134.008559,14.764 C134.631895,14.764 135.220389,14.7841665 135.774059,14.8245 C136.327728,14.8648335 136.879556,14.8886666 137.429559,14.896 L139.222559,14.896 L139.222559,31 L136.516559,31 L136.516559,16.788 C136.12789,16.7733333 135.748394,16.7550001 135.378059,16.733 C135.007724,16.7109999 134.694227,16.7 134.437559,16.7 C133.616221,16.7 132.989228,16.9291644 132.556559,17.3875 C132.12389,17.8458356 131.907559,18.4966625 131.907559,19.34 L131.907559,19.813 L134.580559,19.813 L134.580559,21.749 L131.995559,21.749 L131.995559,31 L129.278559,31 Z M151.569441,19.714 L151.569441,31 L149.908441,31 C149.549106,31 149.321775,30.8350016 149.226441,30.505 L149.039441,29.603 C148.577439,30.0723357 148.067777,30.4518319 147.510441,30.7415 C146.953105,31.0311681 146.296778,31.176 145.541441,31.176 C144.925438,31.176 144.380944,31.071501 143.907941,30.8625 C143.434939,30.653499 143.037109,30.3583352 142.714441,29.977 C142.391773,29.5956648 142.147942,29.142836 141.982941,28.6185 C141.81794,28.094164 141.735441,27.5166698 141.735441,26.886 L141.735441,19.714 L144.452441,19.714 L144.452441,26.886 C144.452441,27.5753368 144.61194,28.1088314 144.930941,28.4865 C145.249943,28.8641686 145.728438,29.053 146.366441,29.053 C146.835777,29.053 147.275772,28.948501 147.686441,28.7395 C148.09711,28.530499 148.485773,28.2426685 148.852441,27.876 L148.852441,19.714 L151.569441,19.714 Z M161.430324,24.059 C161.430324,23.7069982 161.380824,23.3751682 161.281824,23.0635 C161.182823,22.7518318 161.034325,22.4786678 160.836324,22.244 C160.638323,22.0093322 160.387158,21.8241673 160.082824,21.6885 C159.778489,21.5528327 159.424659,21.485 159.021324,21.485 C158.236653,21.485 157.618826,21.7086644 157.167824,22.156 C156.716821,22.6033356 156.428991,23.2376626 156.304324,24.059 L161.430324,24.059 Z M156.249324,25.698 C156.293324,26.2773362 156.395989,26.7778312 156.557324,27.1995 C156.718658,27.6211688 156.931322,27.9694986 157.195324,28.2445 C157.459325,28.5195014 157.772822,28.7248327 158.135824,28.8605 C158.498825,28.9961673 158.900321,29.064 159.340324,29.064 C159.780326,29.064 160.159822,29.0126672 160.478824,28.91 C160.797825,28.8073328 161.076489,28.6936673 161.314824,28.569 C161.553158,28.4443327 161.762156,28.3306672 161.941824,28.228 C162.121491,28.1253328 162.295656,28.074 162.464324,28.074 C162.691658,28.074 162.860323,28.1583325 162.970324,28.327 L163.751324,29.317 C163.450655,29.6690018 163.113325,29.9641655 162.739324,30.2025 C162.365322,30.4408345 161.974826,30.6314993 161.567824,30.7745 C161.160821,30.9175007 160.746492,31.018333 160.324824,31.077 C159.903155,31.135667 159.494326,31.165 159.098324,31.165 C158.313653,31.165 157.583994,31.0348346 156.909324,30.7745 C156.234653,30.5141654 155.647993,30.1291692 155.149324,29.6195 C154.650654,29.1098308 154.258325,28.4791704 153.972324,27.7275 C153.686322,26.9758296 153.543324,26.105005 153.543324,25.115 C153.543324,24.3449962 153.667989,23.6208367 153.917324,22.9425 C154.166658,22.2641633 154.524155,21.6738358 154.989824,21.1715 C155.455493,20.6691642 156.02382,20.2713348 156.694824,19.978 C157.365827,19.6846652 158.122986,19.538 158.966324,19.538 C159.67766,19.538 160.333987,19.6516655 160.935324,19.879 C161.53666,20.1063345 162.053655,20.4381645 162.486324,20.8745 C162.918992,21.3108355 163.258156,21.8461635 163.503824,22.4805 C163.749491,23.1148365 163.872324,23.8389959 163.872324,24.653 C163.872324,25.0636687 163.828324,25.3404993 163.740324,25.4835 C163.652323,25.6265007 163.483658,25.698 163.234324,25.698 L156.249324,25.698 Z M168.354206,21.1 C168.58154,20.8726655 168.821705,20.6618343 169.074706,20.4675 C169.327707,20.2731657 169.595371,20.1081673 169.877706,19.9725 C170.160041,19.8368327 170.462538,19.7305004 170.785206,19.6535 C171.107874,19.5764996 171.459871,19.538 171.841206,19.538 C172.457209,19.538 173.003537,19.642499 173.480206,19.8515 C173.956875,20.060501 174.354704,20.3538314 174.673706,20.7315 C174.992707,21.1091686 175.234705,21.560164 175.399706,22.0845 C175.564707,22.608836 175.647206,23.1863302 175.647206,23.817 L175.647206,31 L172.930206,31 L172.930206,23.817 C172.930206,23.1276632 172.772541,22.5941686 172.457206,22.2165 C172.141871,21.8388314 171.661542,21.65 171.016206,21.65 C170.54687,21.65 170.106875,21.7563323 169.696206,21.969 C169.285537,22.1816677 168.896874,22.4713315 168.530206,22.838 L168.530206,31 L165.813206,31 L165.813206,19.714 L167.474206,19.714 C167.826208,19.714 168.057205,19.8789984 168.167206,20.209 L168.354206,21.1 Z M186.212088,22.101 C186.131421,22.2036672 186.052589,22.284333 185.975588,22.343 C185.898588,22.401667 185.786756,22.431 185.640088,22.431 C185.500754,22.431 185.365089,22.3888338 185.233088,22.3045 C185.101088,22.2201662 184.943422,22.1248339 184.760088,22.0185 C184.576754,21.9121661 184.358589,21.8168338 184.105588,21.7325 C183.852587,21.6481662 183.53909,21.606 183.165088,21.606 C182.688419,21.606 182.270423,21.6921658 181.911088,21.8645 C181.551753,22.0368342 181.252923,22.2843317 181.014588,22.607 C180.776254,22.9296683 180.598422,23.3201644 180.481088,23.7785 C180.363754,24.2368356 180.305088,24.7556638 180.305088,25.335 C180.305088,25.9363363 180.369254,26.4716643 180.497588,26.941 C180.625922,27.4103357 180.811087,27.8044984 181.053088,28.1235 C181.295089,28.4425016 181.58842,28.6844992 181.933088,28.8495 C182.277757,29.0145008 182.666419,29.097 183.099088,29.097 C183.531757,29.097 183.88192,29.0438339 184.149588,28.9375 C184.417256,28.8311661 184.642754,28.713834 184.826088,28.5855 C185.009422,28.457166 185.168921,28.3398339 185.304588,28.2335 C185.440256,28.1271661 185.592421,28.074 185.761088,28.074 C185.981089,28.074 186.146088,28.1583325 186.256088,28.327 L187.037088,29.317 C186.73642,29.6690018 186.41009,29.9641655 186.058088,30.2025 C185.706086,30.4408345 185.341257,30.6314993 184.963588,30.7745 C184.58592,30.9175007 184.197257,31.018333 183.797588,31.077 C183.39792,31.135667 183.00009,31.165 182.604088,31.165 C181.907418,31.165 181.251091,31.0348346 180.635088,30.7745 C180.019085,30.5141654 179.480091,30.1346692 179.018088,29.636 C178.556086,29.1373308 178.191256,28.5268369 177.923588,27.8045 C177.65592,27.0821631 177.522088,26.2590046 177.522088,25.335 C177.522088,24.5063292 177.641254,23.7381702 177.879588,23.0305 C178.117923,22.3228298 178.468086,21.7105026 178.930088,21.1935 C179.392091,20.6764974 179.964085,20.2713348 180.646088,19.978 C181.328092,19.6846652 182.11275,19.538 183.000088,19.538 C183.843426,19.538 184.582252,19.6736653 185.216588,19.945 C185.850925,20.2163347 186.421086,20.6049975 186.927088,21.111 L186.212088,22.101 Z M195.709971,24.059 C195.709971,23.7069982 195.660471,23.3751682 195.561471,23.0635 C195.46247,22.7518318 195.313972,22.4786678 195.115971,22.244 C194.91797,22.0093322 194.666805,21.8241673 194.362471,21.6885 C194.058136,21.5528327 193.704306,21.485 193.300971,21.485 C192.5163,21.485 191.898473,21.7086644 191.447471,22.156 C190.996468,22.6033356 190.708638,23.2376626 190.583971,24.059 L195.709971,24.059 Z M190.528971,25.698 C190.572971,26.2773362 190.675636,26.7778312 190.836971,27.1995 C190.998305,27.6211688 191.210969,27.9694986 191.474971,28.2445 C191.738972,28.5195014 192.052469,28.7248327 192.415471,28.8605 C192.778472,28.9961673 193.179968,29.064 193.619971,29.064 C194.059973,29.064 194.439469,29.0126672 194.758471,28.91 C195.077472,28.8073328 195.356136,28.6936673 195.594471,28.569 C195.832805,28.4443327 196.041803,28.3306672 196.221471,28.228 C196.401138,28.1253328 196.575303,28.074 196.743971,28.074 C196.971305,28.074 197.13997,28.1583325 197.249971,28.327 L198.030971,29.317 C197.730302,29.6690018 197.392972,29.9641655 197.018971,30.2025 C196.644969,30.4408345 196.254473,30.6314993 195.847471,30.7745 C195.440469,30.9175007 195.026139,31.018333 194.604471,31.077 C194.182802,31.135667 193.773973,31.165 193.377971,31.165 C192.5933,31.165 191.863641,31.0348346 191.188971,30.7745 C190.514301,30.5141654 189.92764,30.1291692 189.428971,29.6195 C188.930301,29.1098308 188.537972,28.4791704 188.251971,27.7275 C187.965969,26.9758296 187.822971,26.105005 187.822971,25.115 C187.822971,24.3449962 187.947636,23.6208367 188.196971,22.9425 C188.446305,22.2641633 188.803802,21.6738358 189.269471,21.1715 C189.73514,20.6691642 190.303467,20.2713348 190.974471,19.978 C191.645474,19.6846652 192.402633,19.538 193.245971,19.538 C193.957307,19.538 194.613634,19.6516655 195.214971,19.879 C195.816307,20.1063345 196.333302,20.4381645 196.765971,20.8745 C197.198639,21.3108355 197.537803,21.8461635 197.783471,22.4805 C198.029138,23.1148365 198.151971,23.8389959 198.151971,24.653 C198.151971,25.0636687 198.107971,25.3404993 198.019971,25.4835 C197.93197,25.6265007 197.763305,25.698 197.513971,25.698 L190.528971,25.698 Z M202.655853,21.672 C203.007855,20.99733 203.425851,20.4675019 203.909853,20.0825 C204.393855,19.6974981 204.96585,19.505 205.625853,19.505 C206.146522,19.505 206.564518,19.6186655 206.879853,19.846 L206.703853,21.881 C206.667186,22.0130007 206.61402,22.1064997 206.544353,22.1615 C206.474686,22.2165003 206.381187,22.244 206.263853,22.244 C206.153852,22.244 205.990687,22.2256668 205.774353,22.189 C205.558019,22.1523332 205.347187,22.134 205.141853,22.134 C204.841185,22.134 204.573521,22.1779996 204.338853,22.266 C204.104185,22.3540004 203.893354,22.4804992 203.706353,22.6455 C203.519352,22.8105008 203.354354,23.0103322 203.211353,23.245 C203.068352,23.4796678 202.93452,23.7473318 202.809853,24.048 L202.809853,31 L200.092853,31 L200.092853,19.714 L201.687853,19.714 C201.966521,19.714 202.160852,19.7634995 202.270853,19.8625 C202.380853,19.9615005 202.454186,20.1393321 202.490853,20.396 L202.655853,21.672 Z" id="SMMInfuencer" fill="#797979" fill-rule="nonzero"></path>
            </g>
        </g>
    </g>
</svg>