<svg width="112" height="112" viewBox="0 0 112 112" fill="none" xmlns="http://www.w3.org/2000/svg">
<g filter="url(#filter0_d)">
<rect x="4" y="4" width="104" height="104" fill="#005B96"/>
</g>
<path fill-rule="evenodd" clip-rule="evenodd" d="M59.5847 89.3443L59.5908 89.3481L49.1149 92.4834L49.1099 92.4849L49.1118 92.4826C49.0937 92.4347 48.7968 91.6461 48.7294 91.376C48.4906 89.8397 48.2768 88.6339 48.8447 87.1358C49.3367 85.8336 49.9768 84.7954 50.862 83.7369C49.6914 82.9409 48.527 82.1368 47.3659 81.3307C41.0243 76.9267 35.5561 71.3414 30.7558 65.3901C28.3356 62.3886 26.3971 59.0565 24.6975 55.6152C23.0354 52.2531 21.5469 48.5237 21.1358 44.7765C21.1132 44.5701 21.0962 44.3638 21.0761 44.1588C20.9501 42.8693 21.0025 41.089 21.0761 40.2248C21.5967 34.1139 24.542 28.6081 29.2131 24.2571C34.2786 19.5376 42.8752 16.5456 49.7403 18.7251L49.732 18.7273C47.9035 21.1499 51.0345 24.7655 52.6823 26.5841C54.7449 28.8578 57.2025 30.8038 59.6989 32.5981C63.8573 35.5861 68.3692 38.0373 72.8339 40.5254C75.8654 42.2147 78.8899 43.9121 81.9228 45.5986C84.5245 47.0461 87.5629 48.7763 89.4245 51.1552C90.1696 52.1064 90.4212 53.3674 90.4212 54.6286C90.4473 56.9844 90.2043 59.8934 89.692 63.3554C89.0567 67.7532 87.534 71.8582 84.8217 75.4066L84.8171 75.4209C83.6146 76.6582 83.2478 76.9854 81.6732 77.7856C81.1583 78.0491 80.653 78.3193 80.1492 78.5951C80.9995 79.288 81.7635 80.0969 81.5413 80.7804C81.0733 82.2142 79.4209 83.5266 78.3379 84.4975C76.984 85.7088 75.5885 86.8627 74.1458 87.9716C72.9183 88.9153 68.2997 92.5654 66.7722 93.0256H66.1014C65.051 92.7941 63.7553 91.7817 62.9636 91.3309C61.8279 90.6847 60.703 90.0195 59.5847 89.3443ZM40.3994 23.0786C43.0429 20.6521 46.3278 19.6397 49.7283 18.7283C45.3418 21.049 41.4186 23.4261 41.3895 28.8564C41.3618 34.032 44.8645 39.2363 48.1455 43.0804C54.8807 50.9763 63.5357 57.1897 72.0992 63.0304C73.3921 63.9119 74.7139 64.7374 76.0266 65.5745C73.5121 67.0954 71.0755 68.6469 68.6005 70.2731C67.2548 69.3595 65.9141 68.4387 64.5994 67.4809C58.4758 63.0195 52.4939 58.4652 47.3103 52.9373C44.8206 50.2812 42.6281 47.4217 40.8271 44.2726C39.0303 41.1317 37.2738 37.9622 36.8614 34.3215C36.4212 30.4187 37.3668 25.8644 40.3994 23.0786ZM59.5908 89.3481L58.289 89.739C55.5439 87.4676 54.5766 86.8207 50.8633 83.7378L59.5908 89.3481ZM80.1486 78.5954L68.5998 70.2735C71.9228 72.1728 76.2805 74.6769 81.6732 77.7856C81.7734 77.7347 81.7734 77.7347 81.6732 77.7856C81.158 78.0492 80.6526 78.3196 80.1486 78.5954Z" fill="white"/>
<defs>
<filter id="filter0_d" x="0" y="0" width="112" height="112" filterUnits="userSpaceOnUse" color-interpolation-filters="sRGB">
<feFlood flood-opacity="0" result="BackgroundImageFix"/>
<feColorMatrix in="SourceAlpha" type="matrix" values="0 0 0 0 0 0 0 0 0 0 0 0 0 0 0 0 0 0 127 0"/>
<feOffset/>
<feGaussianBlur stdDeviation="2"/>
<feColorMatrix type="matrix" values="0 0 0 0 0 0 0 0 0 0 0 0 0 0 0 0 0 0 0.195029 0"/>
<feBlend mode="normal" in2="BackgroundImageFix" result="effect1_dropShadow"/>
<feBlend mode="normal" in="SourceGraphic" in2="effect1_dropShadow" result="shape"/>
</filter>
</defs>
</svg>
