<svg width="104" height="104" viewBox="0 0 104 104" fill="none" xmlns="http://www.w3.org/2000/svg">
<rect width="104" height="104" fill="white"/>
<path fill-rule="evenodd" clip-rule="evenodd" d="M55.5847 85.3443L55.5908 85.3481L45.1149 88.4834L45.1099 88.4849L45.1118 88.4826C45.0937 88.4347 44.7968 87.6461 44.7294 87.376C44.4906 85.8397 44.2768 84.6339 44.8447 83.1358C45.3367 81.8336 45.9768 80.7954 46.862 79.7369C45.6914 78.9409 44.527 78.1368 43.3659 77.3307C37.0243 72.9267 31.5561 67.3414 26.7558 61.3901C24.3356 58.3886 22.3971 55.0565 20.6975 51.6152C19.0354 48.2531 17.5469 44.5237 17.1358 40.7765C17.1132 40.5701 17.0962 40.3638 17.0761 40.1588C16.9501 38.8693 17.0025 37.089 17.0761 36.2248C17.5967 30.1139 20.542 24.6081 25.2131 20.2571C30.2786 15.5376 38.8752 12.5456 45.7403 14.7251L45.732 14.7273C43.9035 17.1499 47.0345 20.7655 48.6823 22.5841C50.7449 24.8578 53.2025 26.8038 55.6989 28.5981C59.8573 31.5861 64.3692 34.0373 68.8339 36.5254C71.8654 38.2147 74.8899 39.9121 77.9228 41.5986C80.5245 43.0461 83.5629 44.7763 85.4245 47.1552C86.1696 48.1064 86.4212 49.3674 86.4212 50.6286C86.4473 52.9844 86.2043 55.8934 85.692 59.3554C85.0567 63.7532 83.534 67.8582 80.8217 71.4066L80.8171 71.4209C79.6146 72.6582 79.2478 72.9854 77.6732 73.7856C77.1583 74.0491 76.653 74.3193 76.1492 74.5951C76.9995 75.288 77.7635 76.0969 77.5413 76.7804C77.0733 78.2142 75.4209 79.5266 74.3379 80.4975C72.984 81.7088 71.5885 82.8627 70.1458 83.9716C68.9183 84.9153 64.2997 88.5654 62.7722 89.0256H62.1014C61.051 88.7941 59.7553 87.7817 58.9636 87.3309C57.8279 86.6847 56.703 86.0195 55.5847 85.3443ZM36.3994 19.0786C39.0429 16.6521 42.3278 15.6397 45.7283 14.7283C41.3418 17.049 37.4186 19.4261 37.3895 24.8564C37.3618 30.032 40.8645 35.2363 44.1455 39.0804C50.8807 46.9763 59.5357 53.1897 68.0992 59.0304C69.3921 59.9119 70.7139 60.7374 72.0266 61.5745C69.5121 63.0954 67.0755 64.6469 64.6005 66.2731C63.2548 65.3595 61.9141 64.4387 60.5994 63.4809C54.4758 59.0195 48.4939 54.4652 43.3103 48.9373C40.8206 46.2812 38.6281 43.4217 36.8271 40.2726C35.0303 37.1317 33.2738 33.9622 32.8614 30.3215C32.4212 26.4187 33.3668 21.8644 36.3994 19.0786ZM55.5908 85.3481L54.289 85.739C51.5439 83.4676 50.5766 82.8207 46.8633 79.7378L55.5908 85.3481ZM76.1486 74.5954L64.5998 66.2735C67.9228 68.1728 72.2805 70.6769 77.6732 73.7856C77.7734 73.7347 77.7734 73.7347 77.6732 73.7856C77.158 74.0492 76.6526 74.3196 76.1486 74.5954Z" fill="#1B1B1B"/>
</svg>
