<svg width="44" height="44" viewBox="0 0 44 44" fill="none" xmlns="http://www.w3.org/2000/svg">
<path fill-rule="evenodd" clip-rule="evenodd" d="M23.7956 36.4734C24.2679 36.7619 24.743 37.0463 25.2226 37.3225C25.3142 37.3753 25.4218 37.446 25.5388 37.523C25.8496 37.7276 26.2273 37.9761 26.5501 38.0481C26.5715 38.0529 26.5896 38.0573 26.6054 38.0611C26.6926 38.0822 26.7091 38.0862 26.8339 38.0481C27.4216 37.8689 29.0908 36.5602 29.779 36.0206C29.8476 35.9668 29.9064 35.9206 29.9535 35.884C30.5639 35.4092 31.1543 34.9151 31.7271 34.3965C31.7822 34.3465 31.8408 34.2944 31.9016 34.2403C32.3462 33.8448 32.9082 33.345 33.0824 32.8048C33.1764 32.5122 32.8532 32.1659 32.4935 31.8692C32.7066 31.7511 32.9204 31.6354 33.1383 31.5225C33.8045 31.1799 33.9596 31.0398 34.4684 30.51L34.4704 30.5038C35.6179 28.9844 36.2621 27.2267 36.5309 25.3436C36.7476 23.8612 36.8504 22.6157 36.8394 21.6069C36.8394 21.0669 36.7329 20.527 36.4177 20.1197C35.6301 19.1011 34.3446 18.3602 33.2439 17.7404C32.521 17.3335 31.7991 16.9252 31.0773 16.5168L31.0766 16.5164C30.5175 16.2001 29.9583 15.8838 29.3986 15.5681L28.9494 15.3151L28.9494 15.3151C27.2082 14.335 25.4614 13.3518 23.8415 12.1738C22.7853 11.4054 21.7455 10.5722 20.8729 9.59861C20.1758 8.81992 18.8511 7.27177 19.6247 6.23446C19.6258 6.23415 19.627 6.23385 19.6281 6.23354C16.7237 5.30031 13.0866 6.58145 10.9435 8.60228C8.96728 10.4653 7.72122 12.8228 7.50096 15.4394C7.46981 15.8095 7.44763 16.5718 7.50096 17.1239C7.504 17.1554 7.50688 17.187 7.50976 17.2186C7.51492 17.2751 7.52009 17.3318 7.52622 17.3884C7.70011 18.9929 8.32988 20.5898 9.03308 22.0294C9.75215 23.503 10.5723 24.9297 11.5962 26.2149C13.6271 28.7632 15.9406 31.1547 18.6235 33.0405C19.1148 33.3857 19.6075 33.73 20.1027 34.0708C19.7282 34.5241 19.4574 34.9686 19.2492 35.5262C19.0164 36.1477 19.0941 36.6517 19.1911 37.2808L19.2005 37.3418C19.2288 37.4569 19.3535 37.7921 19.3621 37.8153L19.3614 37.8162L19.3624 37.8159L19.3626 37.8166L19.3646 37.8152L23.7956 36.4734ZM19.6231 6.23489C17.7673 7.22858 16.1075 8.24642 16.0952 10.5716C16.0835 12.7877 17.5654 15.0161 18.9535 16.6621C21.803 20.0431 25.4648 22.7036 29.0878 25.2045C29.531 25.5103 29.9823 25.8004 30.433 26.0902C30.5386 26.158 30.644 26.2259 30.7494 26.2938C29.6855 26.9451 28.6546 27.6095 27.6075 28.3058C27.0381 27.9146 26.4709 27.5203 25.9146 27.1102C23.3239 25.1998 20.7931 23.2498 18.6 20.8828C17.5467 19.7455 16.6191 18.5211 15.8571 17.1727C15.097 15.8278 14.3538 14.4706 14.1793 12.9117C13.9931 11.2406 14.3932 9.29051 15.6762 8.09766C16.7946 7.05862 18.1844 6.62514 19.6231 6.23489Z" fill="white"/>
</svg>
