<?xml version="1.0" encoding="utf-8"?>
<!-- Generator: Adobe Illustrator 21.1.0, SVG Export Plug-In . SVG Version: 6.00 Build 0)  -->
<svg version="1.1" id="Layer_1" xmlns="http://www.w3.org/2000/svg" xmlns:xlink="http://www.w3.org/1999/xlink" x="0px" y="0px"
	 viewBox="0 0 104 104" style="enable-background:new 0 0 104 104;" xml:space="preserve">
<g>
	<g>
		<defs>
			<path id="SVGID_1_" d="M71.4,64.6L69,66l-2.4,1.4l-1.8,1.3l11.3,9.1l2-1.1l1.2-0.6c0,0,0.8-0.4,1-0.5c0.3-0.2,0.9-0.7,1.2-0.9
				c0.2-0.2,0.8-0.9,0.8-0.9l1-1.2l0.2-1.6L83,67.3l-7.8-4.9L71.4,64.6z"/>
		</defs>
		<linearGradient id="SVGID_2_" gradientUnits="userSpaceOnUse" x1="64.8291" y1="70.0343" x2="83.4822" y2="70.0343">
			<stop  offset="0" style="stop-color:#FFFFFF"/>
			<stop  offset="1" style="stop-color:#7E7F81"/>
		</linearGradient>
		<use xlink:href="#SVGID_1_"  style="overflow:visible;fill:url(#SVGID_2_);"/>
		<clipPath id="SVGID_3_">
			<use xlink:href="#SVGID_1_"  style="overflow:visible;"/>
		</clipPath>
	</g>
	<g>
		<g>
			<defs>
				<path id="SVGID_4_" d="M45.7,15.2c-0.5,0.3-1.5,0.7-2,1c-0.3,0.2-1,0.7-1.2,0.9c-0.3,0.3-0.8,0.7-1.1,1c-0.3,0.3-0.6,0.6-1,1.1
					c-0.2,0.3-0.5,0.6-0.7,1c-0.1,0.1-0.3,0.4-0.5,0.8c-0.2,0.4-0.3,0.8-0.4,1c-0.1,0.5-0.3,1.6-0.4,2.1c0,0.4-0.1,1.3-0.1,1.7
					c0,0.3,0.1,1,0.1,1.4c0,0.3,0.2,0.9,0.3,1.3c0.1,0.3,0.3,1,0.4,1.4c0.1,0.4,0.5,1.2,0.6,1.6c0.1,0.3,0.5,0.9,0.6,1.3
					c0.2,0.4,0.6,1.1,0.9,1.5c0.2,0.4,0.8,1.3,1.1,1.6c0.4,0.6,1.1,1.7,1.5,2.3c0.4,0.5,1.2,1.6,1.7,2.1c0.5,0.6,1.5,1.7,2,2.3
					c0.5,0.5,1.5,1.5,2,2.1c0.5,0.5,1.6,1.5,2.1,2c0.6,0.6,1.8,1.6,2.5,2.2c0.7,0.6,2.2,1.9,3,2.5c0.6,0.5,1.8,1.4,2.4,1.9
					c0.7,0.5,2.1,1.6,2.8,2.2c0.6,0.5,2.4,1.7,2.6,1.9c0.2,0.2,1.8,1.3,2.5,1.8c0.6,0.4,1.6,1.2,2.2,1.6c0.6,0.4,1.8,1.2,2.5,1.6
					c0.5,0.3,1.6,1,2.1,1.3c0.5,0.3,1.5,1,2,1.4c0.5,0.4,1.5,1.2,2,1.6c0.4,0.3,1.1,0.9,1.5,1.2c0.4,0.3,1.1,1.1,1.5,1.5
					c0.2,0.3,0.7,0.9,1,1.2c0.2,0.3,0.5,0.7,0.6,1c0.1,0.3,0.1,0.8,0.1,1c-0.1,0.2-0.4,1.1-0.4,1.1s1.7-2.3,2.1-3
					c0.4-0.8,1-2.3,1.3-3.2c0.4-1.2,1-3.6,1.3-4.8c0.2-1.1,0.6-4.6,0.7-5.8c0.1-0.8,0.1-5.6,0-6.5c0-0.6-0.5-1.3-0.6-1.5
					c-0.3-0.5-0.9-1-1.3-1.4c-0.4-0.4-1.3-1.1-1.7-1.5c-0.5-0.4-1.6-1-2.1-1.4c-0.5-0.4-3.6-2.3-4.1-2.5c-0.5-0.3-1.4-0.8-1.9-1
					c-0.2-0.1-0.7-0.4-1-0.5c-0.4-0.2-3.3-1.9-3.9-2.3c-0.6-0.4-1.9-1.1-2.5-1.4c-0.6-0.3-1.7-0.8-2.2-1.1c-0.5-0.3-3.5-2.2-4-2.5
					c-0.7-0.4-2.1-1.3-2.7-1.7c-0.8-0.5-2.3-1.5-3.1-2.1c-0.5-0.4-1.5-1.1-2-1.5c-0.5-0.4-1.4-1.1-1.8-1.5c-0.4-0.4-1.4-1.2-1.8-1.6
					c-0.4-0.4-1.1-1.1-1.5-1.6c-0.3-0.3-0.7-0.8-1-1.1c-0.2-0.3-0.8-1.1-1-1.5c-0.3-0.5-0.9-1.5-1.1-2.1c-0.1-0.2-0.2-0.6-0.2-0.9
					c0-0.4-0.1-0.7-0.1-0.9c0-0.3,0-0.8,0.1-1.1c0.1-0.2,0.4-0.7,0.4-0.7S46,15,45.7,15.2"/>
			</defs>
			<linearGradient id="SVGID_5_" gradientUnits="userSpaceOnUse" x1="80.692" y1="16.5477" x2="59.0641" y2="50.1605">
				<stop  offset="0" style="stop-color:#27235F"/>
				<stop  offset="0.6182" style="stop-color:#14BFE8"/>
				<stop  offset="1" style="stop-color:#14BFE8"/>
			</linearGradient>
			<use xlink:href="#SVGID_4_"  style="overflow:visible;fill:url(#SVGID_5_);"/>
			<clipPath id="SVGID_6_">
				<use xlink:href="#SVGID_4_"  style="overflow:visible;"/>
			</clipPath>
		</g>
		<g>
			<defs>
				<path id="SVGID_7_" d="M38.5,14.3c-1,0.2-3.1,0.7-4.1,1c-0.8,0.3-2.4,1-3.2,1.4c-1,0.5-2.9,1.6-3.8,2.3c-0.8,0.6-2.2,2-2.9,2.7
					c-0.6,0.7-1.9,2.1-2.4,2.8c-0.6,0.9-1.7,2.7-2.1,3.6c-0.5,1.1-1.5,3.5-1.8,4.8c-0.2,1-0.5,2.7-0.6,3.7c-0.1,1.2,0,3.8,0.1,5
					c0.1,1,0.6,2.9,0.8,3.8c0.3,1.1,1,3.4,1.5,4.4c0.6,1.4,1.9,4.2,2.6,5.5c0.7,1.4,2.3,4.1,3.2,5.4c0.7,1,2.3,3,3.1,4
					c0.7,0.8,2,2.5,2.7,3.3c0.8,0.9,2.5,2.6,3.3,3.4c0.9,0.9,2.7,2.5,3.6,3.3c1.2,1,3.7,3.1,4.9,4.1c0.9,0.7,2.7,1.9,3.7,2.5
					c1.5,1,4.4,3.1,5.9,4c2.6,1.6,9.9,6.2,10.8,6.2c0.8,0,4.2-2.7,5.5-3.6c1.2-0.8,3.6-2.7,4.7-3.7c0.9-0.8,2.8-2.4,3.6-3.3
					c0.5-0.5,1.7-2.4,1.7-2.6c-0.2-0.6-1.2-1.4-1.7-1.8c-0.9-0.8-2.8-2.3-3.8-3.1c-1.1-0.8-3.3-2.5-4.5-3.3c-1.5-1-4.4-3-5.8-4
					c-1.1-0.8-3.2-2.4-4.3-3.2c-1.2-0.9-3.8-2.8-5-3.8c-1.1-0.9-3.3-2.9-4.4-3.8c-0.7-0.6-2.2-2-2.8-2.7c-0.7-0.8-2.2-2.3-2.9-3
					c-0.6-0.6-1.7-2-2.3-2.7c-0.5-0.6-1.4-1.7-1.8-2.3c-0.5-0.8-1.5-2.4-2-3.2c-0.5-0.8-1.4-2.5-1.8-3.3c-0.4-0.7-1.1-2.2-1.4-2.9
					c-0.4-1-0.9-3-1.1-4c0-0.4-0.2-1.5-0.2-1.9c0-0.9,0-2.2,0.2-3.1c0.1-0.5,0.4-1.8,0.6-2.4c0.2-0.6,0.7-1.6,1-2.3
					c0.4-0.7,1.2-1.9,1.8-2.4c0.4-0.4,1.3-1.1,1.8-1.4c0.5-0.4,1.5-1.1,2.1-1.4c0.5-0.3,1.6-0.7,2.2-0.9c0.9-0.3,3.7-1.1,3.7-1.1
					s-1-0.3-1.3-0.4c-0.8-0.1-2.5-0.3-3.3-0.3C41.4,14,39.5,14.2,38.5,14.3"/>
			</defs>
			<linearGradient id="SVGID_8_" gradientUnits="userSpaceOnUse" x1="26.8735" y1="19.0063" x2="63.715" y2="91.9401">
				<stop  offset="0" style="stop-color:#27235F"/>
				<stop  offset="0.1636" style="stop-color:#14BFE8"/>
				<stop  offset="0.8485" style="stop-color:#14BFE8"/>
				<stop  offset="1" style="stop-color:#14BFE8"/>
			</linearGradient>
			<use xlink:href="#SVGID_7_"  style="overflow:visible;fill:url(#SVGID_8_);"/>
			<clipPath id="SVGID_9_">
				<use xlink:href="#SVGID_7_"  style="overflow:visible;"/>
			</clipPath>
		</g>
		<g>
			<defs>
				<path id="SVGID_10_" d="M45.3,15.9c-0.4,0.2-1,0.5-1.3,0.7c-0.3,0.2-0.9,0.6-1.2,0.9l-0.1,0.1c-0.3,0.3-0.7,0.6-0.9,0.9
					l-0.3,0.3c-0.2,0.2-0.4,0.4-0.7,0.8l-0.2,0.3c-0.2,0.2-0.4,0.5-0.5,0.7l0,0.1c-0.1,0.2-0.2,0.4-0.4,0.7
					c-0.1,0.3-0.2,0.6-0.3,0.9l0,0.1C39.2,22.4,39,23.3,39,24c0,0.4-0.1,1.2-0.1,1.6c0,0.3,0.1,1,0.1,1.3c0,0.3,0.2,0.9,0.2,1.1
					l0.1,0.4c0.1,0.4,0.2,0.7,0.3,0.9c0.1,0.4,0.4,1,0.6,1.4l0.1,0.1c0.1,0.2,0.3,0.6,0.5,0.9l0.2,0.3c0.2,0.4,0.6,1.1,0.9,1.5
					c0.3,0.4,0.8,1.2,1.1,1.6c0.1,0.2,0.3,0.5,0.5,0.8c0.3,0.5,0.7,1.1,1,1.5c0.4,0.5,1.2,1.5,1.6,2c0.5,0.6,1.5,1.7,2,2.3
					c0.5,0.5,1.5,1.5,2,2c0.5,0.5,1.5,1.5,2.1,2c0.6,0.5,1.8,1.6,2.5,2.2c0.7,0.6,2.2,1.9,3,2.5c0.4,0.3,1,0.8,1.5,1.2
					c0.4,0.3,0.7,0.5,0.9,0.7c0.2,0.2,0.6,0.5,1,0.8c0.6,0.5,1.4,1.1,1.8,1.4c0.2,0.2,0.7,0.5,1.1,0.8c1.1,0.8,1.4,1,1.5,1.1
					c0.1,0.1,1.2,0.8,1.7,1.2l0.6,0.5c0.2,0.2,0.6,0.4,1,0.7c0.5,0.3,0.9,0.7,1.2,0.9c0.6,0.4,1.8,1.2,2.5,1.6
					c0.2,0.1,0.6,0.4,1,0.6c0.4,0.3,0.9,0.5,1.1,0.7c0.5,0.3,1.5,1,2.1,1.4c0.3,0.3,0.8,0.6,1.2,1c0.3,0.3,0.6,0.5,0.8,0.6
					c0.4,0.3,1.1,0.9,1.5,1.2c0.4,0.4,1.2,1.1,1.5,1.5c0.2,0.3,0.8,0.9,1,1.3c0,0.1,0.1,0.1,0.1,0.2c0.2,0.4,0.5,0.6,0.6,0.9
					c0,0.1,0,0.2,0.1,0.4c0.4-0.5,0.6-1,0.9-1.3c0.4-0.7,1-2.3,1.3-3.1c0.4-1.1,1-3.5,1.3-4.8c0.2-1.1,0.6-4.6,0.7-5.7
					c0.1-0.8,0.1-5.4,0-6.4c0-0.3-0.2-0.7-0.5-1.3c-0.1-0.3-0.5-0.6-0.8-0.9c-0.1-0.1-0.3-0.3-0.4-0.4c-0.4-0.4-1.2-1.1-1.6-1.4
					c-0.3-0.2-0.9-0.6-1.3-0.9c-0.3-0.2-0.6-0.4-0.7-0.5c-0.5-0.3-3.6-2.2-4.1-2.5c-0.3-0.2-0.8-0.5-1.3-0.7L76,41
					c-0.2-0.1-0.5-0.3-0.7-0.4c-0.4-0.2-3.3-1.9-3.9-2.3c-0.2-0.1-0.6-0.3-0.9-0.5c-0.6-0.3-1.2-0.7-1.6-0.9c-0.2-0.1-0.6-0.3-1-0.5
					c-0.5-0.3-1-0.5-1.3-0.7c-0.4-0.2-1.7-1.1-3.2-2c-0.4-0.3-0.7-0.5-0.9-0.6c-0.3-0.2-0.7-0.5-1.2-0.8c-0.6-0.3-1.1-0.7-1.5-0.9
					c-0.8-0.5-2.3-1.5-3.1-2.1c-0.5-0.4-1.5-1.1-2-1.5c-0.4-0.4-1.3-1.1-1.8-1.5c-0.1-0.1-0.4-0.3-0.6-0.5c-0.5-0.4-1-0.8-1.2-1.1
					c-0.5-0.4-1.2-1.2-1.6-1.7c-0.1-0.1-0.2-0.3-0.4-0.4c-0.2-0.3-0.5-0.5-0.6-0.7c-0.3-0.4-0.8-1.2-1-1.6l-0.1-0.2
					c-0.3-0.5-0.8-1.4-1-1.9c-0.1-0.2-0.2-0.7-0.3-1.1c0-0.2,0-0.5-0.1-0.6l0-0.3c0-0.2,0-0.4,0-0.6C45.7,15.7,45.5,15.8,45.3,15.9"
					/>
			</defs>
			<radialGradient id="SVGID_11_" cx="63.259" cy="43.4057" r="26.1552" gradientUnits="userSpaceOnUse">
				<stop  offset="0" style="stop-color:#25A9E0"/>
				<stop  offset="0.8149" style="stop-color:#2A4D9E"/>
				<stop  offset="1" style="stop-color:#2B388F"/>
			</radialGradient>
			<use xlink:href="#SVGID_10_"  style="overflow:visible;fill:url(#SVGID_11_);"/>
			<clipPath id="SVGID_12_">
				<use xlink:href="#SVGID_10_"  style="overflow:visible;"/>
			</clipPath>
		</g>
		<g>
			<defs>
				<path id="SVGID_13_" d="M42.7,14.7c-0.4,0-1.1,0-1.5,0c-0.5,0-1.4,0.2-1.9,0.3c-0.5,0.1-1.4,0.3-1.9,0.4
					c-0.4,0.1-1.3,0.4-1.7,0.5c-0.4,0.1-1.1,0.3-1.4,0.4c-0.4,0.1-1.1,0.5-1.5,0.7c-0.3,0.1-0.8,0.4-1.1,0.5
					c-0.3,0.1-0.8,0.4-1.1,0.5c-0.3,0.2-1,0.6-1.2,0.8c-0.5,0.3-1.3,1-1.7,1.3c-0.3,0.2-0.8,0.7-1.1,1c-0.3,0.3-1,0.9-1.3,1.2
					c-0.5,0.5-1.3,1.5-1.7,2c-0.4,0.4-1,1.3-1.3,1.8c-0.3,0.5-1,1.5-1.2,2.1c-0.3,0.6-0.7,1.8-0.9,2.4c-0.2,0.5-0.5,1.4-0.6,1.9
					c-0.1,0.5-0.3,1.6-0.4,2.1c-0.1,0.5-0.3,1.5-0.3,2.1c0,0.6-0.1,1.8-0.1,2.4c0,0.7,0,2.1,0.1,2.8c0.1,0.6,0.4,1.9,0.5,2.4
					c0.2,0.8,0.7,2.1,1,2.8c0.3,1,1.1,3,1.5,3.9c0.5,1.1,1.5,3.1,2.1,4.2c0.4,0.8,1.3,2.2,1.7,3c0.5,0.8,1.5,2.3,2,3
					c0.4,0.6,1.4,1.8,1.8,2.4c0.6,0.7,1.7,2.1,2.3,2.8c0.5,0.6,1.6,1.8,2.2,2.4c0.5,0.5,1.5,1.5,2,2c0.6,0.5,1.7,1.6,2.3,2.2
					c0.6,0.6,1.9,1.8,2.6,2.3c0.6,0.5,1.8,1.4,2.4,1.9c0.5,0.4,1.5,1.1,2,1.5c0.5,0.4,1.5,1.1,2,1.5c0.6,0.4,1.7,1.2,2.3,1.6
					c0.6,0.4,1.8,1.2,2.5,1.6c0.6,0.4,1.7,1.1,2.3,1.5c0.6,0.4,1.8,1.2,2.4,1.5c0.6,0.4,1.7,1,2.3,1.3c0.5,0.3,1.6,1,2.1,1.3
					c0.4,0.2,1.1,0.6,1.4,0.8c0.4,0.2,1,0.6,1.4,0.8c0,0.2,0.4,0.4,0.6,0.4c1.2-0.1,3.1-1.8,4.1-2.4c1-0.7,2.9-2.1,3.9-2.8
					c0.7-0.6,2.1-1.7,2.8-2.4c0.6-0.5,3.2-3.1,3.3-3.5c0.1-0.2,0-0.5,0-0.7c-0.1-0.3-0.5-0.9-0.8-1.1c-0.6-0.6-2-1.7-2.6-2.2
					c-0.5-0.4-1.7-1.3-2.3-1.7c-0.5-0.4-1.6-1.1-2.1-1.5c-0.4-0.3-1.2-0.9-1.7-1.1c-0.6-0.4-1.8-1.3-2.4-1.8c-0.5-0.4-1.6-1-2.1-1.3
					c-0.8-0.5-2.3-1.6-3.1-2.1c-0.9-0.7-2.7-2.3-3.6-3c-0.7-0.6-2.3-1.8-3.1-2.4c-0.7-0.5-2-1.7-2.6-2.3c-0.6-0.5-1.7-1.5-2.3-2.1
					c-0.4-0.4-1.2-1.1-1.7-1.5c-0.5-0.5-1.6-1.5-2.1-2c-0.3-0.3-0.9-0.8-1.2-1.1c-0.3-0.4-1-1.1-1.3-1.4c-0.3-0.4-0.9-1-1.2-1.4
					c-0.3-0.4-0.9-1.1-1.2-1.5c-0.3-0.4-1-1.2-1.2-1.6c-0.2-0.3-0.7-1-0.9-1.3c-0.2-0.3-0.7-1-0.9-1.3c-0.3-0.4-0.9-1.3-1.2-1.8
					c-0.2-0.4-0.7-1.3-0.9-1.7c-0.2-0.4-0.6-1.1-0.7-1.5c-0.2-0.5-0.6-1.4-0.8-1.9c-0.1-0.3-0.4-0.8-0.4-1.1
					c-0.2-0.5-0.5-1.4-0.7-1.9c-0.1-0.5-0.4-1.5-0.5-2c-0.1-0.5-0.2-1.6-0.2-2.1c0-0.6,0.1-1.9,0.2-2.5c0.1-0.4,0.3-1.3,0.4-1.8
					c0.1-0.5,0.5-1.5,0.6-2c0.1-0.2,0.3-0.7,0.4-0.9c0.2-0.4,0.7-1.3,1-1.6c0.2-0.3,0.8-1,1.1-1.3c0.2-0.3,0.7-0.8,1.1-1.1
					c0.4-0.3,1.2-0.9,1.7-1.2c0.3-0.2,1-0.6,1.4-0.8c0.3-0.1,0.9-0.4,1.2-0.6c0.3-0.1,0.9-0.5,1.2-0.6c0.4-0.1,1.6-0.3,1.6-0.3
					s-0.7-0.2-1-0.2c-0.1,0-0.2,0-0.3,0C43.1,14.7,42.9,14.7,42.7,14.7"/>
			</defs>
			<radialGradient id="SVGID_14_" cx="48.5597" cy="52.7705" r="34.3034" gradientUnits="userSpaceOnUse">
				<stop  offset="0" style="stop-color:#25A9E0"/>
				<stop  offset="0.8149" style="stop-color:#2A4D9E"/>
				<stop  offset="1" style="stop-color:#2B388F"/>
			</radialGradient>
			<use xlink:href="#SVGID_13_"  style="overflow:visible;fill:url(#SVGID_14_);"/>
			<clipPath id="SVGID_15_">
				<use xlink:href="#SVGID_13_"  style="overflow:visible;"/>
			</clipPath>
		</g>
	</g>
</g>
</svg>
