<svg width="104" height="104" viewBox="0 0 104 104" fill="none" xmlns="http://www.w3.org/2000/svg">
<path fill-rule="evenodd" clip-rule="evenodd" d="M47.5814 80.4523L54.2451 84.271C54.2451 84.271 46.9024 88.5997 45.7665 89.3847C45.7665 89.3847 45.4527 88.5444 45.3833 88.2625C45.1445 86.7076 44.9306 85.4872 45.4985 83.9711C46.0026 82.6208 46.6622 81.551 47.5814 80.4523Z" fill="#21211F"/>
<path fill-rule="evenodd" clip-rule="evenodd" d="M53.5161 84.5156L48.695 85.8449L45.7638 89.3838L56.2447 86.2097L53.5161 84.5156Z" fill="url(#paint0_linear)"/>
<path d="M76.8024 75.3274C77.3065 75.0482 77.8119 74.7746 78.3271 74.5078C79.9017 73.6979 80.2684 73.3667 81.4709 72.1146L82.2609 69.6277L74.0961 61.2909C71.0732 63.1056 68.1905 64.952 65.2537 66.9049L76.8024 75.3274Z" fill="url(#paint1_linear)"/>
<path fill-rule="evenodd" clip-rule="evenodd" d="M86.3459 59.9032C85.7096 64.3604 84.1835 68.5205 81.4639 72.1153C81.7883 70.7346 81.8271 69.9648 81.0023 68.9586C79.971 67.6995 78.8538 66.6146 77.5869 65.596C74.7911 63.3432 71.6972 61.6059 68.7531 59.5742C60.1896 53.663 51.5345 47.3745 44.7993 39.3833C41.5183 35.4927 38.0156 30.2256 38.0433 24.9874C38.0724 19.4895 41.9985 17.0839 46.387 14.7344C44.5559 17.1862 47.688 20.8467 49.3361 22.6876C51.3987 24.9888 53.8563 26.9583 56.3527 28.7744C60.5111 31.7984 65.023 34.2792 69.4877 36.7974C72.5192 38.507 75.5437 40.225 78.5766 41.9318C81.1784 43.3969 84.2168 45.148 86.0783 47.5556C86.8234 48.5183 87.075 49.7945 87.075 51.071C87.1011 53.4552 86.8581 56.3993 86.3459 59.9032Z" fill="url(#paint2_linear)"/>
<path fill-rule="evenodd" clip-rule="evenodd" d="M44.8534 16.7733C41.4809 18.7718 39.1037 20.9666 39.0829 24.9926C39.0621 28.9481 41.2522 33.5657 45.595 38.7154C52.3163 46.6886 61.0129 52.9702 69.345 58.7211C70.379 59.4357 71.4574 60.1281 72.4998 60.7984C74.4154 62.0298 76.3976 63.3041 78.2411 64.7885C79.6051 65.8886 80.7722 67.0371 81.8077 68.3018C81.999 68.5339 82.1528 68.7606 82.279 68.9831C83.8079 66.2742 84.8267 63.1839 85.3174 59.7563C85.7515 56.6139 86.0137 54.1687 86.0137 52.3166C86.0137 50.6883 86.0673 49.2372 85.2564 48.1882C83.4655 45.8746 80.3453 44.118 78.0651 42.834C76.3948 41.8942 74.7259 40.9502 73.0556 40.0049L68.9762 37.6995L67.9436 37.1177C63.8545 34.8179 59.6268 32.4379 55.7414 29.6115C53.611 28.0622 50.8692 25.9532 48.5613 23.3769C47.5674 22.2685 45.0668 19.4767 44.8534 16.7733Z" fill="url(#paint3_linear)"/>
<path fill-rule="evenodd" clip-rule="evenodd" d="M59.6175 88.2168C57.8943 87.2244 56.1961 86.1879 54.5076 85.1388C50.9334 82.9151 47.462 80.5144 44.0197 78.0957C37.6781 73.6385 32.2099 67.9857 27.4097 61.9626C24.9894 58.9248 23.051 55.5525 21.3514 52.0696C19.6892 48.6669 18.2007 44.8924 17.7897 41.1C17.7671 40.8911 17.75 40.6823 17.73 40.4748C17.6039 39.1697 17.6563 37.368 17.73 36.4932C18.2506 30.3086 21.1958 24.7363 25.867 20.3327C30.9325 15.5562 39.5291 12.528 46.3942 14.7338C42.9894 15.6571 39.6999 16.6812 37.0533 19.1399C34.0206 21.9594 33.075 26.5687 33.5152 30.5187C33.9276 34.2033 35.6841 37.4112 37.4809 40.59C39.2819 43.7771 41.4745 46.6712 43.9642 49.3593C49.1477 54.954 55.1296 59.5633 61.2532 64.0786C64.3233 66.3424 67.5351 68.4017 70.6219 70.6407C72.1632 71.7588 73.6851 72.8977 75.1708 74.0877C76.047 74.787 78.577 76.3501 78.1951 77.5387C77.7272 78.9899 76.0748 80.3181 74.9917 81.3008C73.6378 82.5267 72.2423 83.6946 70.7996 84.8168C69.5721 85.772 64.9536 89.4661 63.4261 89.9319C63.0778 90.0381 63.0863 90.0058 62.7552 89.9319C61.7049 89.6976 60.4092 88.673 59.6175 88.2168Z" fill="url(#paint4_linear)"/>
<path d="M41.4897 15.0364C36.3312 15.0364 30.4798 17.4108 26.5835 21.0844C20.782 26.5533 18.0271 33.6213 18.8256 40.9879C19.1602 44.0879 20.2613 47.4643 22.2873 51.6175C24.2215 55.5772 26.1086 58.6593 28.2262 61.3184C33.5971 68.0588 38.9598 73.2707 44.6196 77.2484C47.7202 79.4265 51.3389 81.9447 55.0602 84.2597C57.0861 85.5202 58.6524 86.4641 60.1396 87.3196C60.3715 87.4523 60.6436 87.6306 60.9394 87.8269C61.574 88.2443 62.6376 88.9436 63.1597 88.9436C63.4708 88.8717 64.8343 88.171 69.7249 84.3399L70.1595 83.9985C71.5911 82.8859 72.9811 81.7194 74.2905 80.535L74.7057 80.1618C75.6082 79.3602 76.8385 78.2683 77.187 77.2691C77.0565 76.7674 75.5943 75.6949 75.1083 75.3383C74.8765 75.1697 74.6737 75.0177 74.5182 74.8947C73.2032 73.8429 71.7702 72.758 70.0095 71.4795C68.5765 70.4402 67.088 69.4202 65.648 68.4334C63.9929 67.2987 62.2835 66.1281 60.6339 64.9118C54.7603 60.5804 48.5756 55.8661 43.1991 50.0613C40.5066 47.1561 38.3391 44.2247 36.5728 41.0984C34.8649 38.0758 32.9292 34.651 32.4807 30.6333C31.9322 25.7185 33.3764 21.1397 36.3423 18.3824C38.0211 16.8234 39.9193 15.8103 41.9341 15.0419C41.7869 15.0378 41.6383 15.0364 41.4897 15.0364Z" fill="url(#paint5_linear)"/>
<defs>
<linearGradient id="paint0_linear" x1="55.4114" y1="88.7819" x2="51.5402" y2="82.8989" gradientUnits="userSpaceOnUse">
<stop stop-color="white"/>
<stop offset="0.4121" stop-color="#BBBCBE"/>
<stop offset="1"/>
</linearGradient>
<linearGradient id="paint1_linear" x1="65.2768" y1="68.3091" x2="82.283" y2="68.3091" gradientUnits="userSpaceOnUse">
<stop stop-color="#FFFFFE"/>
<stop offset="1" stop-color="#777978"/>
</linearGradient>
<linearGradient id="paint2_linear" x1="70.3407" y1="25.9271" x2="50.4073" y2="56.7583" gradientUnits="userSpaceOnUse">
<stop stop-color="#201C60"/>
<stop offset="0.6182" stop-color="#13C0E8"/>
<stop offset="1" stop-color="#13C0E8"/>
</linearGradient>
<linearGradient id="paint3_linear" x1="49.6311" y1="43.6843" x2="86.0172" y2="43.0329" gradientUnits="userSpaceOnUse">
<stop stop-color="#2CAFDD"/>
<stop offset="0.27369" stop-color="#3290C3"/>
<stop offset="0.46234" stop-color="#3371A9"/>
<stop offset="0.64638" stop-color="#305490"/>
<stop offset="0.82123" stop-color="#293878"/>
<stop offset="1" stop-color="#201C60"/>
</linearGradient>
<linearGradient id="paint4_linear" x1="26.5822" y1="18.8407" x2="75.403" y2="80.0922" gradientUnits="userSpaceOnUse">
<stop stop-color="#201C60"/>
<stop offset="0.1636" stop-color="#13C0E8"/>
<stop offset="0.8485" stop-color="#13C0E8"/>
</linearGradient>
<linearGradient id="paint5_linear" x1="40.7681" y1="51.99" x2="77.187" y2="51.99" gradientUnits="userSpaceOnUse">
<stop stop-color="#2CAFDD"/>
<stop offset="0.31269" stop-color="#3290C3"/>
<stop offset="0.526" stop-color="#3371A9"/>
<stop offset="0.68281" stop-color="#305490"/>
<stop offset="0.8266" stop-color="#293878"/>
<stop offset="1" stop-color="#201C60"/>
</linearGradient>
</defs>
</svg>
